<?xml version="1.0" encoding="UTF-8" standalone="no"?>
<!DOCTYPE svg PUBLIC "-//W3C//DTD SVG 1.1//EN"
 "http://www.w3.org/Graphics/SVG/1.1/DTD/svg11.dtd">
<!-- Generated by graphviz version 2.43.0 (0)
 -->
<!-- Title: PN532Adapter Pages: 1 -->
<svg width="290pt" height="99pt"
 viewBox="0.00 0.00 290.00 99.00" xmlns="http://www.w3.org/2000/svg" xmlns:xlink="http://www.w3.org/1999/xlink">
<g id="graph0" class="graph" transform="scale(1 1) rotate(0) translate(4 95)">
<title>PN532Adapter</title>
<!-- Node1 -->
<g id="Node000001" class="node">
<title>Node1</title>
<g id="a_Node000001"><a xlink:title="Concrete CW_NfcTransport implementation for the PN532 over SPI on ESP32&#45;S3.">
<polygon fill="#999999" stroke="#666666" points="206,-19 120,-19 120,0 206,0 206,-19"/>
<text text-anchor="middle" x="163" y="-7" font-family="Helvetica,sans-Serif" font-size="10.00">PN532Adapter</text>
</a>
</g>
</g>
<!-- Node2 -->
<g id="Node000002" class="node">
<title>Node2</title>
<g id="a_Node000002"><a xlink:title=" ">
<polygon fill="white" stroke="#666666" points="100,-91 0,-91 0,-72 100,-72 100,-91"/>
<text text-anchor="middle" x="50" y="-79" font-family="Helvetica,sans-Serif" font-size="10.00">CW_NfcTransport</text>
</a>
</g>
</g>
<!-- Node2&#45;&gt;Node1 -->
<g id="edge1_Node000001_Node000002" class="edge">
<title>Node2&#45;&gt;Node1</title>
<g id="a_edge1_Node000001_Node000002"><a xlink:title=" ">
<path fill="none" stroke="#63b8ff" d="M72.55,-66.53C95.36,-52.4 129.91,-31 149.03,-19.15"/>
<polygon fill="#63b8ff" stroke="#63b8ff" points="70.51,-63.68 63.86,-71.92 74.2,-69.63 70.51,-63.68"/>
</a>
</g>
</g>
<!-- Node3 -->
<g id="Node000003" class="node">
<title>Node3</title>
<g id="a_Node000003"><a xlink:href="structpn532__config__t.html" target="_top" xlink:title=" ">
<polygon fill="white" stroke="#666666" points="208,-91 118,-91 118,-72 208,-72 208,-91"/>
<text text-anchor="middle" x="163" y="-79" font-family="Helvetica,sans-Serif" font-size="10.00">pn532_config_t</text>
</a>
</g>
</g>
<!-- Node3&#45;&gt;Node1 -->
<g id="edge2_Node000001_Node000003" class="edge">
<title>Node3&#45;&gt;Node1</title>
<g id="a_edge2_Node000001_Node000003"><a xlink:title=" ">
<path fill="none" stroke="#9a32cd" stroke-dasharray="5,2" d="M163,-61.58C163,-47.76 163,-29.68 163,-19.15"/>
<polygon fill="#9a32cd" stroke="#9a32cd" points="159.5,-61.92 163,-71.92 166.5,-61.92 159.5,-61.92"/>
</a>
</g>
<text text-anchor="start" x="166.5" y="-42.5" font-family="Helvetica,sans-Serif" font-size="10.00" fill="grey">_config</text>
</g>
<!-- Node4 -->
<g id="Node000004" class="node">
<title>Node4</title>
<g id="a_Node000004"><a xlink:href="structpn532__t.html" target="_top" xlink:title=" ">
<polygon fill="white" stroke="#666666" points="282,-91 226,-91 226,-72 282,-72 282,-91"/>
<text text-anchor="middle" x="254" y="-79" font-family="Helvetica,sans-Serif" font-size="10.00">pn532_t</text>
</a>
</g>
</g>
<!-- Node4&#45;&gt;Node1 -->
<g id="edge3_Node000001_Node000004" class="edge">
<title>Node4&#45;&gt;Node1</title>
<g id="a_edge3_Node000001_Node000004"><a xlink:title=" ">
<path fill="none" stroke="#9a32cd" stroke-dasharray="5,2" d="M238.93,-64.59C230.31,-55.92 219.03,-45.3 208,-37 199.16,-30.35 188.53,-24.02 179.81,-19.22"/>
<polygon fill="#9a32cd" stroke="#9a32cd" points="236.55,-67.16 246.03,-71.88 241.56,-62.27 236.55,-67.16"/>
</a>
</g>
<text text-anchor="start" x="230" y="-42.5" font-family="Helvetica,sans-Serif" font-size="10.00" fill="grey">_dev</text>
</g>
</g>
</svg>
