<?xml version="1.0" encoding="UTF-8" standalone="no"?>
<!DOCTYPE svg PUBLIC "-//W3C//DTD SVG 1.1//EN"
 "http://www.w3.org/Graphics/SVG/1.1/DTD/svg11.dtd">
<!-- Generated by graphviz version 2.43.0 (0)
 -->
<!-- Title: ScriptedMockNfcTransport Pages: 1 -->
<svg width="222pt" height="99pt"
 viewBox="0.00 0.00 222.00 99.00" xmlns="http://www.w3.org/2000/svg" xmlns:xlink="http://www.w3.org/1999/xlink">
<g id="graph0" class="graph" transform="scale(1 1) rotate(0) translate(4 95)">
<title>ScriptedMockNfcTransport</title>
<!-- Node1 -->
<g id="Node000001" class="node">
<title>Node1</title>
<g id="a_Node000001"><a xlink:title=" ">
<polygon fill="#999999" stroke="#666666" points="180,-19 36,-19 36,0 180,0 180,-19"/>
<text text-anchor="middle" x="108" y="-7" font-family="Helvetica,sans-Serif" font-size="10.00">ScriptedMockNfcTransport</text>
</a>
</g>
</g>
<!-- Node2 -->
<g id="Node000002" class="node">
<title>Node2</title>
<g id="a_Node000002"><a xlink:title=" ">
<polygon fill="white" stroke="#666666" points="100,-91 0,-91 0,-72 100,-72 100,-91"/>
<text text-anchor="middle" x="50" y="-79" font-family="Helvetica,sans-Serif" font-size="10.00">CW_NfcTransport</text>
</a>
</g>
</g>
<!-- Node2&#45;&gt;Node1 -->
<g id="edge1_Node000001_Node000002" class="edge">
<title>Node2&#45;&gt;Node1</title>
<g id="a_edge1_Node000001_Node000002"><a xlink:title=" ">
<path fill="none" stroke="#63b8ff" d="M63.66,-64.01C75.3,-49.96 91.58,-30.32 100.83,-19.15"/>
<polygon fill="#63b8ff" stroke="#63b8ff" points="60.8,-61.98 57.11,-71.92 66.19,-66.45 60.8,-61.98"/>
</a>
</g>
</g>
<!-- Node3 -->
<g id="Node000003" class="node">
<title>Node3</title>
<g id="a_Node000003"><a xlink:href="structMockScriptEntry.html" target="_top" xlink:title=" ">
<polygon fill="white" stroke="#666666" points="214,-91 118,-91 118,-72 214,-72 214,-91"/>
<text text-anchor="middle" x="166" y="-79" font-family="Helvetica,sans-Serif" font-size="10.00">MockScriptEntry</text>
</a>
</g>
</g>
<!-- Node3&#45;&gt;Node1 -->
<g id="edge2_Node000001_Node000003" class="edge">
<title>Node3&#45;&gt;Node1</title>
<g id="a_edge2_Node000001_Node000003"><a xlink:title=" ">
<path fill="none" stroke="#9a32cd" stroke-dasharray="5,2" d="M152.34,-64.01C140.7,-49.96 124.42,-30.32 115.17,-19.15"/>
<polygon fill="#9a32cd" stroke="#9a32cd" points="149.81,-66.45 158.89,-71.92 155.2,-61.98 149.81,-66.45"/>
</a>
</g>
<text text-anchor="start" x="146.5" y="-42.5" font-family="Helvetica,sans-Serif" font-size="10.00" fill="grey">scripts</text>
</g>
</g>
</svg>
