<?xml version="1.0" encoding="UTF-8" standalone="no"?>
<!DOCTYPE svg PUBLIC "-//W3C//DTD SVG 1.1//EN"
 "http://www.w3.org/Graphics/SVG/1.1/DTD/svg11.dtd">
<!-- Generated by graphviz version 2.43.0 (0)
 -->
<!-- Title: Pn532NfcTransport Pages: 1 -->
<svg width="182pt" height="99pt"
 viewBox="0.00 0.00 182.00 99.00" xmlns="http://www.w3.org/2000/svg" xmlns:xlink="http://www.w3.org/1999/xlink">
<g id="graph0" class="graph" transform="scale(1 1) rotate(0) translate(4 95)">
<title>Pn532NfcTransport</title>
<!-- Node1 -->
<g id="Node000001" class="node">
<title>Node1</title>
<g id="a_Node000001"><a xlink:title=" ">
<polygon fill="#999999" stroke="#666666" points="152,-19 44,-19 44,0 152,0 152,-19"/>
<text text-anchor="middle" x="98" y="-7" font-family="Helvetica,sans-Serif" font-size="10.00">Pn532NfcTransport</text>
</a>
</g>
</g>
<!-- Node2 -->
<g id="Node000002" class="node">
<title>Node2</title>
<g id="a_Node000002"><a xlink:title=" ">
<polygon fill="white" stroke="#666666" points="100,-91 0,-91 0,-72 100,-72 100,-91"/>
<text text-anchor="middle" x="50" y="-79" font-family="Helvetica,sans-Serif" font-size="10.00">CW_NfcTransport</text>
</a>
</g>
</g>
<!-- Node2&#45;&gt;Node1 -->
<g id="edge1_Node000001_Node000002" class="edge">
<title>Node2&#45;&gt;Node1</title>
<g id="a_edge1_Node000001_Node000002"><a xlink:title=" ">
<path fill="none" stroke="#63b8ff" d="M61.58,-63.62C71.19,-49.59 84.48,-30.21 92.07,-19.15"/>
<polygon fill="#63b8ff" stroke="#63b8ff" points="58.65,-61.69 55.89,-71.92 64.43,-65.65 58.65,-61.69"/>
</a>
</g>
</g>
<!-- Node3 -->
<g id="Node000003" class="node">
<title>Node3</title>
<g id="a_Node000003"><a xlink:href="structpn532__t.html" target="_top" xlink:title=" ">
<polygon fill="white" stroke="#666666" points="174,-91 118,-91 118,-72 174,-72 174,-91"/>
<text text-anchor="middle" x="146" y="-79" font-family="Helvetica,sans-Serif" font-size="10.00">pn532_t</text>
</a>
</g>
</g>
<!-- Node3&#45;&gt;Node1 -->
<g id="edge2_Node000001_Node000003" class="edge">
<title>Node3&#45;&gt;Node1</title>
<g id="a_edge2_Node000001_Node000003"><a xlink:title=" ">
<path fill="none" stroke="#9a32cd" stroke-dasharray="5,2" d="M134.42,-63.62C124.81,-49.59 111.52,-30.21 103.93,-19.15"/>
<polygon fill="#9a32cd" stroke="#9a32cd" points="131.57,-65.65 140.11,-71.92 137.35,-61.69 131.57,-65.65"/>
</a>
</g>
<text text-anchor="start" x="130" y="-42.5" font-family="Helvetica,sans-Serif" font-size="10.00" fill="grey">m_dev</text>
</g>
</g>
</svg>
