<svg xmlns="http://www.w3.org/2000/svg" width="200" height="38" viewBox="0 0 303 57" fill="none">
  <mask id="cnxlogo" maskUnits="userSpaceOnUse" x="0" y="0" width="303" height="57">
    <path d="M302.75 0.5H0.5V56.8813H302.75V0.5Z" fill="#101f2e" />
  </mask>
  <g mask="url(#cnxlogo)">
    <path d="M71.4697 30.9788C75.2697 30.6874 78.1653 27.4118 78.1653 23.2836C78.1653 18.3783 74.59 15.0811 69.27 15.0811H60.289V42.5758H64.0355V18.5347H68.9916C72.2404 18.5347 74.4242 20.4451 74.4242 23.2836C74.4242 26.1221 72.2404 28.0324 68.9916 28.0324H64.4049L76.4151 42.5758H81.1679L71.4697 30.9788Z" fill="#101f2e" />
    <path d="M111.799 15.0811L104.185 26.3272L96.5662 15.0811H92.0823L102.319 30.4123V42.5758H106.051V30.4123L116.283 15.0811H111.799Z" fill="#101f2e" />
    <path d="M139.878 15.0811H130.993V42.5758H134.801V31.1246H139.878C144.905 31.1246 148.551 27.7572 148.551 23.1217C148.551 18.4861 144.905 15.0811 139.878 15.0811ZM134.801 18.5347H139.834C143.207 18.5347 144.731 20.9146 144.731 23.1217C144.731 25.3289 143.197 27.7086 139.834 27.7086H134.801V18.5347Z" fill="#101f2e" />
    <path d="M162.785 15.0811V18.5347H170.412V42.5758H174.139V18.5347H181.766V15.0811H162.785Z" fill="#101f2e" />
    <path d="M216.942 15.4386V34.5569L198.374 14.1333V42.6931H202.109V23.5801L220.676 43.9982V15.4386H216.942Z" fill="#101f2e" />
    <path d="M252.238 15.0811C249.469 15.0799 246.761 15.8854 244.459 17.3953C242.157 18.9052 240.361 21.052 239.3 23.5639C238.241 26.0758 237.962 28.8401 238.502 31.5072C239.042 34.1743 240.374 36.6243 242.331 38.5473C244.289 40.4705 246.783 41.7804 249.499 42.3112C252.215 42.8421 255.029 42.5702 257.588 41.5298C260.146 40.4894 262.333 38.7274 263.871 36.4666C265.409 34.2057 266.23 31.5476 266.23 28.8284C266.226 25.1845 264.751 21.6911 262.128 19.114C259.504 16.5369 255.947 15.0865 252.238 15.0811ZM252.238 39.0388C250.172 39.0786 248.141 38.5133 246.403 37.415C244.665 36.3167 243.301 34.7352 242.483 32.872C241.663 31.009 241.429 28.9487 241.808 26.9539C242.186 24.959 243.16 23.1201 244.608 21.6715C246.054 20.2229 247.907 19.2303 249.931 18.8202C251.955 18.4101 254.056 18.6012 255.969 19.3689C257.881 20.1368 259.518 21.4465 260.67 23.1312C261.822 24.8158 262.437 26.7993 262.435 28.8284C262.461 30.1599 262.217 31.4832 261.716 32.721C261.216 33.9587 260.469 35.086 259.52 36.0367C258.57 36.9875 257.437 37.7427 256.187 38.2582C254.935 38.7737 253.593 39.039 252.238 39.0388Z" fill="#101f2e" />
    <path d="M292.959 28.3022L302.047 15.0811H297.468L290.665 24.9186L283.868 15.0811H279.29L288.376 28.3022L278.568 42.5758H283.145L290.665 31.6103L298.19 42.5758H302.768L292.959 28.3022Z" fill="#101f2e" />
    <path d="M28.7187 56.8813C25.013 56.8813 21.3436 56.1521 17.9198 54.7353C14.4962 53.3187 11.3854 51.2421 8.76507 48.6244C6.14471 46.0067 4.06615 42.899 2.64802 39.4788C1.2299 36.0584 0.5 32.3926 0.5 28.6906C0.5 24.9886 1.2299 21.3229 2.64802 17.9025C4.06615 14.4823 6.14471 11.3746 8.76507 8.75686C11.3854 6.13911 14.4962 4.0626 17.9198 2.64589C21.3436 1.22918 25.013 0.5 28.7187 0.5C36.0363 0.5 42.6132 3.0453 47.7356 7.85768L48.5266 8.61831L46.5565 10.8262L45.7033 10.0153C41.1438 5.72674 35.269 3.45964 28.7187 3.45964C22.0204 3.45964 15.5963 6.11791 10.8599 10.8496C6.1235 15.5813 3.46258 21.999 3.46258 28.6906C3.46258 35.3823 6.1235 41.7999 10.8599 46.5316C15.5963 51.2633 22.0204 53.9216 28.7187 53.9216C35.5326 53.9216 40.9749 51.1543 44.6041 48.5262L40.1779 41.8729C35.7608 44.7201 32.7329 45.7204 28.7187 45.7204C24.2008 45.7204 19.8678 43.9274 16.6731 40.736C13.4785 37.5445 11.6838 33.216 11.6838 28.7025C11.6838 24.1891 13.4785 19.8604 16.6731 16.669C19.8678 13.4775 24.2008 11.6845 28.7187 11.6845C32.486 11.6792 36.1573 12.8723 39.2003 15.0911L40.9156 13.0193C37.3999 10.3704 33.1221 8.92652 28.7187 8.90244C23.4638 8.90244 18.424 10.9879 14.7082 14.7C10.9924 18.4121 8.90487 23.4469 8.90487 28.6965C8.90487 33.9463 10.9924 38.981 14.7082 42.6931C18.424 46.4052 23.4638 48.4907 28.7187 48.4907C32.0358 48.5403 35.3068 47.7112 38.199 46.0875L39.3159 45.4599L40.9452 47.9432L39.6536 48.6682C36.321 50.542 32.5515 51.5018 28.7276 51.4503C22.6869 51.4503 16.8937 49.0531 12.6222 44.7858C8.35081 40.5187 5.95117 34.7312 5.95117 28.6965C5.95117 22.6619 8.35081 16.8744 12.6222 12.6072C16.8937 8.34007 22.6869 5.9428 28.7276 5.9428C34.3423 5.97706 39.758 8.0252 43.9879 11.7141L45.0692 12.6641L39.5558 19.3026L38.4093 18.2667C35.731 15.9166 32.2833 14.6288 28.7187 14.6471C24.9864 14.6471 21.4071 16.1283 18.7681 18.7646C16.129 21.4012 14.6464 24.977 14.6464 28.7055C14.6464 32.434 16.129 36.0097 18.7681 38.6462C21.4071 41.2825 24.9864 42.7637 28.7187 42.7637C32.4604 42.7637 35.1446 41.7545 39.7573 38.6202L40.9986 37.7589L48.5947 49.1833L47.5163 50.0267C41.8577 54.5106 35.3697 56.8813 28.7187 56.8813Z" fill="#101f2e" />
  </g>
</svg>
