<?xml version="1.0" encoding="UTF-8" standalone="no"?>
<!DOCTYPE svg PUBLIC "-//W3C//DTD SVG 1.1//EN"
 "http://www.w3.org/Graphics/SVG/1.1/DTD/svg11.dtd">
<!-- Generated by graphviz version 2.43.0 (0)
 -->
<!-- Title: examples Pages: 1 -->
<svg width="501pt" height="98pt"
 viewBox="0.00 0.00 501.00 98.00" xmlns="http://www.w3.org/2000/svg" xmlns:xlink="http://www.w3.org/1999/xlink">
<g id="graph0" class="graph" transform="scale(1 1) rotate(0) translate(4 94)">
<title>examples</title>
<g id="clust1" class="cluster">
<title>clusterdir_d28a4824dc47e487b107a5db32ef43c4</title>
<g id="a_clust1"><a xlink:href="dir_d28a4824dc47e487b107a5db32ef43c4.html" target="_top">
<polygon fill="#edf0f7" stroke="#404040" stroke-width="2" points="8,-47 8,-82 485,-82 485,-47 8,-47"/>
</a>
</g>
</g>
<!-- dir_d28a4824dc47e487b107a5db32ef43c4 -->
<g id="node1" class="node">
<title>dir_d28a4824dc47e487b107a5db32ef43c4</title>
<text text-anchor="middle" x="444" y="-62" font-family="Helvetica,sans-Serif" font-size="10.00">examples</text>
</g>
<!-- dir_01d5546719d1d9aa3f28dd8395968769 -->
<g id="node2" class="node">
<title>dir_01d5546719d1d9aa3f28dd8395968769</title>
<g id="a_node2"><a xlink:href="dir_01d5546719d1d9aa3f28dd8395968769.html" target="_top" xlink:title="BasicUsage">
<polygon fill="#a2b4d6" stroke="#404040" points="393,-74 319,-74 319,-55 393,-55 393,-74"/>
<text text-anchor="middle" x="356" y="-62" font-family="Helvetica,sans-Serif" font-size="10.00">BasicUsage</text>
</a>
</g>
</g>
<!-- dir_409f97388efe006bc3438b95e9edef48 -->
<g id="node7" class="node">
<title>dir_409f97388efe006bc3438b95e9edef48</title>
<g id="a_node7"><a xlink:href="dir_409f97388efe006bc3438b95e9edef48.html" target="_top" xlink:title="components">
<polygon fill="#edf0f7" stroke="red" points="246.5,-19 169.5,-19 169.5,0 246.5,0 246.5,-19"/>
<text text-anchor="middle" x="208" y="-7" font-family="Helvetica,sans-Serif" font-size="10.00">components</text>
</a>
</g>
</g>
<!-- dir_01d5546719d1d9aa3f28dd8395968769&#45;&gt;dir_409f97388efe006bc3438b95e9edef48 -->
<g id="edge1" class="edge">
<title>dir_01d5546719d1d9aa3f28dd8395968769&#45;&gt;dir_409f97388efe006bc3438b95e9edef48</title>
<g id="a_edge1"><a xlink:href="dir_000000_000001.html" target="_top">
<path fill="none" stroke="#63b8ff" d="M332.13,-54.93C325.01,-52.38 317.19,-49.58 310,-47 287.13,-38.81 261.37,-29.59 241.46,-22.47"/>
<polygon fill="#63b8ff" stroke="#63b8ff" points="242.5,-19.12 231.91,-19.05 240.15,-25.71 242.5,-19.12"/>
</a>
</g>
<g id="a_edge1&#45;headlabel"><a xlink:href="dir_000000_000001.html" target="_top" xlink:title="5">
<text text-anchor="middle" x="246.84" y="-15.16" font-family="Helvetica,sans-Serif" font-size="10.00" fill="#63b8ff">5</text>
</a>
</g>
</g>
<!-- dir_61c733bd969c2471ac02d97f3b0ee95b -->
<g id="node3" class="node">
<title>dir_61c733bd969c2471ac02d97f3b0ee95b</title>
<g id="a_node3"><a xlink:href="dir_61c733bd969c2471ac02d97f3b0ee95b.html" target="_top" xlink:title="Connect">
<polygon fill="#a2b4d6" stroke="#404040" points="301,-74 245,-74 245,-55 301,-55 301,-74"/>
<text text-anchor="middle" x="273" y="-62" font-family="Helvetica,sans-Serif" font-size="10.00">Connect</text>
</a>
</g>
</g>
<!-- dir_61c733bd969c2471ac02d97f3b0ee95b&#45;&gt;dir_409f97388efe006bc3438b95e9edef48 -->
<g id="edge2" class="edge">
<title>dir_61c733bd969c2471ac02d97f3b0ee95b&#45;&gt;dir_409f97388efe006bc3438b95e9edef48</title>
<g id="a_edge2"><a xlink:href="dir_000002_000001.html" target="_top">
<path fill="none" stroke="#63b8ff" d="M262.56,-54.98C252.85,-47.07 238.18,-35.11 226.5,-25.58"/>
<polygon fill="#63b8ff" stroke="#63b8ff" points="228.6,-22.78 218.63,-19.17 224.17,-28.2 228.6,-22.78"/>
</a>
</g>
<g id="a_edge2&#45;headlabel"><a xlink:href="dir_000002_000001.html" target="_top" xlink:title="5">
<text text-anchor="middle" x="233.18" y="-20.35" font-family="Helvetica,sans-Serif" font-size="10.00" fill="#63b8ff">5</text>
</a>
</g>
</g>
<!-- dir_2365b4822c04e78cb5bc3fb96cb35526 -->
<g id="node4" class="node">
<title>dir_2365b4822c04e78cb5bc3fb96cb35526</title>
<g id="a_node4"><a xlink:href="dir_2365b4822c04e78cb5bc3fb96cb35526.html" target="_top" xlink:title="Sign">
<polygon fill="#a2b4d6" stroke="#404040" points="227,-74 189,-74 189,-55 227,-55 227,-74"/>
<text text-anchor="middle" x="208" y="-62" font-family="Helvetica,sans-Serif" font-size="10.00">Sign</text>
</a>
</g>
</g>
<!-- dir_2365b4822c04e78cb5bc3fb96cb35526&#45;&gt;dir_409f97388efe006bc3438b95e9edef48 -->
<g id="edge3" class="edge">
<title>dir_2365b4822c04e78cb5bc3fb96cb35526&#45;&gt;dir_409f97388efe006bc3438b95e9edef48</title>
<g id="a_edge3"><a xlink:href="dir_000024_000001.html" target="_top">
<path fill="none" stroke="#63b8ff" d="M208,-54.75C208,-47.8 208,-37.85 208,-29.13"/>
<polygon fill="#63b8ff" stroke="#63b8ff" points="211.5,-29.09 208,-19.09 204.5,-29.09 211.5,-29.09"/>
</a>
</g>
<g id="a_edge3&#45;headlabel"><a xlink:href="dir_000024_000001.html" target="_top" xlink:title="5">
<text text-anchor="middle" x="214.34" y="-30.18" font-family="Helvetica,sans-Serif" font-size="10.00" fill="#63b8ff">5</text>
</a>
</g>
</g>
<!-- dir_5b19b165ccbe70e79cec239ffc7400ef -->
<g id="node5" class="node">
<title>dir_5b19b165ccbe70e79cec239ffc7400ef</title>
<g id="a_node5"><a xlink:href="dir_5b19b165ccbe70e79cec239ffc7400ef.html" target="_top" xlink:title="UsdcSigning">
<polygon fill="#a2b4d6" stroke="#404040" points="170.5,-74 93.5,-74 93.5,-55 170.5,-55 170.5,-74"/>
<text text-anchor="middle" x="132" y="-62" font-family="Helvetica,sans-Serif" font-size="10.00">UsdcSigning</text>
</a>
</g>
</g>
<!-- dir_5b19b165ccbe70e79cec239ffc7400ef&#45;&gt;dir_409f97388efe006bc3438b95e9edef48 -->
<g id="edge4" class="edge">
<title>dir_5b19b165ccbe70e79cec239ffc7400ef&#45;&gt;dir_409f97388efe006bc3438b95e9edef48</title>
<g id="a_edge4"><a xlink:href="dir_000028_000001.html" target="_top">
<path fill="none" stroke="#63b8ff" d="M144.21,-54.98C155.78,-46.92 173.38,-34.65 187.16,-25.03"/>
<polygon fill="#63b8ff" stroke="#63b8ff" points="189.37,-27.76 195.57,-19.17 185.36,-22.02 189.37,-27.76"/>
</a>
</g>
<g id="a_edge4&#45;headlabel"><a xlink:href="dir_000028_000001.html" target="_top" xlink:title="5">
<text text-anchor="middle" x="188.04" y="-29.65" font-family="Helvetica,sans-Serif" font-size="10.00" fill="#63b8ff">5</text>
</a>
</g>
</g>
<!-- dir_cc81cf6f1c823b08adf4153a5960c30a -->
<g id="node6" class="node">
<title>dir_cc81cf6f1c823b08adf4153a5960c30a</title>
<g id="a_node6"><a xlink:href="dir_cc81cf6f1c823b08adf4153a5960c30a.html" target="_top" xlink:title="VerifyPin">
<polygon fill="#a2b4d6" stroke="#404040" points="75.5,-74 16.5,-74 16.5,-55 75.5,-55 75.5,-74"/>
<text text-anchor="middle" x="46" y="-62" font-family="Helvetica,sans-Serif" font-size="10.00">VerifyPin</text>
</a>
</g>
</g>
<!-- dir_cc81cf6f1c823b08adf4153a5960c30a&#45;&gt;dir_409f97388efe006bc3438b95e9edef48 -->
<g id="edge5" class="edge">
<title>dir_cc81cf6f1c823b08adf4153a5960c30a&#45;&gt;dir_409f97388efe006bc3438b95e9edef48</title>
<g id="a_edge5"><a xlink:href="dir_000029_000001.html" target="_top">
<path fill="none" stroke="#63b8ff" d="M65.27,-54.84C71.51,-52.18 78.49,-49.33 85,-47 111.51,-37.49 141.84,-28.47 165.74,-21.78"/>
<polygon fill="#63b8ff" stroke="#63b8ff" points="166.87,-25.1 175.57,-19.06 165,-18.35 166.87,-25.1"/>
</a>
</g>
<g id="a_edge5&#45;headlabel"><a xlink:href="dir_000029_000001.html" target="_top" xlink:title="5">
<text text-anchor="middle" x="164.16" y="-26.3" font-family="Helvetica,sans-Serif" font-size="10.00" fill="#63b8ff">5</text>
</a>
</g>
</g>
</g>
</svg>
