<?xml version="1.0" encoding="UTF-8" standalone="no"?>
<!DOCTYPE svg PUBLIC "-//W3C//DTD SVG 1.1//EN"
 "http://www.w3.org/Graphics/SVG/1.1/DTD/svg11.dtd">
<!-- Generated by graphviz version 2.43.0 (0)
 -->
<!-- Title: components/cryptnox_utils/esp32_random.cpp Pages: 1 -->
<svg width="347pt" height="93pt"
 viewBox="0.00 0.00 346.50 93.00" xmlns="http://www.w3.org/2000/svg" xmlns:xlink="http://www.w3.org/1999/xlink">
<g id="graph0" class="graph" transform="scale(1 1) rotate(0) translate(4 89)">
<title>components/cryptnox_utils/esp32_random.cpp</title>
<!-- Node1 -->
<g id="Node000001" class="node">
<title>Node1</title>
<g id="a_Node000001"><a xlink:title=" ">
<polygon fill="#999999" stroke="#666666" points="247,-85 109,-85 109,-55 247,-55 247,-85"/>
<text text-anchor="start" x="117" y="-73" font-family="Helvetica,sans-Serif" font-size="10.00">components/cryptnox</text>
<text text-anchor="middle" x="178" y="-62" font-family="Helvetica,sans-Serif" font-size="10.00">_utils/esp32_random.cpp</text>
</a>
</g>
</g>
<!-- Node2 -->
<g id="Node000002" class="node">
<title>Node2</title>
<g id="a_Node000002"><a xlink:title=" ">
<polygon fill="#e0e0e0" stroke="#999999" points="70,-19 0,-19 0,0 70,0 70,-19"/>
<text text-anchor="middle" x="35" y="-7" font-family="Helvetica,sans-Serif" font-size="10.00">CW_Utils.h</text>
</a>
</g>
</g>
<!-- Node1&#45;&gt;Node2 -->
<g id="edge1_Node000001_Node000002" class="edge">
<title>Node1&#45;&gt;Node2</title>
<g id="a_edge1_Node000001_Node000002"><a xlink:title=" ">
<path fill="none" stroke="#63b8ff" d="M143.75,-54.99C119.89,-45.23 88.35,-32.33 65.39,-22.93"/>
<polygon fill="#63b8ff" stroke="#63b8ff" points="66.7,-19.69 56.12,-19.14 64.05,-26.17 66.7,-19.69"/>
</a>
</g>
</g>
<!-- Node3 -->
<g id="Node000003" class="node">
<title>Node3</title>
<g id="a_Node000003"><a xlink:title=" ">
<polygon fill="#e0e0e0" stroke="#999999" points="174,-19 88,-19 88,0 174,0 174,-19"/>
<text text-anchor="middle" x="131" y="-7" font-family="Helvetica,sans-Serif" font-size="10.00">esp_random.h</text>
</a>
</g>
</g>
<!-- Node1&#45;&gt;Node3 -->
<g id="edge2_Node000001_Node000003" class="edge">
<title>Node1&#45;&gt;Node3</title>
<g id="a_edge2_Node000001_Node000003"><a xlink:title=" ">
<path fill="none" stroke="#63b8ff" d="M166.62,-54.84C159.94,-46.52 151.45,-35.96 144.44,-27.23"/>
<polygon fill="#63b8ff" stroke="#63b8ff" points="147.03,-24.87 138.04,-19.27 141.58,-29.25 147.03,-24.87"/>
</a>
</g>
</g>
<!-- Node4 -->
<g id="Node000004" class="node">
<title>Node4</title>
<g id="a_Node000004"><a xlink:title=" ">
<polygon fill="#e0e0e0" stroke="#999999" points="257.5,-19 192.5,-19 192.5,0 257.5,0 257.5,-19"/>
<text text-anchor="middle" x="225" y="-7" font-family="Helvetica,sans-Serif" font-size="10.00">esp_wifi.h</text>
</a>
</g>
</g>
<!-- Node1&#45;&gt;Node4 -->
<g id="edge3_Node000001_Node000004" class="edge">
<title>Node1&#45;&gt;Node4</title>
<g id="a_edge3_Node000001_Node000004"><a xlink:title=" ">
<path fill="none" stroke="#63b8ff" d="M189.38,-54.84C196.06,-46.52 204.55,-35.96 211.56,-27.23"/>
<polygon fill="#63b8ff" stroke="#63b8ff" points="214.42,-29.25 217.96,-19.27 208.97,-24.87 214.42,-29.25"/>
</a>
</g>
</g>
<!-- Node5 -->
<g id="Node000005" class="node">
<title>Node5</title>
<g id="a_Node000005"><a xlink:title=" ">
<polygon fill="#e0e0e0" stroke="#999999" points="338.5,-19 275.5,-19 275.5,0 338.5,0 338.5,-19"/>
<text text-anchor="middle" x="307" y="-7" font-family="Helvetica,sans-Serif" font-size="10.00">esp_log.h</text>
</a>
</g>
</g>
<!-- Node1&#45;&gt;Node5 -->
<g id="edge4_Node000001_Node000005" class="edge">
<title>Node1&#45;&gt;Node5</title>
<g id="a_edge4_Node000001_Node000005"><a xlink:title=" ">
<path fill="none" stroke="#63b8ff" d="M208.9,-54.99C230.13,-45.36 258.11,-32.67 278.75,-23.31"/>
<polygon fill="#63b8ff" stroke="#63b8ff" points="280.29,-26.46 287.95,-19.14 277.4,-20.08 280.29,-26.46"/>
</a>
</g>
</g>
</g>
</svg>
