<?xml version="1.0" encoding="UTF-8" standalone="no"?>
<!DOCTYPE svg PUBLIC "-//W3C//DTD SVG 1.1//EN"
 "http://www.w3.org/Graphics/SVG/1.1/DTD/svg11.dtd">
<!-- Generated by graphviz version 2.43.0 (0)
 -->
<!-- Title: components/esp32_logger/include/ESP32Logger.h Pages: 1 -->
<svg width="715pt" height="104pt"
 viewBox="0.00 0.00 714.50 104.00" xmlns="http://www.w3.org/2000/svg" xmlns:xlink="http://www.w3.org/1999/xlink">
<g id="graph0" class="graph" transform="scale(1 1) rotate(0) translate(4 100)">
<title>components/esp32_logger/include/ESP32Logger.h</title>
<!-- Node1 -->
<g id="Node000001" class="node">
<title>Node1</title>
<g id="a_Node000001"><a xlink:title="CW_Logger implementation that writes to ESP32 UART0 via printf.">
<polygon fill="#999999" stroke="#666666" points="447,-96 302,-96 302,-66 447,-66 447,-96"/>
<text text-anchor="start" x="310" y="-84" font-family="Helvetica,sans-Serif" font-size="10.00">components/esp32_logger</text>
<text text-anchor="middle" x="374.5" y="-73" font-family="Helvetica,sans-Serif" font-size="10.00">/include/ESP32Logger.h</text>
</a>
</g>
</g>
<!-- Node2 -->
<g id="Node000002" class="node">
<title>Node2</title>
<g id="a_Node000002"><a xlink:href="ESP32Logger_8cpp.html" target="_top" xlink:title="Implementation of ESP32Logger — ESP32 UART0 logging backend.">
<polygon fill="white" stroke="#666666" points="145,-30 0,-30 0,0 145,0 145,-30"/>
<text text-anchor="start" x="8" y="-18" font-family="Helvetica,sans-Serif" font-size="10.00">components/esp32_logger</text>
<text text-anchor="middle" x="72.5" y="-7" font-family="Helvetica,sans-Serif" font-size="10.00">/ESP32Logger.cpp</text>
</a>
</g>
</g>
<!-- Node1&#45;&gt;Node2 -->
<g id="edge1_Node000001_Node000002" class="edge">
<title>Node1&#45;&gt;Node2</title>
<g id="a_edge1_Node000001_Node000002"><a xlink:title=" ">
<path fill="none" stroke="#63b8ff" d="M298.27,-63.84C249.06,-53.42 185.69,-39.99 138.62,-30.01"/>
<polygon fill="#63b8ff" stroke="#63b8ff" points="297.72,-67.31 308.22,-65.95 299.17,-60.46 297.72,-67.31"/>
</a>
</g>
</g>
<!-- Node3 -->
<g id="Node000003" class="node">
<title>Node3</title>
<g id="a_Node000003"><a xlink:href="Connect_2main_2main_8cpp.html" target="_top" xlink:title=" ">
<polygon fill="white" stroke="#666666" points="298,-30 163,-30 163,0 298,0 298,-30"/>
<text text-anchor="start" x="171" y="-18" font-family="Helvetica,sans-Serif" font-size="10.00">examples/Connect/main</text>
<text text-anchor="middle" x="230.5" y="-7" font-family="Helvetica,sans-Serif" font-size="10.00">/main.cpp</text>
</a>
</g>
</g>
<!-- Node1&#45;&gt;Node3 -->
<g id="edge2_Node000001_Node000003" class="edge">
<title>Node1&#45;&gt;Node3</title>
<g id="a_edge2_Node000001_Node000003"><a xlink:title=" ">
<path fill="none" stroke="#63b8ff" d="M333.51,-61.78C310.81,-51.69 283.02,-39.34 262.03,-30.01"/>
<polygon fill="#63b8ff" stroke="#63b8ff" points="332.34,-65.09 342.9,-65.95 335.18,-58.7 332.34,-65.09"/>
</a>
</g>
</g>
<!-- Node4 -->
<g id="Node000004" class="node">
<title>Node4</title>
<g id="a_Node000004"><a xlink:href="Sign_2main_2main_8cpp.html" target="_top" xlink:title=" ">
<polygon fill="white" stroke="#666666" points="432.5,-30 316.5,-30 316.5,0 432.5,0 432.5,-30"/>
<text text-anchor="start" x="324.5" y="-18" font-family="Helvetica,sans-Serif" font-size="10.00">examples/Sign/main</text>
<text text-anchor="middle" x="374.5" y="-7" font-family="Helvetica,sans-Serif" font-size="10.00">/main.cpp</text>
</a>
</g>
</g>
<!-- Node1&#45;&gt;Node4 -->
<g id="edge3_Node000001_Node000004" class="edge">
<title>Node1&#45;&gt;Node4</title>
<g id="a_edge3_Node000001_Node000004"><a xlink:title=" ">
<path fill="none" stroke="#63b8ff" d="M374.5,-55.54C374.5,-46.96 374.5,-37.61 374.5,-30.16"/>
<polygon fill="#63b8ff" stroke="#63b8ff" points="371,-55.8 374.5,-65.8 378,-55.8 371,-55.8"/>
</a>
</g>
</g>
<!-- Node5 -->
<g id="Node000005" class="node">
<title>Node5</title>
<g id="a_Node000005"><a xlink:href="UsdcSigning_2main_2main_8cpp.html" target="_top" xlink:title=" ">
<polygon fill="white" stroke="#666666" points="578.5,-30 450.5,-30 450.5,0 578.5,0 578.5,-30"/>
<text text-anchor="start" x="458.5" y="-18" font-family="Helvetica,sans-Serif" font-size="10.00">examples/UsdcSigning</text>
<text text-anchor="middle" x="514.5" y="-7" font-family="Helvetica,sans-Serif" font-size="10.00">/main/main.cpp</text>
</a>
</g>
</g>
<!-- Node1&#45;&gt;Node5 -->
<g id="edge4_Node000001_Node000005" class="edge">
<title>Node1&#45;&gt;Node5</title>
<g id="a_edge4_Node000001_Node000005"><a xlink:title=" ">
<path fill="none" stroke="#63b8ff" d="M414.35,-61.78C436.42,-51.69 463.44,-39.34 483.85,-30.01"/>
<polygon fill="#63b8ff" stroke="#63b8ff" points="412.86,-58.61 405.22,-65.95 415.77,-64.98 412.86,-58.61"/>
</a>
</g>
</g>
<!-- Node6 -->
<g id="Node000006" class="node">
<title>Node6</title>
<g id="a_Node000006"><a xlink:href="VerifyPin_2main_2main_8cpp.html" target="_top" xlink:title=" ">
<polygon fill="white" stroke="#666666" points="706.5,-30 596.5,-30 596.5,0 706.5,0 706.5,-30"/>
<text text-anchor="start" x="604.5" y="-18" font-family="Helvetica,sans-Serif" font-size="10.00">examples/VerifyPin</text>
<text text-anchor="middle" x="651.5" y="-7" font-family="Helvetica,sans-Serif" font-size="10.00">/main/main.cpp</text>
</a>
</g>
</g>
<!-- Node1&#45;&gt;Node6 -->
<g id="edge5_Node000001_Node000006" class="edge">
<title>Node1&#45;&gt;Node6</title>
<g id="a_edge5_Node000001_Node000006"><a xlink:title=" ">
<path fill="none" stroke="#63b8ff" d="M445.1,-63.69C492.14,-52.82 553.06,-38.75 596.49,-28.71"/>
<polygon fill="#63b8ff" stroke="#63b8ff" points="444.24,-60.29 435.29,-65.95 445.82,-67.11 444.24,-60.29"/>
</a>
</g>
</g>
</g>
</svg>
