<?xml version="1.0" encoding="UTF-8" standalone="no"?>
<!DOCTYPE svg PUBLIC "-//W3C//DTD SVG 1.1//EN"
 "http://www.w3.org/Graphics/SVG/1.1/DTD/svg11.dtd">
<!-- Generated by graphviz version 2.43.0 (0)
 -->
<!-- Title: components/crypto_provider/include/esp32_crypto_provider.h Pages: 1 -->
<svg width="1241pt" height="115pt"
 viewBox="0.00 0.00 1241.00 115.00" xmlns="http://www.w3.org/2000/svg" xmlns:xlink="http://www.w3.org/1999/xlink">
<g id="graph0" class="graph" transform="scale(1 1) rotate(0) translate(4 111)">
<title>components/crypto_provider/include/esp32_crypto_provider.h</title>
<!-- Node1 -->
<g id="Node000001" class="node">
<title>Node1</title>
<g id="a_Node000001"><a xlink:title="CW_CryptoProvider implementation for ESP32 using mbedTLS and the hardware TRNG.">
<polygon fill="#999999" stroke="#666666" points="771.5,-107 594.5,-107 594.5,-77 771.5,-77 771.5,-107"/>
<text text-anchor="start" x="602.5" y="-95" font-family="Helvetica,sans-Serif" font-size="10.00">components/crypto_provider</text>
<text text-anchor="middle" x="683" y="-84" font-family="Helvetica,sans-Serif" font-size="10.00">/include/esp32_crypto_provider.h</text>
</a>
</g>
</g>
<!-- Node2 -->
<g id="Node000002" class="node">
<title>Node2</title>
<g id="a_Node000002"><a xlink:href="esp32__crypto__provider_8cpp.html" target="_top" xlink:title="Implementation of ESP32CryptoProvider — mbedTLS + hardware TRNG backend.">
<polygon fill="white" stroke="#666666" points="156,-35.5 0,-35.5 0,-5.5 156,-5.5 156,-35.5"/>
<text text-anchor="start" x="8" y="-23.5" font-family="Helvetica,sans-Serif" font-size="10.00">components/crypto_provider</text>
<text text-anchor="middle" x="78" y="-12.5" font-family="Helvetica,sans-Serif" font-size="10.00">/esp32_crypto_provider.cpp</text>
</a>
</g>
</g>
<!-- Node1&#45;&gt;Node2 -->
<g id="edge1_Node000001_Node000002" class="edge">
<title>Node1&#45;&gt;Node2</title>
<g id="a_edge1_Node000001_Node000002"><a xlink:title=" ">
<path fill="none" stroke="#63b8ff" d="M583.89,-85.11C479.29,-78.03 309.84,-64.13 165,-41 155.52,-39.49 145.53,-37.56 135.84,-35.52"/>
<polygon fill="#63b8ff" stroke="#63b8ff" points="583.91,-88.62 594.13,-85.79 584.38,-81.63 583.91,-88.62"/>
</a>
</g>
</g>
<!-- Node3 -->
<g id="Node000003" class="node">
<title>Node3</title>
<g id="a_Node000003"><a xlink:href="test__esp32__crypto__provider_8cpp.html" target="_top" xlink:title=" ">
<polygon fill="white" stroke="#666666" points="330,-41 174,-41 174,0 330,0 330,-41"/>
<text text-anchor="start" x="182" y="-29" font-family="Helvetica,sans-Serif" font-size="10.00">components/crypto_provider</text>
<text text-anchor="start" x="182" y="-18" font-family="Helvetica,sans-Serif" font-size="10.00">/test/test_esp32_crypto</text>
<text text-anchor="middle" x="252" y="-7" font-family="Helvetica,sans-Serif" font-size="10.00">_provider.cpp</text>
</a>
</g>
</g>
<!-- Node1&#45;&gt;Node3 -->
<g id="edge2_Node000001_Node000003" class="edge">
<title>Node1&#45;&gt;Node3</title>
<g id="a_edge2_Node000001_Node000003"><a xlink:title=" ">
<path fill="none" stroke="#63b8ff" d="M584.33,-78.69C515.39,-69.59 421.3,-56.18 339,-41 336.11,-40.47 333.17,-39.9 330.2,-39.32"/>
<polygon fill="#63b8ff" stroke="#63b8ff" points="583.95,-82.17 594.32,-80 584.86,-75.23 583.95,-82.17"/>
</a>
</g>
</g>
<!-- Node4 -->
<g id="Node000004" class="node">
<title>Node4</title>
<g id="a_Node000004"><a xlink:href="test__cw__secure__channel_8cpp.html" target="_top" xlink:title=" ">
<polygon fill="white" stroke="#666666" points="528,-35.5 348,-35.5 348,-5.5 528,-5.5 528,-35.5"/>
<text text-anchor="start" x="356" y="-23.5" font-family="Helvetica,sans-Serif" font-size="10.00">components/secure_channel</text>
<text text-anchor="middle" x="438" y="-12.5" font-family="Helvetica,sans-Serif" font-size="10.00">/test/test_cw_secure_channel.cpp</text>
</a>
</g>
</g>
<!-- Node1&#45;&gt;Node4 -->
<g id="edge3_Node000001_Node000004" class="edge">
<title>Node1&#45;&gt;Node4</title>
<g id="a_edge3_Node000001_Node000004"><a xlink:title=" ">
<path fill="none" stroke="#63b8ff" d="M623.67,-74.17C581.97,-62.34 526.84,-46.7 487.51,-35.54"/>
<polygon fill="#63b8ff" stroke="#63b8ff" points="622.84,-77.57 633.42,-76.94 624.76,-70.84 622.84,-77.57"/>
</a>
</g>
</g>
<!-- Node5 -->
<g id="Node000005" class="node">
<title>Node5</title>
<g id="a_Node000005"><a xlink:href="BasicUsage_2main_2main_8cpp.html" target="_top" xlink:title=" ">
<polygon fill="white" stroke="#666666" points="671.5,-35.5 546.5,-35.5 546.5,-5.5 671.5,-5.5 671.5,-35.5"/>
<text text-anchor="start" x="554.5" y="-23.5" font-family="Helvetica,sans-Serif" font-size="10.00">examples/BasicUsage</text>
<text text-anchor="middle" x="609" y="-12.5" font-family="Helvetica,sans-Serif" font-size="10.00">/main/main.cpp</text>
</a>
</g>
</g>
<!-- Node1&#45;&gt;Node5 -->
<g id="edge4_Node000001_Node000005" class="edge">
<title>Node1&#45;&gt;Node5</title>
<g id="a_edge4_Node000001_Node000005"><a xlink:title=" ">
<path fill="none" stroke="#63b8ff" d="M660.63,-69.99C648.75,-58.84 634.48,-45.43 623.95,-35.54"/>
<polygon fill="#63b8ff" stroke="#63b8ff" points="658.34,-72.64 668.02,-76.94 663.13,-67.54 658.34,-72.64"/>
</a>
</g>
</g>
<!-- Node6 -->
<g id="Node000006" class="node">
<title>Node6</title>
<g id="a_Node000006"><a xlink:href="Connect_2main_2main_8cpp.html" target="_top" xlink:title=" ">
<polygon fill="white" stroke="#666666" points="824.5,-35.5 689.5,-35.5 689.5,-5.5 824.5,-5.5 824.5,-35.5"/>
<text text-anchor="start" x="697.5" y="-23.5" font-family="Helvetica,sans-Serif" font-size="10.00">examples/Connect/main</text>
<text text-anchor="middle" x="757" y="-12.5" font-family="Helvetica,sans-Serif" font-size="10.00">/main.cpp</text>
</a>
</g>
</g>
<!-- Node1&#45;&gt;Node6 -->
<g id="edge5_Node000001_Node000006" class="edge">
<title>Node1&#45;&gt;Node6</title>
<g id="a_edge5_Node000001_Node000006"><a xlink:title=" ">
<path fill="none" stroke="#63b8ff" d="M705.37,-69.99C717.25,-58.84 731.52,-45.43 742.05,-35.54"/>
<polygon fill="#63b8ff" stroke="#63b8ff" points="702.87,-67.54 697.98,-76.94 707.66,-72.64 702.87,-67.54"/>
</a>
</g>
</g>
<!-- Node7 -->
<g id="Node000007" class="node">
<title>Node7</title>
<g id="a_Node000007"><a xlink:href="Sign_2main_2main_8cpp.html" target="_top" xlink:title=" ">
<polygon fill="white" stroke="#666666" points="959,-35.5 843,-35.5 843,-5.5 959,-5.5 959,-35.5"/>
<text text-anchor="start" x="851" y="-23.5" font-family="Helvetica,sans-Serif" font-size="10.00">examples/Sign/main</text>
<text text-anchor="middle" x="901" y="-12.5" font-family="Helvetica,sans-Serif" font-size="10.00">/main.cpp</text>
</a>
</g>
</g>
<!-- Node1&#45;&gt;Node7 -->
<g id="edge6_Node000001_Node000007" class="edge">
<title>Node1&#45;&gt;Node7</title>
<g id="a_edge6_Node000001_Node000007"><a xlink:title=" ">
<path fill="none" stroke="#63b8ff" d="M736.74,-73.87C773.72,-62.08 822.25,-46.61 856.95,-35.54"/>
<polygon fill="#63b8ff" stroke="#63b8ff" points="735.58,-70.56 727.12,-76.94 737.71,-77.23 735.58,-70.56"/>
</a>
</g>
</g>
<!-- Node8 -->
<g id="Node000008" class="node">
<title>Node8</title>
<g id="a_Node000008"><a xlink:href="UsdcSigning_2main_2main_8cpp.html" target="_top" xlink:title=" ">
<polygon fill="white" stroke="#666666" points="1105,-35.5 977,-35.5 977,-5.5 1105,-5.5 1105,-35.5"/>
<text text-anchor="start" x="985" y="-23.5" font-family="Helvetica,sans-Serif" font-size="10.00">examples/UsdcSigning</text>
<text text-anchor="middle" x="1041" y="-12.5" font-family="Helvetica,sans-Serif" font-size="10.00">/main/main.cpp</text>
</a>
</g>
</g>
<!-- Node1&#45;&gt;Node8 -->
<g id="edge7_Node000001_Node000008" class="edge">
<title>Node1&#45;&gt;Node8</title>
<g id="a_edge7_Node000001_Node000008"><a xlink:title=" ">
<path fill="none" stroke="#63b8ff" d="M781.76,-75.85C836.81,-66.87 906.47,-54.59 968,-41 975.43,-39.36 983.24,-37.46 990.88,-35.51"/>
<polygon fill="#63b8ff" stroke="#63b8ff" points="780.96,-72.44 771.65,-77.49 782.09,-79.35 780.96,-72.44"/>
</a>
</g>
</g>
<!-- Node9 -->
<g id="Node000009" class="node">
<title>Node9</title>
<g id="a_Node000009"><a xlink:href="VerifyPin_2main_2main_8cpp.html" target="_top" xlink:title=" ">
<polygon fill="white" stroke="#666666" points="1233,-35.5 1123,-35.5 1123,-5.5 1233,-5.5 1233,-35.5"/>
<text text-anchor="start" x="1131" y="-23.5" font-family="Helvetica,sans-Serif" font-size="10.00">examples/VerifyPin</text>
<text text-anchor="middle" x="1178" y="-12.5" font-family="Helvetica,sans-Serif" font-size="10.00">/main/main.cpp</text>
</a>
</g>
</g>
<!-- Node1&#45;&gt;Node9 -->
<g id="edge8_Node000001_Node000009" class="edge">
<title>Node1&#45;&gt;Node9</title>
<g id="a_edge8_Node000001_Node000009"><a xlink:title=" ">
<path fill="none" stroke="#63b8ff" d="M781.89,-84.62C869.77,-77.74 1001.39,-64.49 1114,-41 1121.05,-39.53 1128.44,-37.63 1135.59,-35.59"/>
<polygon fill="#63b8ff" stroke="#63b8ff" points="781.36,-81.15 771.66,-85.41 781.9,-88.13 781.36,-81.15"/>
</a>
</g>
</g>
</g>
</svg>
