<?xml version="1.0" encoding="UTF-8" standalone="no"?>
<!DOCTYPE svg PUBLIC "-//W3C//DTD SVG 1.1//EN"
 "http://www.w3.org/Graphics/SVG/1.1/DTD/svg11.dtd">
<!-- Generated by graphviz version 2.43.0 (0)
 -->
<!-- Title: components/esp32_platform/ESP32Platform.cpp Pages: 1 -->
<svg width="344pt" height="148pt"
 viewBox="0.00 0.00 344.00 148.00" xmlns="http://www.w3.org/2000/svg" xmlns:xlink="http://www.w3.org/1999/xlink">
<g id="graph0" class="graph" transform="scale(1 1) rotate(0) translate(4 144)">
<title>components/esp32_platform/ESP32Platform.cpp</title>
<!-- Node1 -->
<g id="Node000001" class="node">
<title>Node1</title>
<g id="a_Node000001"><a xlink:title="Implementation of ESP32Platform — FreeRTOS sleep backend.">
<polygon fill="#999999" stroke="#666666" points="251,-140 95,-140 95,-110 251,-110 251,-140"/>
<text text-anchor="start" x="103" y="-128" font-family="Helvetica,sans-Serif" font-size="10.00">components/esp32_platform</text>
<text text-anchor="middle" x="173" y="-117" font-family="Helvetica,sans-Serif" font-size="10.00">/ESP32Platform.cpp</text>
</a>
</g>
</g>
<!-- Node2 -->
<g id="Node000002" class="node">
<title>Node2</title>
<g id="a_Node000002"><a xlink:href="ESP32Platform_8h.html" target="_top" xlink:title="CW_Platform implementation for ESP32 using FreeRTOS.">
<polygon fill="white" stroke="#666666" points="98,-74 0,-74 0,-55 98,-55 98,-74"/>
<text text-anchor="middle" x="49" y="-62" font-family="Helvetica,sans-Serif" font-size="10.00">ESP32Platform.h</text>
</a>
</g>
</g>
<!-- Node1&#45;&gt;Node2 -->
<g id="edge1_Node000001_Node000002" class="edge">
<title>Node1&#45;&gt;Node2</title>
<g id="a_edge1_Node000001_Node000002"><a xlink:title=" ">
<path fill="none" stroke="#63b8ff" d="M143.3,-109.99C122.98,-100.4 96.24,-87.79 76.42,-78.44"/>
<polygon fill="#63b8ff" stroke="#63b8ff" points="77.85,-75.24 67.31,-74.14 74.86,-81.57 77.85,-75.24"/>
</a>
</g>
</g>
<!-- Node4 -->
<g id="Node000004" class="node">
<title>Node4</title>
<g id="a_Node000004"><a xlink:title=" ">
<polygon fill="#e0e0e0" stroke="#999999" points="229.5,-74 116.5,-74 116.5,-55 229.5,-55 229.5,-74"/>
<text text-anchor="middle" x="173" y="-62" font-family="Helvetica,sans-Serif" font-size="10.00">freertos/FreeRTOS.h</text>
</a>
</g>
</g>
<!-- Node1&#45;&gt;Node4 -->
<g id="edge3_Node000001_Node000004" class="edge">
<title>Node1&#45;&gt;Node4</title>
<g id="a_edge3_Node000001_Node000004"><a xlink:title=" ">
<path fill="none" stroke="#63b8ff" d="M173,-109.84C173,-102.21 173,-92.7 173,-84.45"/>
<polygon fill="#63b8ff" stroke="#63b8ff" points="176.5,-84.27 173,-74.27 169.5,-84.27 176.5,-84.27"/>
</a>
</g>
</g>
<!-- Node5 -->
<g id="Node000005" class="node">
<title>Node5</title>
<g id="a_Node000005"><a xlink:title=" ">
<polygon fill="#e0e0e0" stroke="#999999" points="336,-74 248,-74 248,-55 336,-55 336,-74"/>
<text text-anchor="middle" x="292" y="-62" font-family="Helvetica,sans-Serif" font-size="10.00">freertos/task.h</text>
</a>
</g>
</g>
<!-- Node1&#45;&gt;Node5 -->
<g id="edge4_Node000001_Node000005" class="edge">
<title>Node1&#45;&gt;Node5</title>
<g id="a_edge4_Node000001_Node000005"><a xlink:title=" ">
<path fill="none" stroke="#63b8ff" d="M201.5,-109.99C220.91,-100.45 246.43,-87.9 265.42,-78.57"/>
<polygon fill="#63b8ff" stroke="#63b8ff" points="267,-81.69 274.43,-74.14 263.91,-75.41 267,-81.69"/>
</a>
</g>
</g>
<!-- Node3 -->
<g id="Node000003" class="node">
<title>Node3</title>
<g id="a_Node000003"><a xlink:title=" ">
<polygon fill="#e0e0e0" stroke="#999999" points="93.5,-19 4.5,-19 4.5,0 93.5,0 93.5,-19"/>
<text text-anchor="middle" x="49" y="-7" font-family="Helvetica,sans-Serif" font-size="10.00">CW_Platform.h</text>
</a>
</g>
</g>
<!-- Node2&#45;&gt;Node3 -->
<g id="edge2_Node000002_Node000003" class="edge">
<title>Node2&#45;&gt;Node3</title>
<g id="a_edge2_Node000002_Node000003"><a xlink:title=" ">
<path fill="none" stroke="#63b8ff" d="M49,-54.75C49,-47.8 49,-37.85 49,-29.13"/>
<polygon fill="#63b8ff" stroke="#63b8ff" points="52.5,-29.09 49,-19.09 45.5,-29.09 52.5,-29.09"/>
</a>
</g>
</g>
</g>
</svg>
