<?xml version="1.0" encoding="UTF-8" standalone="no"?>
<!DOCTYPE svg PUBLIC "-//W3C//DTD SVG 1.1//EN"
 "http://www.w3.org/Graphics/SVG/1.1/DTD/svg11.dtd">
<!-- Generated by graphviz version 2.43.0 (0)
 -->
<!-- Title: components/esp32_logger/include/ESP32Logger.h Pages: 1 -->
<svg width="858pt" height="104pt"
 viewBox="0.00 0.00 857.50 104.00" xmlns="http://www.w3.org/2000/svg" xmlns:xlink="http://www.w3.org/1999/xlink">
<g id="graph0" class="graph" transform="scale(1 1) rotate(0) translate(4 100)">
<title>components/esp32_logger/include/ESP32Logger.h</title>
<!-- Node1 -->
<g id="Node000001" class="node">
<title>Node1</title>
<g id="a_Node000001"><a xlink:title="CW_Logger implementation that writes to ESP32 UART0 via printf.">
<polygon fill="#999999" stroke="#666666" points="518,-96 373,-96 373,-66 518,-66 518,-96"/>
<text text-anchor="start" x="381" y="-84" font-family="Helvetica,sans-Serif" font-size="10.00">components/esp32_logger</text>
<text text-anchor="middle" x="445.5" y="-73" font-family="Helvetica,sans-Serif" font-size="10.00">/include/ESP32Logger.h</text>
</a>
</g>
</g>
<!-- Node2 -->
<g id="Node000002" class="node">
<title>Node2</title>
<g id="a_Node000002"><a xlink:href="ESP32Logger_8cpp.html" target="_top" xlink:title="Implementation of ESP32Logger — ESP32 UART0 logging backend.">
<polygon fill="white" stroke="#666666" points="145,-30 0,-30 0,0 145,0 145,-30"/>
<text text-anchor="start" x="8" y="-18" font-family="Helvetica,sans-Serif" font-size="10.00">components/esp32_logger</text>
<text text-anchor="middle" x="72.5" y="-7" font-family="Helvetica,sans-Serif" font-size="10.00">/ESP32Logger.cpp</text>
</a>
</g>
</g>
<!-- Node1&#45;&gt;Node2 -->
<g id="edge1_Node000001_Node000002" class="edge">
<title>Node1&#45;&gt;Node2</title>
<g id="a_edge1_Node000001_Node000002"><a xlink:title=" ">
<path fill="none" stroke="#63b8ff" d="M362.97,-65.9C304.49,-55.91 224.18,-42.16 153.5,-30 150.83,-29.54 148.11,-29.07 145.36,-28.6"/>
<polygon fill="#63b8ff" stroke="#63b8ff" points="362.45,-69.36 372.89,-67.6 363.63,-62.47 362.45,-69.36"/>
</a>
</g>
</g>
<!-- Node3 -->
<g id="Node000003" class="node">
<title>Node3</title>
<g id="a_Node000003"><a xlink:href="BasicUsage_2main_2main_8cpp.html" target="_top" xlink:title=" ">
<polygon fill="white" stroke="#666666" points="288,-30 163,-30 163,0 288,0 288,-30"/>
<text text-anchor="start" x="171" y="-18" font-family="Helvetica,sans-Serif" font-size="10.00">examples/BasicUsage</text>
<text text-anchor="middle" x="225.5" y="-7" font-family="Helvetica,sans-Serif" font-size="10.00">/main/main.cpp</text>
</a>
</g>
</g>
<!-- Node1&#45;&gt;Node3 -->
<g id="edge2_Node000001_Node000003" class="edge">
<title>Node1&#45;&gt;Node3</title>
<g id="a_edge2_Node000001_Node000003"><a xlink:title=" ">
<path fill="none" stroke="#63b8ff" d="M387.48,-63.12C352.01,-52.8 307.17,-39.76 273.67,-30.01"/>
<polygon fill="#63b8ff" stroke="#63b8ff" points="386.64,-66.52 397.22,-65.95 388.6,-59.8 386.64,-66.52"/>
</a>
</g>
</g>
<!-- Node4 -->
<g id="Node000004" class="node">
<title>Node4</title>
<g id="a_Node000004"><a xlink:href="Connect_2main_2main_8cpp.html" target="_top" xlink:title=" ">
<polygon fill="white" stroke="#666666" points="441,-30 306,-30 306,0 441,0 441,-30"/>
<text text-anchor="start" x="314" y="-18" font-family="Helvetica,sans-Serif" font-size="10.00">examples/Connect/main</text>
<text text-anchor="middle" x="373.5" y="-7" font-family="Helvetica,sans-Serif" font-size="10.00">/main.cpp</text>
</a>
</g>
</g>
<!-- Node1&#45;&gt;Node4 -->
<g id="edge3_Node000001_Node000004" class="edge">
<title>Node1&#45;&gt;Node4</title>
<g id="a_edge3_Node000001_Node000004"><a xlink:title=" ">
<path fill="none" stroke="#63b8ff" d="M421.79,-58.92C411.17,-49.49 398.93,-38.61 389.43,-30.16"/>
<polygon fill="#63b8ff" stroke="#63b8ff" points="419.72,-61.77 429.52,-65.8 424.37,-56.54 419.72,-61.77"/>
</a>
</g>
</g>
<!-- Node5 -->
<g id="Node000005" class="node">
<title>Node5</title>
<g id="a_Node000005"><a xlink:href="Sign_2main_2main_8cpp.html" target="_top" xlink:title=" ">
<polygon fill="white" stroke="#666666" points="575.5,-30 459.5,-30 459.5,0 575.5,0 575.5,-30"/>
<text text-anchor="start" x="467.5" y="-18" font-family="Helvetica,sans-Serif" font-size="10.00">examples/Sign/main</text>
<text text-anchor="middle" x="517.5" y="-7" font-family="Helvetica,sans-Serif" font-size="10.00">/main.cpp</text>
</a>
</g>
</g>
<!-- Node1&#45;&gt;Node5 -->
<g id="edge4_Node000001_Node000005" class="edge">
<title>Node1&#45;&gt;Node5</title>
<g id="a_edge4_Node000001_Node000005"><a xlink:title=" ">
<path fill="none" stroke="#63b8ff" d="M469.21,-58.92C479.83,-49.49 492.07,-38.61 501.57,-30.16"/>
<polygon fill="#63b8ff" stroke="#63b8ff" points="466.63,-56.54 461.48,-65.8 471.28,-61.77 466.63,-56.54"/>
</a>
</g>
</g>
<!-- Node6 -->
<g id="Node000006" class="node">
<title>Node6</title>
<g id="a_Node000006"><a xlink:href="UsdcSigning_2main_2main_8cpp.html" target="_top" xlink:title=" ">
<polygon fill="white" stroke="#666666" points="721.5,-30 593.5,-30 593.5,0 721.5,0 721.5,-30"/>
<text text-anchor="start" x="601.5" y="-18" font-family="Helvetica,sans-Serif" font-size="10.00">examples/UsdcSigning</text>
<text text-anchor="middle" x="657.5" y="-7" font-family="Helvetica,sans-Serif" font-size="10.00">/main/main.cpp</text>
</a>
</g>
</g>
<!-- Node1&#45;&gt;Node6 -->
<g id="edge5_Node000001_Node000006" class="edge">
<title>Node1&#45;&gt;Node6</title>
<g id="a_edge5_Node000001_Node000006"><a xlink:title=" ">
<path fill="none" stroke="#63b8ff" d="M501.85,-62.99C535.96,-52.69 578.94,-39.72 611.08,-30.01"/>
<polygon fill="#63b8ff" stroke="#63b8ff" points="500.59,-59.71 492.02,-65.95 502.61,-66.42 500.59,-59.71"/>
</a>
</g>
</g>
<!-- Node7 -->
<g id="Node000007" class="node">
<title>Node7</title>
<g id="a_Node000007"><a xlink:href="VerifyPin_2main_2main_8cpp.html" target="_top" xlink:title=" ">
<polygon fill="white" stroke="#666666" points="849.5,-30 739.5,-30 739.5,0 849.5,0 849.5,-30"/>
<text text-anchor="start" x="747.5" y="-18" font-family="Helvetica,sans-Serif" font-size="10.00">examples/VerifyPin</text>
<text text-anchor="middle" x="794.5" y="-7" font-family="Helvetica,sans-Serif" font-size="10.00">/main/main.cpp</text>
</a>
</g>
</g>
<!-- Node1&#45;&gt;Node7 -->
<g id="edge6_Node000001_Node000007" class="edge">
<title>Node1&#45;&gt;Node7</title>
<g id="a_edge6_Node000001_Node000007"><a xlink:title=" ">
<path fill="none" stroke="#63b8ff" d="M528.32,-66.41C585.28,-56.83 662.62,-43.37 730.5,-30 733.4,-29.43 736.37,-28.83 739.37,-28.21"/>
<polygon fill="#63b8ff" stroke="#63b8ff" points="527.56,-62.99 518.28,-68.09 528.72,-69.89 527.56,-62.99"/>
</a>
</g>
</g>
</g>
</svg>
