<?xml version="1.0" encoding="UTF-8" standalone="no"?>
<!DOCTYPE svg PUBLIC "-//W3C//DTD SVG 1.1//EN"
 "http://www.w3.org/Graphics/SVG/1.1/DTD/svg11.dtd">
<!-- Generated by graphviz version 2.43.0 (0)
 -->
<!-- Title: components/crypto_provider/include/esp32_crypto_provider.h Pages: 1 -->
<svg width="1098pt" height="115pt"
 viewBox="0.00 0.00 1098.00 115.00" xmlns="http://www.w3.org/2000/svg" xmlns:xlink="http://www.w3.org/1999/xlink">
<g id="graph0" class="graph" transform="scale(1 1) rotate(0) translate(4 111)">
<title>components/crypto_provider/include/esp32_crypto_provider.h</title>
<!-- Node1 -->
<g id="Node000001" class="node">
<title>Node1</title>
<g id="a_Node000001"><a xlink:title=" ">
<polygon fill="#999999" stroke="#666666" points="702.5,-107 525.5,-107 525.5,-77 702.5,-77 702.5,-107"/>
<text text-anchor="start" x="533.5" y="-95" font-family="Helvetica,sans-Serif" font-size="10.00">components/crypto_provider</text>
<text text-anchor="middle" x="614" y="-84" font-family="Helvetica,sans-Serif" font-size="10.00">/include/esp32_crypto_provider.h</text>
</a>
</g>
</g>
<!-- Node2 -->
<g id="Node000002" class="node">
<title>Node2</title>
<g id="a_Node000002"><a xlink:href="esp32__crypto__provider_8cpp.html" target="_top" xlink:title=" ">
<polygon fill="white" stroke="#666666" points="156,-35.5 0,-35.5 0,-5.5 156,-5.5 156,-35.5"/>
<text text-anchor="start" x="8" y="-23.5" font-family="Helvetica,sans-Serif" font-size="10.00">components/crypto_provider</text>
<text text-anchor="middle" x="78" y="-12.5" font-family="Helvetica,sans-Serif" font-size="10.00">/esp32_crypto_provider.cpp</text>
</a>
</g>
</g>
<!-- Node1&#45;&gt;Node2 -->
<g id="edge1_Node000001_Node000002" class="edge">
<title>Node1&#45;&gt;Node2</title>
<g id="a_edge1_Node000001_Node000002"><a xlink:title=" ">
<path fill="none" stroke="#63b8ff" d="M515.37,-83.15C424.11,-75.14 284.86,-61.04 165,-41 155.84,-39.47 146.19,-37.58 136.79,-35.59"/>
<polygon fill="#63b8ff" stroke="#63b8ff" points="515.16,-86.64 525.43,-84.02 515.77,-79.67 515.16,-86.64"/>
</a>
</g>
</g>
<!-- Node3 -->
<g id="Node000003" class="node">
<title>Node3</title>
<g id="a_Node000003"><a xlink:href="test__esp32__crypto__provider_8cpp.html" target="_top" xlink:title=" ">
<polygon fill="white" stroke="#666666" points="330,-41 174,-41 174,0 330,0 330,-41"/>
<text text-anchor="start" x="182" y="-29" font-family="Helvetica,sans-Serif" font-size="10.00">components/crypto_provider</text>
<text text-anchor="start" x="182" y="-18" font-family="Helvetica,sans-Serif" font-size="10.00">/test/test_esp32_crypto</text>
<text text-anchor="middle" x="252" y="-7" font-family="Helvetica,sans-Serif" font-size="10.00">_provider.cpp</text>
</a>
</g>
</g>
<!-- Node1&#45;&gt;Node3 -->
<g id="edge2_Node000001_Node000003" class="edge">
<title>Node1&#45;&gt;Node3</title>
<g id="a_edge2_Node000001_Node000003"><a xlink:title=" ">
<path fill="none" stroke="#63b8ff" d="M521.86,-75.21C468.37,-65.8 399.76,-53.33 339,-41 336.12,-40.42 333.18,-39.81 330.22,-39.19"/>
<polygon fill="#63b8ff" stroke="#63b8ff" points="521.55,-78.71 532.01,-76.99 522.76,-71.82 521.55,-78.71"/>
</a>
</g>
</g>
<!-- Node4 -->
<g id="Node000004" class="node">
<title>Node4</title>
<g id="a_Node000004"><a xlink:href="test__cw__secure__channel_8cpp.html" target="_top" xlink:title=" ">
<polygon fill="white" stroke="#666666" points="528,-35.5 348,-35.5 348,-5.5 528,-5.5 528,-35.5"/>
<text text-anchor="start" x="356" y="-23.5" font-family="Helvetica,sans-Serif" font-size="10.00">components/secure_channel</text>
<text text-anchor="middle" x="438" y="-12.5" font-family="Helvetica,sans-Serif" font-size="10.00">/test/test_cw_secure_channel.cpp</text>
</a>
</g>
</g>
<!-- Node1&#45;&gt;Node4 -->
<g id="edge3_Node000001_Node000004" class="edge">
<title>Node1&#45;&gt;Node4</title>
<g id="a_edge3_Node000001_Node000004"><a xlink:title=" ">
<path fill="none" stroke="#63b8ff" d="M568.7,-73.11C539.1,-61.42 500.98,-46.37 473.56,-35.54"/>
<polygon fill="#63b8ff" stroke="#63b8ff" points="567.8,-76.52 578.38,-76.94 570.37,-70.01 567.8,-76.52"/>
</a>
</g>
</g>
<!-- Node5 -->
<g id="Node000005" class="node">
<title>Node5</title>
<g id="a_Node000005"><a xlink:href="Connect_2main_2main_8cpp.html" target="_top" xlink:title=" ">
<polygon fill="white" stroke="#666666" points="681.5,-35.5 546.5,-35.5 546.5,-5.5 681.5,-5.5 681.5,-35.5"/>
<text text-anchor="start" x="554.5" y="-23.5" font-family="Helvetica,sans-Serif" font-size="10.00">examples/Connect/main</text>
<text text-anchor="middle" x="614" y="-12.5" font-family="Helvetica,sans-Serif" font-size="10.00">/main.cpp</text>
</a>
</g>
</g>
<!-- Node1&#45;&gt;Node5 -->
<g id="edge4_Node000001_Node000005" class="edge">
<title>Node1&#45;&gt;Node5</title>
<g id="a_edge4_Node000001_Node000005"><a xlink:title=" ">
<path fill="none" stroke="#63b8ff" d="M614,-66.75C614,-56.31 614,-44.49 614,-35.54"/>
<polygon fill="#63b8ff" stroke="#63b8ff" points="610.5,-66.94 614,-76.94 617.5,-66.94 610.5,-66.94"/>
</a>
</g>
</g>
<!-- Node6 -->
<g id="Node000006" class="node">
<title>Node6</title>
<g id="a_Node000006"><a xlink:href="Sign_2main_2main_8cpp.html" target="_top" xlink:title=" ">
<polygon fill="white" stroke="#666666" points="816,-35.5 700,-35.5 700,-5.5 816,-5.5 816,-35.5"/>
<text text-anchor="start" x="708" y="-23.5" font-family="Helvetica,sans-Serif" font-size="10.00">examples/Sign/main</text>
<text text-anchor="middle" x="758" y="-12.5" font-family="Helvetica,sans-Serif" font-size="10.00">/main.cpp</text>
</a>
</g>
</g>
<!-- Node1&#45;&gt;Node6 -->
<g id="edge5_Node000001_Node000006" class="edge">
<title>Node1&#45;&gt;Node6</title>
<g id="a_edge5_Node000001_Node000006"><a xlink:title=" ">
<path fill="none" stroke="#63b8ff" d="M652.33,-72.5C676.37,-60.9 706.86,-46.18 728.9,-35.54"/>
<polygon fill="#63b8ff" stroke="#63b8ff" points="650.63,-69.44 643.14,-76.94 653.67,-75.74 650.63,-69.44"/>
</a>
</g>
</g>
<!-- Node7 -->
<g id="Node000007" class="node">
<title>Node7</title>
<g id="a_Node000007"><a xlink:href="UsdcSigning_2main_2main_8cpp.html" target="_top" xlink:title=" ">
<polygon fill="white" stroke="#666666" points="962,-35.5 834,-35.5 834,-5.5 962,-5.5 962,-35.5"/>
<text text-anchor="start" x="842" y="-23.5" font-family="Helvetica,sans-Serif" font-size="10.00">examples/UsdcSigning</text>
<text text-anchor="middle" x="898" y="-12.5" font-family="Helvetica,sans-Serif" font-size="10.00">/main/main.cpp</text>
</a>
</g>
</g>
<!-- Node1&#45;&gt;Node7 -->
<g id="edge6_Node000001_Node000007" class="edge">
<title>Node1&#45;&gt;Node7</title>
<g id="a_edge6_Node000001_Node000007"><a xlink:title=" ">
<path fill="none" stroke="#63b8ff" d="M685.39,-74.61C726.33,-65.08 778.63,-52.69 825,-41 831.87,-39.27 839.09,-37.4 846.2,-35.53"/>
<polygon fill="#63b8ff" stroke="#63b8ff" points="684.46,-71.24 675.51,-76.91 686.04,-78.05 684.46,-71.24"/>
</a>
</g>
</g>
<!-- Node8 -->
<g id="Node000008" class="node">
<title>Node8</title>
<g id="a_Node000008"><a xlink:href="VerifyPin_2main_2main_8cpp.html" target="_top" xlink:title=" ">
<polygon fill="white" stroke="#666666" points="1090,-35.5 980,-35.5 980,-5.5 1090,-5.5 1090,-35.5"/>
<text text-anchor="start" x="988" y="-23.5" font-family="Helvetica,sans-Serif" font-size="10.00">examples/VerifyPin</text>
<text text-anchor="middle" x="1035" y="-12.5" font-family="Helvetica,sans-Serif" font-size="10.00">/main/main.cpp</text>
</a>
</g>
</g>
<!-- Node1&#45;&gt;Node8 -->
<g id="edge7_Node000001_Node000008" class="edge">
<title>Node1&#45;&gt;Node8</title>
<g id="a_edge7_Node000001_Node000008"><a xlink:title=" ">
<path fill="none" stroke="#63b8ff" d="M712.7,-81.38C784.79,-73.34 884.62,-60.09 971,-41 977.92,-39.47 985.17,-37.56 992.21,-35.55"/>
<polygon fill="#63b8ff" stroke="#63b8ff" points="712.27,-77.91 702.71,-82.48 713.04,-84.86 712.27,-77.91"/>
</a>
</g>
</g>
</g>
</svg>
