<?xml version="1.0" encoding="UTF-8" standalone="no"?>
<!DOCTYPE svg PUBLIC "-//W3C//DTD SVG 1.1//EN"
 "http://www.w3.org/Graphics/SVG/1.1/DTD/svg11.dtd">
<!-- Generated by graphviz version 2.43.0 (0)
 -->
<!-- Title: components/esp32_logger/ESP32Logger.cpp Pages: 1 -->
<svg width="476pt" height="148pt"
 viewBox="0.00 0.00 475.50 148.00" xmlns="http://www.w3.org/2000/svg" xmlns:xlink="http://www.w3.org/1999/xlink">
<g id="graph0" class="graph" transform="scale(1 1) rotate(0) translate(4 144)">
<title>components/esp32_logger/ESP32Logger.cpp</title>
<!-- Node1 -->
<g id="Node000001" class="node">
<title>Node1</title>
<g id="a_Node000001"><a xlink:title="Implementation of ESP32Logger — ESP32 UART0 logging backend.">
<polygon fill="#999999" stroke="#666666" points="312.5,-140 167.5,-140 167.5,-110 312.5,-110 312.5,-140"/>
<text text-anchor="start" x="175.5" y="-128" font-family="Helvetica,sans-Serif" font-size="10.00">components/esp32_logger</text>
<text text-anchor="middle" x="240" y="-117" font-family="Helvetica,sans-Serif" font-size="10.00">/ESP32Logger.cpp</text>
</a>
</g>
</g>
<!-- Node2 -->
<g id="Node000002" class="node">
<title>Node2</title>
<g id="a_Node000002"><a xlink:href="ESP32Logger_8h.html" target="_top" xlink:title="CW_Logger implementation that writes to ESP32 UART0 via printf.">
<polygon fill="white" stroke="#666666" points="88,-74 0,-74 0,-55 88,-55 88,-74"/>
<text text-anchor="middle" x="44" y="-62" font-family="Helvetica,sans-Serif" font-size="10.00">ESP32Logger.h</text>
</a>
</g>
</g>
<!-- Node1&#45;&gt;Node2 -->
<g id="edge1_Node000001_Node000002" class="edge">
<title>Node1&#45;&gt;Node2</title>
<g id="a_edge1_Node000001_Node000002"><a xlink:title=" ">
<path fill="none" stroke="#63b8ff" d="M193.05,-109.99C159.23,-99.89 114.14,-86.44 82.45,-76.98"/>
<polygon fill="#63b8ff" stroke="#63b8ff" points="83.24,-73.56 72.66,-74.05 81.24,-80.27 83.24,-73.56"/>
</a>
</g>
</g>
<!-- Node4 -->
<g id="Node000004" class="node">
<title>Node4</title>
<g id="a_Node000004"><a xlink:title=" ">
<polygon fill="#e0e0e0" stroke="#999999" points="158.5,-74 105.5,-74 105.5,-55 158.5,-55 158.5,-74"/>
<text text-anchor="middle" x="132" y="-62" font-family="Helvetica,sans-Serif" font-size="10.00">stdint.h</text>
</a>
</g>
</g>
<!-- Node1&#45;&gt;Node4 -->
<g id="edge3_Node000001_Node000004" class="edge">
<title>Node1&#45;&gt;Node4</title>
<g id="a_edge3_Node000001_Node000004"><a xlink:title=" ">
<path fill="none" stroke="#63b8ff" d="M214.13,-109.99C196.76,-100.58 173.99,-88.24 156.83,-78.95"/>
<polygon fill="#63b8ff" stroke="#63b8ff" points="158.41,-75.82 147.95,-74.14 155.08,-81.98 158.41,-75.82"/>
</a>
</g>
</g>
<!-- Node5 -->
<g id="Node000005" class="node">
<title>Node5</title>
<g id="a_Node000005"><a xlink:title=" ">
<polygon fill="#e0e0e0" stroke="#999999" points="233,-74 177,-74 177,-55 233,-55 233,-74"/>
<text text-anchor="middle" x="205" y="-62" font-family="Helvetica,sans-Serif" font-size="10.00">stddef.h</text>
</a>
</g>
</g>
<!-- Node1&#45;&gt;Node5 -->
<g id="edge4_Node000001_Node000005" class="edge">
<title>Node1&#45;&gt;Node5</title>
<g id="a_edge4_Node000001_Node000005"><a xlink:title=" ">
<path fill="none" stroke="#63b8ff" d="M231.53,-109.84C226.71,-101.78 220.63,-91.62 215.5,-83.06"/>
<polygon fill="#63b8ff" stroke="#63b8ff" points="218.38,-81.05 210.24,-74.27 212.38,-84.64 218.38,-81.05"/>
</a>
</g>
</g>
<!-- Node6 -->
<g id="Node000006" class="node">
<title>Node6</title>
<g id="a_Node000006"><a xlink:title=" ">
<polygon fill="#e0e0e0" stroke="#999999" points="301,-74 251,-74 251,-55 301,-55 301,-74"/>
<text text-anchor="middle" x="276" y="-62" font-family="Helvetica,sans-Serif" font-size="10.00">stdio.h</text>
</a>
</g>
</g>
<!-- Node1&#45;&gt;Node6 -->
<g id="edge5_Node000001_Node000006" class="edge">
<title>Node1&#45;&gt;Node6</title>
<g id="a_edge5_Node000001_Node000006"><a xlink:title=" ">
<path fill="none" stroke="#63b8ff" d="M248.71,-109.84C253.67,-101.78 259.93,-91.62 265.2,-83.06"/>
<polygon fill="#63b8ff" stroke="#63b8ff" points="268.35,-84.62 270.61,-74.27 262.38,-80.95 268.35,-84.62"/>
</a>
</g>
</g>
<!-- Node7 -->
<g id="Node000007" class="node">
<title>Node7</title>
<g id="a_Node000007"><a xlink:title=" ">
<polygon fill="#e0e0e0" stroke="#999999" points="372.5,-74 319.5,-74 319.5,-55 372.5,-55 372.5,-74"/>
<text text-anchor="middle" x="346" y="-62" font-family="Helvetica,sans-Serif" font-size="10.00">string.h</text>
</a>
</g>
</g>
<!-- Node1&#45;&gt;Node7 -->
<g id="edge6_Node000001_Node000007" class="edge">
<title>Node1&#45;&gt;Node7</title>
<g id="a_edge6_Node000001_Node000007"><a xlink:title=" ">
<path fill="none" stroke="#63b8ff" d="M265.39,-109.99C282.29,-100.66 304.38,-88.47 321.16,-79.21"/>
<polygon fill="#63b8ff" stroke="#63b8ff" points="323.28,-82.04 330.35,-74.14 319.9,-75.91 323.28,-82.04"/>
</a>
</g>
</g>
<!-- Node8 -->
<g id="Node000008" class="node">
<title>Node8</title>
<g id="a_Node000008"><a xlink:title=" ">
<polygon fill="#e0e0e0" stroke="#999999" points="467.5,-74 390.5,-74 390.5,-55 467.5,-55 467.5,-74"/>
<text text-anchor="middle" x="429" y="-62" font-family="Helvetica,sans-Serif" font-size="10.00">driver/uart.h</text>
</a>
</g>
</g>
<!-- Node1&#45;&gt;Node8 -->
<g id="edge7_Node000001_Node000008" class="edge">
<title>Node1&#45;&gt;Node8</title>
<g id="a_edge7_Node000001_Node000008"><a xlink:title=" ">
<path fill="none" stroke="#63b8ff" d="M285.27,-109.99C317.75,-99.94 360.99,-86.55 391.53,-77.1"/>
<polygon fill="#63b8ff" stroke="#63b8ff" points="392.85,-80.35 401.37,-74.05 390.78,-73.67 392.85,-80.35"/>
</a>
</g>
</g>
<!-- Node3 -->
<g id="Node000003" class="node">
<title>Node3</title>
<g id="a_Node000003"><a xlink:title=" ">
<polygon fill="#e0e0e0" stroke="#999999" points="84,-19 4,-19 4,0 84,0 84,-19"/>
<text text-anchor="middle" x="44" y="-7" font-family="Helvetica,sans-Serif" font-size="10.00">CW_Logger.h</text>
</a>
</g>
</g>
<!-- Node2&#45;&gt;Node3 -->
<g id="edge2_Node000002_Node000003" class="edge">
<title>Node2&#45;&gt;Node3</title>
<g id="a_edge2_Node000002_Node000003"><a xlink:title=" ">
<path fill="none" stroke="#63b8ff" d="M44,-54.75C44,-47.8 44,-37.85 44,-29.13"/>
<polygon fill="#63b8ff" stroke="#63b8ff" points="47.5,-29.09 44,-19.09 40.5,-29.09 47.5,-29.09"/>
</a>
</g>
</g>
</g>
</svg>
