<?xml version="1.0" encoding="UTF-8" standalone="no"?>
<!DOCTYPE svg PUBLIC "-//W3C//DTD SVG 1.1//EN"
 "http://www.w3.org/Graphics/SVG/1.1/DTD/svg11.dtd">
<!-- Generated by graphviz version 2.43.0 (0)
 -->
<!-- Title: examples/UsdcSigning/main/eth_rpc.cpp Pages: 1 -->
<svg width="1375pt" height="148pt"
 viewBox="0.00 0.00 1375.00 148.00" xmlns="http://www.w3.org/2000/svg" xmlns:xlink="http://www.w3.org/1999/xlink">
<g id="graph0" class="graph" transform="scale(1 1) rotate(0) translate(4 144)">
<title>examples/UsdcSigning/main/eth_rpc.cpp</title>
<!-- Node1 -->
<g id="Node000001" class="node">
<title>Node1</title>
<g id="a_Node000001"><a xlink:title=" ">
<polygon fill="#999999" stroke="#666666" points="710.5,-140 582.5,-140 582.5,-110 710.5,-110 710.5,-140"/>
<text text-anchor="start" x="590.5" y="-128" font-family="Helvetica,sans-Serif" font-size="10.00">examples/UsdcSigning</text>
<text text-anchor="middle" x="646.5" y="-117" font-family="Helvetica,sans-Serif" font-size="10.00">/main/eth_rpc.cpp</text>
</a>
</g>
</g>
<!-- Node2 -->
<g id="Node000002" class="node">
<title>Node2</title>
<g id="a_Node000002"><a xlink:href="eth__rpc_8h.html" target="_top" xlink:title=" ">
<polygon fill="white" stroke="#666666" points="130.5,-74 68.5,-74 68.5,-55 130.5,-55 130.5,-74"/>
<text text-anchor="middle" x="99.5" y="-62" font-family="Helvetica,sans-Serif" font-size="10.00">eth_rpc.h</text>
</a>
</g>
</g>
<!-- Node1&#45;&gt;Node2 -->
<g id="edge1_Node000001_Node000002" class="edge">
<title>Node1&#45;&gt;Node2</title>
<g id="a_edge1_Node000001_Node000002"><a xlink:title=" ">
<path fill="none" stroke="#63b8ff" d="M582.33,-119.85C487.97,-113.26 306.1,-98.72 141.12,-73.91"/>
<polygon fill="#63b8ff" stroke="#63b8ff" points="141.19,-70.38 130.78,-72.34 140.14,-77.3 141.19,-70.38"/>
</a>
</g>
</g>
<!-- Node6 -->
<g id="Node000006" class="node">
<title>Node6</title>
<g id="a_Node000006"><a xlink:title=" ">
<polygon fill="#e0e0e0" stroke="#999999" points="202,-74 149,-74 149,-55 202,-55 202,-74"/>
<text text-anchor="middle" x="175.5" y="-62" font-family="Helvetica,sans-Serif" font-size="10.00">string.h</text>
</a>
</g>
</g>
<!-- Node1&#45;&gt;Node6 -->
<g id="edge5_Node000001_Node000006" class="edge">
<title>Node1&#45;&gt;Node6</title>
<g id="a_edge5_Node000001_Node000006"><a xlink:title=" ">
<path fill="none" stroke="#63b8ff" d="M582.4,-119C499.25,-111.99 349.58,-97.58 212.04,-73.89"/>
<polygon fill="#63b8ff" stroke="#63b8ff" points="212.62,-70.43 202.16,-72.16 211.41,-77.33 212.62,-70.43"/>
</a>
</g>
</g>
<!-- Node7 -->
<g id="Node000007" class="node">
<title>Node7</title>
<g id="a_Node000007"><a xlink:title=" ">
<polygon fill="#e0e0e0" stroke="#999999" points="279,-74 220,-74 220,-55 279,-55 279,-74"/>
<text text-anchor="middle" x="249.5" y="-62" font-family="Helvetica,sans-Serif" font-size="10.00">strings.h</text>
</a>
</g>
</g>
<!-- Node1&#45;&gt;Node7 -->
<g id="edge6_Node000001_Node000007" class="edge">
<title>Node1&#45;&gt;Node7</title>
<g id="a_edge6_Node000001_Node000007"><a xlink:title=" ">
<path fill="none" stroke="#63b8ff" d="M582.25,-116.52C512.59,-108.07 397.95,-93.19 289.41,-74.04"/>
<polygon fill="#63b8ff" stroke="#63b8ff" points="289.72,-70.54 279.26,-72.23 288.5,-77.43 289.72,-70.54"/>
</a>
</g>
</g>
<!-- Node8 -->
<g id="Node000008" class="node">
<title>Node8</title>
<g id="a_Node000008"><a xlink:title=" ">
<polygon fill="#e0e0e0" stroke="#999999" points="350,-74 297,-74 297,-55 350,-55 350,-74"/>
<text text-anchor="middle" x="323.5" y="-62" font-family="Helvetica,sans-Serif" font-size="10.00">stdlib.h</text>
</a>
</g>
</g>
<!-- Node1&#45;&gt;Node8 -->
<g id="edge7_Node000001_Node000008" class="edge">
<title>Node1&#45;&gt;Node8</title>
<g id="a_edge7_Node000001_Node000008"><a xlink:title=" ">
<path fill="none" stroke="#63b8ff" d="M582.46,-113.96C526.44,-104.92 442.66,-90.8 360.24,-74.05"/>
<polygon fill="#63b8ff" stroke="#63b8ff" points="360.7,-70.57 350.2,-71.99 359.29,-77.42 360.7,-70.57"/>
</a>
</g>
</g>
<!-- Node9 -->
<g id="Node000009" class="node">
<title>Node9</title>
<g id="a_Node000009"><a xlink:title=" ">
<polygon fill="#e0e0e0" stroke="#999999" points="418.5,-74 368.5,-74 368.5,-55 418.5,-55 418.5,-74"/>
<text text-anchor="middle" x="393.5" y="-62" font-family="Helvetica,sans-Serif" font-size="10.00">stdio.h</text>
</a>
</g>
</g>
<!-- Node1&#45;&gt;Node9 -->
<g id="edge8_Node000001_Node000009" class="edge">
<title>Node1&#45;&gt;Node9</title>
<g id="a_edge8_Node000001_Node000009"><a xlink:title=" ">
<path fill="none" stroke="#63b8ff" d="M584.43,-109.99C540.78,-100.08 481.03,-86.4 428.5,-74 428.4,-73.98 428.3,-73.95 428.2,-73.93"/>
<polygon fill="#63b8ff" stroke="#63b8ff" points="429.27,-70.59 418.73,-71.67 427.64,-77.39 429.27,-70.59"/>
</a>
</g>
</g>
<!-- Node10 -->
<g id="Node000010" class="node">
<title>Node10</title>
<g id="a_Node000010"><a xlink:title=" ">
<polygon fill="#e0e0e0" stroke="#999999" points="502,-74 437,-74 437,-55 502,-55 502,-74"/>
<text text-anchor="middle" x="469.5" y="-62" font-family="Helvetica,sans-Serif" font-size="10.00">inttypes.h</text>
</a>
</g>
</g>
<!-- Node1&#45;&gt;Node10 -->
<g id="edge9_Node000001_Node000010" class="edge">
<title>Node1&#45;&gt;Node10</title>
<g id="a_edge9_Node000001_Node000010"><a xlink:title=" ">
<path fill="none" stroke="#63b8ff" d="M604.1,-109.99C573.82,-99.98 533.55,-86.67 504.97,-77.22"/>
<polygon fill="#63b8ff" stroke="#63b8ff" points="505.97,-73.87 495.38,-74.05 503.78,-80.52 505.97,-73.87"/>
</a>
</g>
</g>
<!-- Node11 -->
<g id="Node000011" class="node">
<title>Node11</title>
<g id="a_Node000011"><a xlink:title=" ">
<polygon fill="#e0e0e0" stroke="#999999" points="633,-74 520,-74 520,-55 633,-55 633,-74"/>
<text text-anchor="middle" x="576.5" y="-62" font-family="Helvetica,sans-Serif" font-size="10.00">freertos/FreeRTOS.h</text>
</a>
</g>
</g>
<!-- Node1&#45;&gt;Node11 -->
<g id="edge10_Node000001_Node000011" class="edge">
<title>Node1&#45;&gt;Node11</title>
<g id="a_edge10_Node000001_Node000011"><a xlink:title=" ">
<path fill="none" stroke="#63b8ff" d="M629.55,-109.84C619.08,-101.09 605.64,-89.85 594.91,-80.88"/>
<polygon fill="#63b8ff" stroke="#63b8ff" points="596.91,-77.99 586.99,-74.27 592.42,-83.36 596.91,-77.99"/>
</a>
</g>
</g>
<!-- Node12 -->
<g id="Node000012" class="node">
<title>Node12</title>
<g id="a_Node000012"><a xlink:title=" ">
<polygon fill="#e0e0e0" stroke="#999999" points="784,-74 651,-74 651,-55 784,-55 784,-74"/>
<text text-anchor="middle" x="717.5" y="-62" font-family="Helvetica,sans-Serif" font-size="10.00">freertos/event_groups.h</text>
</a>
</g>
</g>
<!-- Node1&#45;&gt;Node12 -->
<g id="edge11_Node000001_Node000012" class="edge">
<title>Node1&#45;&gt;Node12</title>
<g id="a_edge11_Node000001_Node000012"><a xlink:title=" ">
<path fill="none" stroke="#63b8ff" d="M663.69,-109.84C674.31,-101.09 687.94,-89.85 698.83,-80.88"/>
<polygon fill="#63b8ff" stroke="#63b8ff" points="701.37,-83.33 706.86,-74.27 696.92,-77.92 701.37,-83.33"/>
</a>
</g>
</g>
<!-- Node13 -->
<g id="Node000013" class="node">
<title>Node13</title>
<g id="a_Node000013"><a xlink:title=" ">
<polygon fill="#e0e0e0" stroke="#999999" points="867,-74 802,-74 802,-55 867,-55 867,-74"/>
<text text-anchor="middle" x="834.5" y="-62" font-family="Helvetica,sans-Serif" font-size="10.00">esp_wifi.h</text>
</a>
</g>
</g>
<!-- Node1&#45;&gt;Node13 -->
<g id="edge12_Node000001_Node000013" class="edge">
<title>Node1&#45;&gt;Node13</title>
<g id="a_edge12_Node000001_Node000013"><a xlink:title=" ">
<path fill="none" stroke="#63b8ff" d="M691.53,-109.99C723.84,-99.94 766.84,-86.55 797.23,-77.1"/>
<polygon fill="#63b8ff" stroke="#63b8ff" points="798.5,-80.37 807.01,-74.05 796.42,-73.68 798.5,-80.37"/>
</a>
</g>
</g>
<!-- Node14 -->
<g id="Node000014" class="node">
<title>Node14</title>
<g id="a_Node000014"><a xlink:title=" ">
<polygon fill="#e0e0e0" stroke="#999999" points="961.5,-74 885.5,-74 885.5,-55 961.5,-55 961.5,-74"/>
<text text-anchor="middle" x="923.5" y="-62" font-family="Helvetica,sans-Serif" font-size="10.00">esp_event.h</text>
</a>
</g>
</g>
<!-- Node1&#45;&gt;Node14 -->
<g id="edge13_Node000001_Node000014" class="edge">
<title>Node1&#45;&gt;Node14</title>
<g id="a_edge13_Node000001_Node000014"><a xlink:title=" ">
<path fill="none" stroke="#63b8ff" d="M710.75,-110.43C760.97,-99.83 829.68,-85.31 875.27,-75.69"/>
<polygon fill="#63b8ff" stroke="#63b8ff" points="876.14,-79.08 885.2,-73.59 874.7,-72.23 876.14,-79.08"/>
</a>
</g>
</g>
<!-- Node15 -->
<g id="Node000015" class="node">
<title>Node15</title>
<g id="a_Node000015"><a xlink:title=" ">
<polygon fill="#e0e0e0" stroke="#999999" points="1049.5,-74 979.5,-74 979.5,-55 1049.5,-55 1049.5,-74"/>
<text text-anchor="middle" x="1014.5" y="-62" font-family="Helvetica,sans-Serif" font-size="10.00">esp_netif.h</text>
</a>
</g>
</g>
<!-- Node1&#45;&gt;Node15 -->
<g id="edge14_Node000001_Node000015" class="edge">
<title>Node1&#45;&gt;Node15</title>
<g id="a_edge14_Node000001_Node000015"><a xlink:title=" ">
<path fill="none" stroke="#63b8ff" d="M710.55,-114.84C773.82,-105.63 873.6,-90.67 969.58,-74.1"/>
<polygon fill="#63b8ff" stroke="#63b8ff" points="970.2,-77.55 979.46,-72.39 969.01,-70.65 970.2,-77.55"/>
</a>
</g>
</g>
<!-- Node16 -->
<g id="Node000016" class="node">
<title>Node16</title>
<g id="a_Node000016"><a xlink:title=" ">
<polygon fill="#e0e0e0" stroke="#999999" points="1131,-74 1068,-74 1068,-55 1131,-55 1131,-74"/>
<text text-anchor="middle" x="1099.5" y="-62" font-family="Helvetica,sans-Serif" font-size="10.00">esp_log.h</text>
</a>
</g>
</g>
<!-- Node1&#45;&gt;Node16 -->
<g id="edge15_Node000001_Node000016" class="edge">
<title>Node1&#45;&gt;Node16</title>
<g id="a_edge15_Node000001_Node000016"><a xlink:title=" ">
<path fill="none" stroke="#63b8ff" d="M710.61,-117.9C789.78,-109.99 928.75,-94.88 1057.71,-74"/>
<polygon fill="#63b8ff" stroke="#63b8ff" points="1058.46,-77.42 1067.76,-72.35 1057.33,-70.51 1058.46,-77.42"/>
</a>
</g>
</g>
<!-- Node17 -->
<g id="Node000017" class="node">
<title>Node17</title>
<g id="a_Node000017"><a xlink:title=" ">
<polygon fill="#e0e0e0" stroke="#999999" points="1249.5,-74 1149.5,-74 1149.5,-55 1249.5,-55 1249.5,-74"/>
<text text-anchor="middle" x="1199.5" y="-62" font-family="Helvetica,sans-Serif" font-size="10.00">esp_http_client.h</text>
</a>
</g>
</g>
<!-- Node1&#45;&gt;Node17 -->
<g id="edge16_Node000001_Node000017" class="edge">
<title>Node1&#45;&gt;Node17</title>
<g id="a_edge16_Node000001_Node000017"><a xlink:title=" ">
<path fill="none" stroke="#63b8ff" d="M710.54,-118.39C802.9,-110.1 979.08,-93.58 1139.27,-74.1"/>
<polygon fill="#63b8ff" stroke="#63b8ff" points="1139.81,-77.57 1149.31,-72.88 1138.96,-70.62 1139.81,-77.57"/>
</a>
</g>
</g>
<!-- Node18 -->
<g id="Node000018" class="node">
<title>Node18</title>
<g id="a_Node000018"><a xlink:title=" ">
<polygon fill="#e0e0e0" stroke="#999999" points="1367,-74 1268,-74 1268,-55 1367,-55 1367,-74"/>
<text text-anchor="middle" x="1317.5" y="-62" font-family="Helvetica,sans-Serif" font-size="10.00">esp_crt_bundle.h</text>
</a>
</g>
</g>
<!-- Node1&#45;&gt;Node18 -->
<g id="edge17_Node000001_Node000018" class="edge">
<title>Node1&#45;&gt;Node18</title>
<g id="a_edge17_Node000001_Node000018"><a xlink:title=" ">
<path fill="none" stroke="#63b8ff" d="M710.5,-120.07C820.22,-113.06 1051.47,-97.02 1257.84,-74"/>
<polygon fill="#63b8ff" stroke="#63b8ff" points="1258.41,-77.46 1267.95,-72.86 1257.63,-70.5 1258.41,-77.46"/>
</a>
</g>
</g>
<!-- Node3 -->
<g id="Node000003" class="node">
<title>Node3</title>
<g id="a_Node000003"><a xlink:title=" ">
<polygon fill="#e0e0e0" stroke="#999999" points="53,-19 0,-19 0,0 53,0 53,-19"/>
<text text-anchor="middle" x="26.5" y="-7" font-family="Helvetica,sans-Serif" font-size="10.00">stdint.h</text>
</a>
</g>
</g>
<!-- Node2&#45;&gt;Node3 -->
<g id="edge2_Node000002_Node000003" class="edge">
<title>Node2&#45;&gt;Node3</title>
<g id="a_edge2_Node000002_Node000003"><a xlink:title=" ">
<path fill="none" stroke="#63b8ff" d="M87.77,-54.98C76.77,-47 60.08,-34.88 46.9,-25.31"/>
<polygon fill="#63b8ff" stroke="#63b8ff" points="48.59,-22.21 38.44,-19.17 44.48,-27.88 48.59,-22.21"/>
</a>
</g>
</g>
<!-- Node4 -->
<g id="Node000004" class="node">
<title>Node4</title>
<g id="a_Node000004"><a xlink:title=" ">
<polygon fill="#e0e0e0" stroke="#999999" points="127.5,-19 71.5,-19 71.5,0 127.5,0 127.5,-19"/>
<text text-anchor="middle" x="99.5" y="-7" font-family="Helvetica,sans-Serif" font-size="10.00">stddef.h</text>
</a>
</g>
</g>
<!-- Node2&#45;&gt;Node4 -->
<g id="edge3_Node000002_Node000004" class="edge">
<title>Node2&#45;&gt;Node4</title>
<g id="a_edge3_Node000002_Node000004"><a xlink:title=" ">
<path fill="none" stroke="#63b8ff" d="M99.5,-54.75C99.5,-47.8 99.5,-37.85 99.5,-29.13"/>
<polygon fill="#63b8ff" stroke="#63b8ff" points="103,-29.09 99.5,-19.09 96,-29.09 103,-29.09"/>
</a>
</g>
</g>
<!-- Node5 -->
<g id="Node000005" class="node">
<title>Node5</title>
<g id="a_Node000005"><a xlink:title=" ">
<polygon fill="#e0e0e0" stroke="#999999" points="207.5,-19 145.5,-19 145.5,0 207.5,0 207.5,-19"/>
<text text-anchor="middle" x="176.5" y="-7" font-family="Helvetica,sans-Serif" font-size="10.00">stdbool.h</text>
</a>
</g>
</g>
<!-- Node2&#45;&gt;Node5 -->
<g id="edge4_Node000002_Node000005" class="edge">
<title>Node2&#45;&gt;Node5</title>
<g id="a_edge4_Node000002_Node000005"><a xlink:title=" ">
<path fill="none" stroke="#63b8ff" d="M111.87,-54.98C123.59,-46.92 141.42,-34.65 155.39,-25.03"/>
<polygon fill="#63b8ff" stroke="#63b8ff" points="157.65,-27.72 163.9,-19.17 153.68,-21.96 157.65,-27.72"/>
</a>
</g>
</g>
</g>
</svg>
