<?xml version="1.0" encoding="UTF-8" standalone="no"?>
<!DOCTYPE svg PUBLIC "-//W3C//DTD SVG 1.1//EN"
 "http://www.w3.org/Graphics/SVG/1.1/DTD/svg11.dtd">
<!-- Generated by graphviz version 2.43.0 (0)
 -->
<!-- Title: Graphical Class Hierarchy Pages: 1 -->
<svg width="213pt" height="64pt"
 viewBox="0.00 0.00 213.00 64.00" xmlns="http://www.w3.org/2000/svg" xmlns:xlink="http://www.w3.org/1999/xlink">
<g id="graph0" class="graph" transform="scale(1 1) rotate(0) translate(4 60)">
<title>Graphical Class Hierarchy</title>
<!-- Node0 -->
<g id="Node000000" class="node">
<title>Node0</title>
<g id="a_Node000000"><a xlink:title=" ">
<polygon fill="#e0e0e0" stroke="#999999" points="80,-37 0,-37 0,-18 80,-18 80,-37"/>
<text text-anchor="middle" x="40" y="-25" font-family="Helvetica,sans-Serif" font-size="10.00">CW_Platform</text>
</a>
</g>
</g>
<!-- Node1 -->
<g id="Node000001" class="node">
<title>Node1</title>
<g id="a_Node000001"><a xlink:href="classESP32Platform.html" target="_top" xlink:title="CW_Platform backed by FreeRTOS vTaskDelay.">
<polygon fill="white" stroke="#666666" points="205,-56 116,-56 116,-37 205,-37 205,-56"/>
<text text-anchor="middle" x="160.5" y="-44" font-family="Helvetica,sans-Serif" font-size="10.00">ESP32Platform</text>
</a>
</g>
</g>
<!-- Node0&#45;&gt;Node1 -->
<g id="edge8_Node000000_Node000001" class="edge">
<title>Node0&#45;&gt;Node1</title>
<g id="a_edge8_Node000000_Node000001"><a xlink:title=" ">
<path fill="none" stroke="#63b8ff" d="M90.03,-35.36C98.61,-36.74 107.49,-38.16 115.91,-39.51"/>
<polygon fill="#63b8ff" stroke="#63b8ff" points="90.56,-31.9 80.13,-33.77 89.45,-38.81 90.56,-31.9"/>
</a>
</g>
</g>
<!-- Node2 -->
<g id="Node000002" class="node">
<title>Node2</title>
<g id="a_Node000002"><a xlink:href="classMockPlatform.html" target="_top" xlink:title=" ">
<polygon fill="white" stroke="#666666" points="203,-19 118,-19 118,0 203,0 203,-19"/>
<text text-anchor="middle" x="160.5" y="-7" font-family="Helvetica,sans-Serif" font-size="10.00">MockPlatform</text>
</a>
</g>
</g>
<!-- Node0&#45;&gt;Node2 -->
<g id="edge9_Node000000_Node000002" class="edge">
<title>Node0&#45;&gt;Node2</title>
<g id="a_edge9_Node000000_Node000002"><a xlink:title=" ">
<path fill="none" stroke="#63b8ff" d="M90.03,-20.05C99.31,-18.64 108.94,-17.18 117.97,-15.81"/>
<polygon fill="#63b8ff" stroke="#63b8ff" points="89.49,-16.59 80.13,-21.56 90.54,-23.51 89.49,-16.59"/>
</a>
</g>
</g>
</g>
</svg>
