<?xml version="1.0" encoding="UTF-8" standalone="no"?>
<!DOCTYPE svg PUBLIC "-//W3C//DTD SVG 1.1//EN"
 "http://www.w3.org/Graphics/SVG/1.1/DTD/svg11.dtd">
<!-- Generated by graphviz version 2.43.0 (0)
 -->
<!-- Title: Graphical Class Hierarchy Pages: 1 -->
<svg width="297pt" height="138pt"
 viewBox="0.00 0.00 297.00 138.00" xmlns="http://www.w3.org/2000/svg" xmlns:xlink="http://www.w3.org/1999/xlink">
<g id="graph0" class="graph" transform="scale(1 1) rotate(0) translate(4 134)">
<title>Graphical Class Hierarchy</title>
<!-- Node0 -->
<g id="Node000000" class="node">
<title>Node0</title>
<g id="a_Node000000"><a xlink:title=" ">
<polygon fill="#e0e0e0" stroke="#999999" points="100,-74 0,-74 0,-55 100,-55 100,-74"/>
<text text-anchor="middle" x="50" y="-62" font-family="Helvetica,sans-Serif" font-size="10.00">CW_NfcTransport</text>
</a>
</g>
</g>
<!-- Node1 -->
<g id="Node000001" class="node">
<title>Node1</title>
<g id="a_Node000001"><a xlink:href="classPN532Adapter.html" target="_top" xlink:title="Self&#45;contained CW_NfcTransport that owns its pn532_t instance.">
<polygon fill="white" stroke="#666666" points="255.5,-130 169.5,-130 169.5,-111 255.5,-111 255.5,-130"/>
<text text-anchor="middle" x="212.5" y="-118" font-family="Helvetica,sans-Serif" font-size="10.00">PN532Adapter</text>
</a>
</g>
</g>
<!-- Node0&#45;&gt;Node1 -->
<g id="edge4_Node000000_Node000001" class="edge">
<title>Node0&#45;&gt;Node1</title>
<g id="a_edge4_Node000000_Node000001"><a xlink:title=" ">
<path fill="none" stroke="#63b8ff" d="M78.84,-78.53C95.19,-86.36 116.42,-95.86 136,-102.5 146.59,-106.09 158.25,-109.25 169.17,-111.87"/>
<polygon fill="#63b8ff" stroke="#63b8ff" points="80.36,-75.37 69.83,-74.14 77.29,-81.67 80.36,-75.37"/>
</a>
</g>
</g>
<!-- Node2 -->
<g id="Node000002" class="node">
<title>Node2</title>
<g id="a_Node000002"><a xlink:href="classPn532NfcTransport.html" target="_top" xlink:title="CW_NfcTransport implementation backed by the ESP&#45;IDF PN532 driver.">
<polygon fill="white" stroke="#666666" points="266.5,-93 158.5,-93 158.5,-74 266.5,-74 266.5,-93"/>
<text text-anchor="middle" x="212.5" y="-81" font-family="Helvetica,sans-Serif" font-size="10.00">Pn532NfcTransport</text>
</a>
</g>
</g>
<!-- Node0&#45;&gt;Node2 -->
<g id="edge5_Node000000_Node000002" class="edge">
<title>Node0&#45;&gt;Node2</title>
<g id="a_edge5_Node000000_Node000002"><a xlink:title=" ">
<path fill="none" stroke="#63b8ff" d="M110.19,-71.51C125.95,-73.37 142.89,-75.38 158.31,-77.2"/>
<polygon fill="#63b8ff" stroke="#63b8ff" points="110.37,-68 100.03,-70.3 109.55,-74.96 110.37,-68"/>
</a>
</g>
</g>
<!-- Node3 -->
<g id="Node000003" class="node">
<title>Node3</title>
<g id="a_Node000003"><a xlink:href="classReflectiveMockNfcTransport.html" target="_top" xlink:title=" ">
<polygon fill="white" stroke="#666666" points="289,-56 136,-56 136,-37 289,-37 289,-56"/>
<text text-anchor="middle" x="212.5" y="-44" font-family="Helvetica,sans-Serif" font-size="10.00">ReflectiveMockNfcTransport</text>
</a>
</g>
</g>
<!-- Node0&#45;&gt;Node3 -->
<g id="edge6_Node000000_Node000003" class="edge">
<title>Node0&#45;&gt;Node3</title>
<g id="a_edge6_Node000000_Node000003"><a xlink:title=" ">
<path fill="none" stroke="#63b8ff" d="M110.08,-57.87C118.48,-56.93 127.21,-55.95 135.87,-54.98"/>
<polygon fill="#63b8ff" stroke="#63b8ff" points="109.57,-54.41 100.03,-59 110.36,-61.37 109.57,-54.41"/>
</a>
</g>
</g>
<!-- Node4 -->
<g id="Node000004" class="node">
<title>Node4</title>
<g id="a_Node000004"><a xlink:href="classScriptedMockNfcTransport.html" target="_top" xlink:title=" ">
<polygon fill="white" stroke="#666666" points="284.5,-19 140.5,-19 140.5,0 284.5,0 284.5,-19"/>
<text text-anchor="middle" x="212.5" y="-7" font-family="Helvetica,sans-Serif" font-size="10.00">ScriptedMockNfcTransport</text>
</a>
</g>
</g>
<!-- Node0&#45;&gt;Node4 -->
<g id="edge7_Node000000_Node000004" class="edge">
<title>Node0&#45;&gt;Node4</title>
<g id="a_edge7_Node000000_Node000004"><a xlink:title=" ">
<path fill="none" stroke="#63b8ff" d="M80.7,-50.59C96.83,-43.38 117.25,-34.79 136,-28.5 146.51,-24.98 158.03,-21.76 168.84,-19.02"/>
<polygon fill="#63b8ff" stroke="#63b8ff" points="78.93,-47.55 71.27,-54.87 81.82,-53.92 78.93,-47.55"/>
</a>
</g>
</g>
</g>
</svg>
