<?xml version="1.0" encoding="UTF-8" standalone="no"?>
<!DOCTYPE svg PUBLIC "-//W3C//DTD SVG 1.1//EN"
 "http://www.w3.org/Graphics/SVG/1.1/DTD/svg11.dtd">
<!-- Generated by graphviz version 2.43.0 (0)
 -->
<!-- Title: components/pn532/include/pn532.h Pages: 1 -->
<svg width="398pt" height="93pt"
 viewBox="0.00 0.00 397.50 93.00" xmlns="http://www.w3.org/2000/svg" xmlns:xlink="http://www.w3.org/1999/xlink">
<g id="graph0" class="graph" transform="scale(1 1) rotate(0) translate(4 89)">
<title>components/pn532/include/pn532.h</title>
<!-- Node1 -->
<g id="Node000001" class="node">
<title>Node1</title>
<g id="a_Node000001"><a xlink:title="Low&#45;level PN532 NFC controller driver for ESP&#45;IDF (SPI and I²C).">
<polygon fill="#999999" stroke="#666666" points="228.5,-85 80.5,-85 80.5,-55 228.5,-55 228.5,-85"/>
<text text-anchor="start" x="88.5" y="-73" font-family="Helvetica,sans-Serif" font-size="10.00">components/pn532/include</text>
<text text-anchor="middle" x="154.5" y="-62" font-family="Helvetica,sans-Serif" font-size="10.00">/pn532.h</text>
</a>
</g>
</g>
<!-- Node2 -->
<g id="Node000002" class="node">
<title>Node2</title>
<g id="a_Node000002"><a xlink:title=" ">
<polygon fill="#e0e0e0" stroke="#999999" points="53,-19 0,-19 0,0 53,0 53,-19"/>
<text text-anchor="middle" x="26.5" y="-7" font-family="Helvetica,sans-Serif" font-size="10.00">stdint.h</text>
</a>
</g>
</g>
<!-- Node1&#45;&gt;Node2 -->
<g id="edge1_Node000001_Node000002" class="edge">
<title>Node1&#45;&gt;Node2</title>
<g id="a_edge1_Node000001_Node000002"><a xlink:title=" ">
<path fill="none" stroke="#63b8ff" d="M123.84,-54.99C102.77,-45.36 75.01,-32.67 54.53,-23.31"/>
<polygon fill="#63b8ff" stroke="#63b8ff" points="55.95,-20.11 45.4,-19.14 53.04,-26.48 55.95,-20.11"/>
</a>
</g>
</g>
<!-- Node3 -->
<g id="Node000003" class="node">
<title>Node3</title>
<g id="a_Node000003"><a xlink:title=" ">
<polygon fill="#e0e0e0" stroke="#999999" points="133.5,-19 71.5,-19 71.5,0 133.5,0 133.5,-19"/>
<text text-anchor="middle" x="102.5" y="-7" font-family="Helvetica,sans-Serif" font-size="10.00">stdbool.h</text>
</a>
</g>
</g>
<!-- Node1&#45;&gt;Node3 -->
<g id="edge2_Node000001_Node000003" class="edge">
<title>Node1&#45;&gt;Node3</title>
<g id="a_edge2_Node000001_Node000003"><a xlink:title=" ">
<path fill="none" stroke="#63b8ff" d="M141.91,-54.84C134.44,-46.43 124.94,-35.74 117.13,-26.96"/>
<polygon fill="#63b8ff" stroke="#63b8ff" points="119.55,-24.41 110.29,-19.27 114.32,-29.07 119.55,-24.41"/>
</a>
</g>
</g>
<!-- Node4 -->
<g id="Node000004" class="node">
<title>Node4</title>
<g id="a_Node000004"><a xlink:title=" ">
<polygon fill="#e0e0e0" stroke="#999999" points="261.5,-19 151.5,-19 151.5,0 261.5,0 261.5,-19"/>
<text text-anchor="middle" x="206.5" y="-7" font-family="Helvetica,sans-Serif" font-size="10.00">driver/spi_master.h</text>
</a>
</g>
</g>
<!-- Node1&#45;&gt;Node4 -->
<g id="edge3_Node000001_Node000004" class="edge">
<title>Node1&#45;&gt;Node4</title>
<g id="a_edge3_Node000001_Node000004"><a xlink:title=" ">
<path fill="none" stroke="#63b8ff" d="M167.09,-54.84C174.56,-46.43 184.06,-35.74 191.87,-26.96"/>
<polygon fill="#63b8ff" stroke="#63b8ff" points="194.68,-29.07 198.71,-19.27 189.45,-24.41 194.68,-29.07"/>
</a>
</g>
</g>
<!-- Node5 -->
<g id="Node000005" class="node">
<title>Node5</title>
<g id="a_Node000005"><a xlink:title=" ">
<polygon fill="#e0e0e0" stroke="#999999" points="389.5,-19 279.5,-19 279.5,0 389.5,0 389.5,-19"/>
<text text-anchor="middle" x="334.5" y="-7" font-family="Helvetica,sans-Serif" font-size="10.00">driver/i2c_master.h</text>
</a>
</g>
</g>
<!-- Node1&#45;&gt;Node5 -->
<g id="edge4_Node000001_Node000005" class="edge">
<title>Node1&#45;&gt;Node5</title>
<g id="a_edge4_Node000001_Node000005"><a xlink:title=" ">
<path fill="none" stroke="#63b8ff" d="M197.61,-54.99C228.41,-44.98 269.37,-31.67 298.43,-22.22"/>
<polygon fill="#63b8ff" stroke="#63b8ff" points="299.75,-25.47 308.18,-19.05 297.59,-18.82 299.75,-25.47"/>
</a>
</g>
</g>
</g>
</svg>
