<?xml version="1.0" encoding="UTF-8" standalone="no"?>
<!DOCTYPE svg PUBLIC "-//W3C//DTD SVG 1.1//EN"
 "http://www.w3.org/Graphics/SVG/1.1/DTD/svg11.dtd">
<!-- Generated by graphviz version 2.43.0 (0)
 -->
<!-- Title: components/pn532_nfc_transport/Pn532NfcTransport.cpp Pages: 1 -->
<svg width="497pt" height="203pt"
 viewBox="0.00 0.00 496.50 203.00" xmlns="http://www.w3.org/2000/svg" xmlns:xlink="http://www.w3.org/1999/xlink">
<g id="graph0" class="graph" transform="scale(1 1) rotate(0) translate(4 199)">
<title>components/pn532_nfc_transport/Pn532NfcTransport.cpp</title>
<!-- Node1 -->
<g id="Node000001" class="node">
<title>Node1</title>
<g id="a_Node000001"><a xlink:title="Implementation of Pn532NfcTransport — ESP&#45;IDF PN532 NFC transport.">
<polygon fill="#999999" stroke="#666666" points="258,-195 77,-195 77,-165 258,-165 258,-195"/>
<text text-anchor="start" x="85" y="-183" font-family="Helvetica,sans-Serif" font-size="10.00">components/pn532_nfc</text>
<text text-anchor="middle" x="167.5" y="-172" font-family="Helvetica,sans-Serif" font-size="10.00">_transport/Pn532NfcTransport.cpp</text>
</a>
</g>
</g>
<!-- Node2 -->
<g id="Node000002" class="node">
<title>Node2</title>
<g id="a_Node000002"><a xlink:href="Pn532NfcTransport_8h.html" target="_top" xlink:title="CW_NfcTransport adapter wrapping the ESP&#45;IDF PN532 NFC driver.">
<polygon fill="white" stroke="#666666" points="226,-129 109,-129 109,-110 226,-110 226,-129"/>
<text text-anchor="middle" x="167.5" y="-117" font-family="Helvetica,sans-Serif" font-size="10.00">Pn532NfcTransport.h</text>
</a>
</g>
</g>
<!-- Node1&#45;&gt;Node2 -->
<g id="edge1_Node000001_Node000002" class="edge">
<title>Node1&#45;&gt;Node2</title>
<g id="a_edge1_Node000001_Node000002"><a xlink:title=" ">
<path fill="none" stroke="#63b8ff" d="M167.5,-164.84C167.5,-157.21 167.5,-147.7 167.5,-139.45"/>
<polygon fill="#63b8ff" stroke="#63b8ff" points="171,-139.27 167.5,-129.27 164,-139.27 171,-139.27"/>
</a>
</g>
</g>
<!-- Node3 -->
<g id="Node000003" class="node">
<title>Node3</title>
<g id="a_Node000003"><a xlink:title=" ">
<polygon fill="#e0e0e0" stroke="#999999" points="109,-74 0,-74 0,-55 109,-55 109,-74"/>
<text text-anchor="middle" x="54.5" y="-62" font-family="Helvetica,sans-Serif" font-size="10.00">CW_NfcTransport.h</text>
</a>
</g>
</g>
<!-- Node2&#45;&gt;Node3 -->
<g id="edge2_Node000002_Node000003" class="edge">
<title>Node2&#45;&gt;Node3</title>
<g id="a_edge2_Node000002_Node000003"><a xlink:title=" ">
<path fill="none" stroke="#63b8ff" d="M149.34,-109.98C131.25,-101.5 103.22,-88.35 82.31,-78.54"/>
<polygon fill="#63b8ff" stroke="#63b8ff" points="83.53,-75.25 72.99,-74.17 80.55,-81.59 83.53,-75.25"/>
</a>
</g>
</g>
<!-- Node4 -->
<g id="Node000004" class="node">
<title>Node4</title>
<g id="a_Node000004"><a xlink:title=" ">
<polygon fill="#e0e0e0" stroke="#999999" points="207.5,-74 127.5,-74 127.5,-55 207.5,-55 207.5,-74"/>
<text text-anchor="middle" x="167.5" y="-62" font-family="Helvetica,sans-Serif" font-size="10.00">CW_Logger.h</text>
</a>
</g>
</g>
<!-- Node2&#45;&gt;Node4 -->
<g id="edge3_Node000002_Node000004" class="edge">
<title>Node2&#45;&gt;Node4</title>
<g id="a_edge3_Node000002_Node000004"><a xlink:title=" ">
<path fill="none" stroke="#63b8ff" d="M167.5,-109.75C167.5,-102.8 167.5,-92.85 167.5,-84.13"/>
<polygon fill="#63b8ff" stroke="#63b8ff" points="171,-84.09 167.5,-74.09 164,-84.09 171,-84.09"/>
</a>
</g>
</g>
<!-- Node5 -->
<g id="Node000005" class="node">
<title>Node5</title>
<g id="a_Node000005"><a xlink:href="pn532_8h.html" target="_top" xlink:title="Low&#45;level PN532 NFC controller driver for ESP&#45;IDF (SPI and I²C).">
<polygon fill="white" stroke="#666666" points="281.5,-74 225.5,-74 225.5,-55 281.5,-55 281.5,-74"/>
<text text-anchor="middle" x="253.5" y="-62" font-family="Helvetica,sans-Serif" font-size="10.00">pn532.h</text>
</a>
</g>
</g>
<!-- Node2&#45;&gt;Node5 -->
<g id="edge4_Node000002_Node000005" class="edge">
<title>Node2&#45;&gt;Node5</title>
<g id="a_edge4_Node000002_Node000005"><a xlink:title=" ">
<path fill="none" stroke="#63b8ff" d="M181.32,-109.98C194.65,-101.77 215.08,-89.18 230.81,-79.49"/>
<polygon fill="#63b8ff" stroke="#63b8ff" points="232.75,-82.4 239.43,-74.17 229.08,-76.44 232.75,-82.4"/>
</a>
</g>
</g>
<!-- Node6 -->
<g id="Node000006" class="node">
<title>Node6</title>
<g id="a_Node000006"><a xlink:title=" ">
<polygon fill="#e0e0e0" stroke="#999999" points="152,-19 99,-19 99,0 152,0 152,-19"/>
<text text-anchor="middle" x="125.5" y="-7" font-family="Helvetica,sans-Serif" font-size="10.00">stdint.h</text>
</a>
</g>
</g>
<!-- Node5&#45;&gt;Node6 -->
<g id="edge5_Node000005_Node000006" class="edge">
<title>Node5&#45;&gt;Node6</title>
<g id="a_edge5_Node000005_Node000006"><a xlink:title=" ">
<path fill="none" stroke="#63b8ff" d="M232.93,-54.98C212.07,-46.34 179.53,-32.87 155.73,-23.02"/>
<polygon fill="#63b8ff" stroke="#63b8ff" points="157.02,-19.76 146.44,-19.17 154.34,-26.23 157.02,-19.76"/>
</a>
</g>
</g>
<!-- Node7 -->
<g id="Node000007" class="node">
<title>Node7</title>
<g id="a_Node000007"><a xlink:title=" ">
<polygon fill="#e0e0e0" stroke="#999999" points="232.5,-19 170.5,-19 170.5,0 232.5,0 232.5,-19"/>
<text text-anchor="middle" x="201.5" y="-7" font-family="Helvetica,sans-Serif" font-size="10.00">stdbool.h</text>
</a>
</g>
</g>
<!-- Node5&#45;&gt;Node7 -->
<g id="edge6_Node000005_Node000007" class="edge">
<title>Node5&#45;&gt;Node7</title>
<g id="a_edge6_Node000005_Node000007"><a xlink:title=" ">
<path fill="none" stroke="#63b8ff" d="M244.91,-54.75C237.34,-47.03 226.12,-35.6 216.99,-26.28"/>
<polygon fill="#63b8ff" stroke="#63b8ff" points="219.43,-23.78 209.93,-19.09 214.43,-28.68 219.43,-23.78"/>
</a>
</g>
</g>
<!-- Node8 -->
<g id="Node000008" class="node">
<title>Node8</title>
<g id="a_Node000008"><a xlink:title=" ">
<polygon fill="#e0e0e0" stroke="#999999" points="360.5,-19 250.5,-19 250.5,0 360.5,0 360.5,-19"/>
<text text-anchor="middle" x="305.5" y="-7" font-family="Helvetica,sans-Serif" font-size="10.00">driver/spi_master.h</text>
</a>
</g>
</g>
<!-- Node5&#45;&gt;Node8 -->
<g id="edge7_Node000005_Node000008" class="edge">
<title>Node5&#45;&gt;Node8</title>
<g id="a_edge7_Node000005_Node000008"><a xlink:title=" ">
<path fill="none" stroke="#63b8ff" d="M262.09,-54.75C269.66,-47.03 280.88,-35.6 290.01,-26.28"/>
<polygon fill="#63b8ff" stroke="#63b8ff" points="292.57,-28.68 297.07,-19.09 287.57,-23.78 292.57,-28.68"/>
</a>
</g>
</g>
<!-- Node9 -->
<g id="Node000009" class="node">
<title>Node9</title>
<g id="a_Node000009"><a xlink:title=" ">
<polygon fill="#e0e0e0" stroke="#999999" points="488.5,-19 378.5,-19 378.5,0 488.5,0 488.5,-19"/>
<text text-anchor="middle" x="433.5" y="-7" font-family="Helvetica,sans-Serif" font-size="10.00">driver/i2c_master.h</text>
</a>
</g>
</g>
<!-- Node5&#45;&gt;Node9 -->
<g id="edge8_Node000005_Node000009" class="edge">
<title>Node5&#45;&gt;Node9</title>
<g id="a_edge8_Node000005_Node000009"><a xlink:title=" ">
<path fill="none" stroke="#63b8ff" d="M281.62,-55.22C312.04,-46.26 360.74,-31.92 394.76,-21.91"/>
<polygon fill="#63b8ff" stroke="#63b8ff" points="395.78,-25.26 404.38,-19.07 393.8,-18.54 395.78,-25.26"/>
</a>
</g>
</g>
</g>
</svg>
