<?xml version="1.0" encoding="UTF-8" standalone="no"?>
<!DOCTYPE svg PUBLIC "-//W3C//DTD SVG 1.1//EN"
 "http://www.w3.org/Graphics/SVG/1.1/DTD/svg11.dtd">
<!-- Generated by graphviz version 2.43.0 (0)
 -->
<!-- Title: components/pn532/include/pn532.h Pages: 1 -->
<svg width="1064pt" height="181pt"
 viewBox="0.00 0.00 1064.00 181.00" xmlns="http://www.w3.org/2000/svg" xmlns:xlink="http://www.w3.org/1999/xlink">
<g id="graph0" class="graph" transform="scale(1 1) rotate(0) translate(4 177)">
<title>components/pn532/include/pn532.h</title>
<!-- Node1 -->
<g id="Node000001" class="node">
<title>Node1</title>
<g id="a_Node000001"><a xlink:title="Low&#45;level PN532 NFC controller driver for ESP&#45;IDF (SPI and I²C).">
<polygon fill="#999999" stroke="#666666" points="593,-173 445,-173 445,-143 593,-143 593,-173"/>
<text text-anchor="start" x="453" y="-161" font-family="Helvetica,sans-Serif" font-size="10.00">components/pn532/include</text>
<text text-anchor="middle" x="519" y="-150" font-family="Helvetica,sans-Serif" font-size="10.00">/pn532.h</text>
</a>
</g>
</g>
<!-- Node2 -->
<g id="Node000002" class="node">
<title>Node2</title>
<g id="a_Node000002"><a xlink:href="pn532_8c.html" target="_top" xlink:title=" ">
<polygon fill="white" stroke="#666666" points="230.5,-96 79.5,-96 79.5,-77 230.5,-77 230.5,-96"/>
<text text-anchor="middle" x="155" y="-84" font-family="Helvetica,sans-Serif" font-size="10.00">components/pn532/pn532.c</text>
</a>
</g>
</g>
<!-- Node1&#45;&gt;Node2 -->
<g id="edge1_Node000001_Node000002" class="edge">
<title>Node1&#45;&gt;Node2</title>
<g id="a_edge1_Node000001_Node000002"><a xlink:title=" ">
<path fill="none" stroke="#63b8ff" d="M434.67,-142.98C379.22,-133.49 305.13,-120.3 240,-107 223.68,-103.67 205.69,-99.6 190.48,-96.04"/>
<polygon fill="#63b8ff" stroke="#63b8ff" points="434.35,-146.47 444.8,-144.7 435.53,-139.57 434.35,-146.47"/>
</a>
</g>
</g>
<!-- Node3 -->
<g id="Node000003" class="node">
<title>Node3</title>
<g id="a_Node000003"><a xlink:href="pn532__adapter_8h.html" target="_top" xlink:title="Self&#45;contained CW_NfcTransport adapter that owns its pn532_t handle.">
<polygon fill="white" stroke="#666666" points="401,-101.5 249,-101.5 249,-71.5 401,-71.5 401,-101.5"/>
<text text-anchor="start" x="257" y="-89.5" font-family="Helvetica,sans-Serif" font-size="10.00">components/pn532_adapter</text>
<text text-anchor="middle" x="325" y="-78.5" font-family="Helvetica,sans-Serif" font-size="10.00">/include/pn532_adapter.h</text>
</a>
</g>
</g>
<!-- Node1&#45;&gt;Node3 -->
<g id="edge2_Node000001_Node000003" class="edge">
<title>Node1&#45;&gt;Node3</title>
<g id="a_edge2_Node000001_Node000003"><a xlink:title=" ">
<path fill="none" stroke="#63b8ff" d="M469.91,-139.42C437.17,-127.68 394.69,-112.47 364.2,-101.54"/>
<polygon fill="#63b8ff" stroke="#63b8ff" points="469.15,-142.86 479.74,-142.94 471.51,-136.27 469.15,-142.86"/>
</a>
</g>
</g>
<!-- Node5 -->
<g id="Node000005" class="node">
<title>Node5</title>
<g id="a_Node000005"><a xlink:href="Pn532NfcTransport_8h.html" target="_top" xlink:title="CW_NfcTransport adapter wrapping the ESP&#45;IDF PN532 NFC driver.">
<polygon fill="white" stroke="#666666" points="649,-107 495,-107 495,-66 649,-66 649,-107"/>
<text text-anchor="start" x="503" y="-95" font-family="Helvetica,sans-Serif" font-size="10.00">components/pn532_nfc</text>
<text text-anchor="start" x="503" y="-84" font-family="Helvetica,sans-Serif" font-size="10.00">_transport/include/Pn532Nfc</text>
<text text-anchor="middle" x="572" y="-73" font-family="Helvetica,sans-Serif" font-size="10.00">Transport.h</text>
</a>
</g>
</g>
<!-- Node1&#45;&gt;Node5 -->
<g id="edge4_Node000001_Node000005" class="edge">
<title>Node1&#45;&gt;Node5</title>
<g id="a_edge4_Node000001_Node000005"><a xlink:title=" ">
<path fill="none" stroke="#63b8ff" d="M535.88,-134.86C542.69,-125.94 550.48,-115.72 557.07,-107.07"/>
<polygon fill="#63b8ff" stroke="#63b8ff" points="533.01,-132.86 529.73,-142.94 538.57,-137.11 533.01,-132.86"/>
</a>
</g>
</g>
<!-- Node7 -->
<g id="Node000007" class="node">
<title>Node7</title>
<g id="a_Node000007"><a xlink:href="BasicUsage_2main_2main_8cpp.html" target="_top" xlink:title=" ">
<polygon fill="white" stroke="#666666" points="295.5,-30 170.5,-30 170.5,0 295.5,0 295.5,-30"/>
<text text-anchor="start" x="178.5" y="-18" font-family="Helvetica,sans-Serif" font-size="10.00">examples/BasicUsage</text>
<text text-anchor="middle" x="233" y="-7" font-family="Helvetica,sans-Serif" font-size="10.00">/main/main.cpp</text>
</a>
</g>
</g>
<!-- Node1&#45;&gt;Node7 -->
<g id="edge11_Node000001_Node000007" class="edge">
<title>Node1&#45;&gt;Node7</title>
<g id="a_edge11_Node000001_Node000007"><a xlink:title=" ">
<path fill="none" stroke="#63b8ff" d="M484.62,-137.56C470.97,-129.05 455.56,-118.41 443,-107 425.69,-91.27 429.51,-78.9 410,-66 391.09,-53.5 338.7,-39.48 295.79,-29.48"/>
<polygon fill="#63b8ff" stroke="#63b8ff" points="482.93,-140.63 493.29,-142.83 486.56,-134.65 482.93,-140.63"/>
</a>
</g>
</g>
<!-- Node8 -->
<g id="Node000008" class="node">
<title>Node8</title>
<g id="a_Node000008"><a xlink:href="Connect_2main_2main_8cpp.html" target="_top" xlink:title=" ">
<polygon fill="white" stroke="#666666" points="448.5,-30 313.5,-30 313.5,0 448.5,0 448.5,-30"/>
<text text-anchor="start" x="321.5" y="-18" font-family="Helvetica,sans-Serif" font-size="10.00">examples/Connect/main</text>
<text text-anchor="middle" x="381" y="-7" font-family="Helvetica,sans-Serif" font-size="10.00">/main.cpp</text>
</a>
</g>
</g>
<!-- Node1&#45;&gt;Node8 -->
<g id="edge12_Node000001_Node000008" class="edge">
<title>Node1&#45;&gt;Node8</title>
<g id="a_edge12_Node000001_Node000008"><a xlink:title=" ">
<path fill="none" stroke="#63b8ff" d="M502.29,-134.59C487.59,-115.49 465.15,-87.77 443,-66 429.69,-52.91 413.17,-39.72 400.54,-30.18"/>
<polygon fill="#63b8ff" stroke="#63b8ff" points="499.62,-136.86 508.46,-142.7 505.19,-132.62 499.62,-136.86"/>
</a>
</g>
</g>
<!-- Node9 -->
<g id="Node000009" class="node">
<title>Node9</title>
<g id="a_Node000009"><a xlink:href="Sign_2main_2main_8cpp.html" target="_top" xlink:title=" ">
<polygon fill="white" stroke="#666666" points="782,-30 666,-30 666,0 782,0 782,-30"/>
<text text-anchor="start" x="674" y="-18" font-family="Helvetica,sans-Serif" font-size="10.00">examples/Sign/main</text>
<text text-anchor="middle" x="724" y="-7" font-family="Helvetica,sans-Serif" font-size="10.00">/main.cpp</text>
</a>
</g>
</g>
<!-- Node1&#45;&gt;Node9 -->
<g id="edge13_Node000001_Node000009" class="edge">
<title>Node1&#45;&gt;Node9</title>
<g id="a_edge13_Node000001_Node000009"><a xlink:title=" ">
<path fill="none" stroke="#63b8ff" d="M591.71,-139.9C614.39,-132.28 638.53,-121.62 658,-107 685.93,-86.02 707.07,-49.89 717.26,-30.05"/>
<polygon fill="#63b8ff" stroke="#63b8ff" points="590.56,-136.59 582.1,-142.98 592.69,-143.26 590.56,-136.59"/>
</a>
</g>
</g>
<!-- Node10 -->
<g id="Node000010" class="node">
<title>Node10</title>
<g id="a_Node000010"><a xlink:href="UsdcSigning_2main_2main_8cpp.html" target="_top" xlink:title=" ">
<polygon fill="white" stroke="#666666" points="928,-30 800,-30 800,0 928,0 928,-30"/>
<text text-anchor="start" x="808" y="-18" font-family="Helvetica,sans-Serif" font-size="10.00">examples/UsdcSigning</text>
<text text-anchor="middle" x="864" y="-7" font-family="Helvetica,sans-Serif" font-size="10.00">/main/main.cpp</text>
</a>
</g>
</g>
<!-- Node1&#45;&gt;Node10 -->
<g id="edge14_Node000001_Node000010" class="edge">
<title>Node1&#45;&gt;Node10</title>
<g id="a_edge14_Node000001_Node000010"><a xlink:title=" ">
<path fill="none" stroke="#63b8ff" d="M587.8,-140.41C619.7,-131.85 657.81,-120.39 691,-107 746.86,-84.46 808.43,-49.43 840.93,-30.06"/>
<polygon fill="#63b8ff" stroke="#63b8ff" points="586.88,-137.03 578.11,-142.97 588.67,-143.79 586.88,-137.03"/>
</a>
</g>
</g>
<!-- Node11 -->
<g id="Node000011" class="node">
<title>Node11</title>
<g id="a_Node000011"><a xlink:href="VerifyPin_2main_2main_8cpp.html" target="_top" xlink:title=" ">
<polygon fill="white" stroke="#666666" points="1056,-30 946,-30 946,0 1056,0 1056,-30"/>
<text text-anchor="start" x="954" y="-18" font-family="Helvetica,sans-Serif" font-size="10.00">examples/VerifyPin</text>
<text text-anchor="middle" x="1001" y="-7" font-family="Helvetica,sans-Serif" font-size="10.00">/main/main.cpp</text>
</a>
</g>
</g>
<!-- Node1&#45;&gt;Node11 -->
<g id="edge15_Node000001_Node000011" class="edge">
<title>Node1&#45;&gt;Node11</title>
<g id="a_edge15_Node000001_Node000011"><a xlink:title=" ">
<path fill="none" stroke="#63b8ff" d="M602.95,-141.27C646.3,-132.47 699.85,-120.56 747,-107 826.68,-84.09 917.6,-49.36 966.13,-30.1"/>
<polygon fill="#63b8ff" stroke="#63b8ff" points="602.13,-137.86 593.02,-143.27 603.51,-144.73 602.13,-137.86"/>
</a>
</g>
</g>
<!-- Node4 -->
<g id="Node000004" class="node">
<title>Node4</title>
<g id="a_Node000004"><a xlink:href="pn532__adapter_8cpp.html" target="_top" xlink:title="Implementation of PN532Adapter — self&#45;contained PN532 NFC transport.">
<polygon fill="white" stroke="#666666" points="152,-30 0,-30 0,0 152,0 152,-30"/>
<text text-anchor="start" x="8" y="-18" font-family="Helvetica,sans-Serif" font-size="10.00">components/pn532_adapter</text>
<text text-anchor="middle" x="76" y="-7" font-family="Helvetica,sans-Serif" font-size="10.00">/pn532_adapter.cpp</text>
</a>
</g>
</g>
<!-- Node3&#45;&gt;Node4 -->
<g id="edge3_Node000003_Node000004" class="edge">
<title>Node3&#45;&gt;Node4</title>
<g id="a_edge3_Node000003_Node000004"><a xlink:title=" ">
<path fill="none" stroke="#63b8ff" d="M264.97,-68.74C222.56,-56.91 166.37,-41.22 126.31,-30.04"/>
<polygon fill="#63b8ff" stroke="#63b8ff" points="264.04,-72.12 274.61,-71.44 265.92,-65.38 264.04,-72.12"/>
</a>
</g>
</g>
<!-- Node6 -->
<g id="Node000006" class="node">
<title>Node6</title>
<g id="a_Node000006"><a xlink:href="Pn532NfcTransport_8cpp.html" target="_top" xlink:title="Implementation of Pn532NfcTransport — ESP&#45;IDF PN532 NFC transport.">
<polygon fill="white" stroke="#666666" points="647.5,-30 466.5,-30 466.5,0 647.5,0 647.5,-30"/>
<text text-anchor="start" x="474.5" y="-18" font-family="Helvetica,sans-Serif" font-size="10.00">components/pn532_nfc</text>
<text text-anchor="middle" x="557" y="-7" font-family="Helvetica,sans-Serif" font-size="10.00">_transport/Pn532NfcTransport.cpp</text>
</a>
</g>
</g>
<!-- Node5&#45;&gt;Node6 -->
<g id="edge5_Node000005_Node000006" class="edge">
<title>Node5&#45;&gt;Node6</title>
<g id="a_edge5_Node000005_Node000006"><a xlink:title=" ">
<path fill="none" stroke="#63b8ff" d="M565.62,-55.95C563.68,-46.96 561.64,-37.5 560.03,-30.04"/>
<polygon fill="#63b8ff" stroke="#63b8ff" points="562.21,-56.73 567.74,-65.77 569.05,-55.26 562.21,-56.73"/>
</a>
</g>
</g>
<!-- Node5&#45;&gt;Node7 -->
<g id="edge6_Node000005_Node000007" class="edge">
<title>Node5&#45;&gt;Node7</title>
<g id="a_edge6_Node000005_Node000007"><a xlink:title=" ">
<path fill="none" stroke="#63b8ff" d="M484.57,-67.58C425.41,-55.45 348.66,-39.71 295.57,-28.83"/>
<polygon fill="#63b8ff" stroke="#63b8ff" points="484.15,-71.06 494.65,-69.64 485.56,-64.21 484.15,-71.06"/>
</a>
</g>
</g>
<!-- Node5&#45;&gt;Node8 -->
<g id="edge7_Node000005_Node000008" class="edge">
<title>Node5&#45;&gt;Node8</title>
<g id="a_edge7_Node000005_Node000008"><a xlink:title=" ">
<path fill="none" stroke="#63b8ff" d="M508.88,-62.53C479.33,-51.78 445.09,-39.32 419.49,-30"/>
<polygon fill="#63b8ff" stroke="#63b8ff" points="507.69,-65.82 518.29,-65.96 510.09,-59.25 507.69,-65.82"/>
</a>
</g>
</g>
<!-- Node5&#45;&gt;Node9 -->
<g id="edge8_Node000005_Node000009" class="edge">
<title>Node5&#45;&gt;Node9</title>
<g id="a_edge8_Node000005_Node000009"><a xlink:title=" ">
<path fill="none" stroke="#63b8ff" d="M624.04,-61.71C647.04,-51.19 673.3,-39.18 693.13,-30.11"/>
<polygon fill="#63b8ff" stroke="#63b8ff" points="622.38,-58.61 614.74,-65.96 625.29,-64.98 622.38,-58.61"/>
</a>
</g>
</g>
<!-- Node5&#45;&gt;Node10 -->
<g id="edge9_Node000005_Node000010" class="edge">
<title>Node5&#45;&gt;Node10</title>
<g id="a_edge9_Node000005_Node000010"><a xlink:title=" ">
<path fill="none" stroke="#63b8ff" d="M659,-64.79C706.11,-53.58 763.09,-40.02 805,-30.04"/>
<polygon fill="#63b8ff" stroke="#63b8ff" points="658.02,-61.43 649.1,-67.15 659.64,-68.24 658.02,-61.43"/>
</a>
</g>
</g>
<!-- Node5&#45;&gt;Node11 -->
<g id="edge10_Node000005_Node000011" class="edge">
<title>Node5&#45;&gt;Node11</title>
<g id="a_edge10_Node000005_Node000011"><a xlink:title=" ">
<path fill="none" stroke="#63b8ff" d="M659.37,-73.83C733.48,-63.54 842.5,-47.5 937,-30 939.91,-29.46 942.89,-28.89 945.89,-28.29"/>
<polygon fill="#63b8ff" stroke="#63b8ff" points="658.57,-70.4 649.15,-75.24 659.53,-77.34 658.57,-70.4"/>
</a>
</g>
</g>
</g>
</svg>
