<?xml version="1.0" encoding="UTF-8" standalone="no"?>
<!DOCTYPE svg PUBLIC "-//W3C//DTD SVG 1.1//EN"
 "http://www.w3.org/Graphics/SVG/1.1/DTD/svg11.dtd">
<!-- Generated by graphviz version 2.43.0 (0)
 -->
<!-- Title: components/pn532/include/pn532.h Pages: 1 -->
<svg width="922pt" height="181pt"
 viewBox="0.00 0.00 922.00 181.00" xmlns="http://www.w3.org/2000/svg" xmlns:xlink="http://www.w3.org/1999/xlink">
<g id="graph0" class="graph" transform="scale(1 1) rotate(0) translate(4 177)">
<title>components/pn532/include/pn532.h</title>
<!-- Node1 -->
<g id="Node000001" class="node">
<title>Node1</title>
<g id="a_Node000001"><a xlink:title="Low&#45;level PN532 NFC controller driver for ESP&#45;IDF (SPI and I²C).">
<polygon fill="#999999" stroke="#666666" points="471,-173 323,-173 323,-143 471,-143 471,-173"/>
<text text-anchor="start" x="331" y="-161" font-family="Helvetica,sans-Serif" font-size="10.00">components/pn532/include</text>
<text text-anchor="middle" x="397" y="-150" font-family="Helvetica,sans-Serif" font-size="10.00">/pn532.h</text>
</a>
</g>
</g>
<!-- Node2 -->
<g id="Node000002" class="node">
<title>Node2</title>
<g id="a_Node000002"><a xlink:href="pn532_8c.html" target="_top" xlink:title=" ">
<polygon fill="white" stroke="#666666" points="160.5,-96 9.5,-96 9.5,-77 160.5,-77 160.5,-96"/>
<text text-anchor="middle" x="85" y="-84" font-family="Helvetica,sans-Serif" font-size="10.00">components/pn532/pn532.c</text>
</a>
</g>
</g>
<!-- Node1&#45;&gt;Node2 -->
<g id="edge1_Node000001_Node000002" class="edge">
<title>Node1&#45;&gt;Node2</title>
<g id="a_edge1_Node000001_Node000002"><a xlink:title=" ">
<path fill="none" stroke="#63b8ff" d="M322.56,-140.78C278.23,-131.07 220.88,-118.44 170,-107 154.19,-103.45 136.75,-99.46 121.8,-96.02"/>
<polygon fill="#63b8ff" stroke="#63b8ff" points="321.87,-144.21 332.39,-142.93 323.37,-137.37 321.87,-144.21"/>
</a>
</g>
</g>
<!-- Node3 -->
<g id="Node000003" class="node">
<title>Node3</title>
<g id="a_Node000003"><a xlink:href="pn532__adapter_8h.html" target="_top" xlink:title="Self&#45;contained CW_NfcTransport adapter that owns its pn532_t handle.">
<polygon fill="white" stroke="#666666" points="331,-101.5 179,-101.5 179,-71.5 331,-71.5 331,-101.5"/>
<text text-anchor="start" x="187" y="-89.5" font-family="Helvetica,sans-Serif" font-size="10.00">components/pn532_adapter</text>
<text text-anchor="middle" x="255" y="-78.5" font-family="Helvetica,sans-Serif" font-size="10.00">/include/pn532_adapter.h</text>
</a>
</g>
</g>
<!-- Node1&#45;&gt;Node3 -->
<g id="edge2_Node000001_Node000003" class="edge">
<title>Node1&#45;&gt;Node3</title>
<g id="a_edge2_Node000001_Node000003"><a xlink:title=" ">
<path fill="none" stroke="#63b8ff" d="M359.2,-138.5C335.5,-126.9 305.43,-112.18 283.69,-101.54"/>
<polygon fill="#63b8ff" stroke="#63b8ff" points="357.74,-141.68 368.26,-142.94 360.82,-135.4 357.74,-141.68"/>
</a>
</g>
</g>
<!-- Node5 -->
<g id="Node000005" class="node">
<title>Node5</title>
<g id="a_Node000005"><a xlink:href="Pn532NfcTransport_8h.html" target="_top" xlink:title="CW_NfcTransport adapter wrapping the ESP&#45;IDF PN532 NFC driver.">
<polygon fill="white" stroke="#666666" points="610,-107 456,-107 456,-66 610,-66 610,-107"/>
<text text-anchor="start" x="464" y="-95" font-family="Helvetica,sans-Serif" font-size="10.00">components/pn532_nfc</text>
<text text-anchor="start" x="464" y="-84" font-family="Helvetica,sans-Serif" font-size="10.00">_transport/include/Pn532Nfc</text>
<text text-anchor="middle" x="533" y="-73" font-family="Helvetica,sans-Serif" font-size="10.00">Transport.h</text>
</a>
</g>
</g>
<!-- Node1&#45;&gt;Node5 -->
<g id="edge4_Node000001_Node000005" class="edge">
<title>Node1&#45;&gt;Node5</title>
<g id="a_edge4_Node000001_Node000005"><a xlink:title=" ">
<path fill="none" stroke="#63b8ff" d="M433.44,-138.38C452.38,-128.7 475.5,-116.88 494.7,-107.07"/>
<polygon fill="#63b8ff" stroke="#63b8ff" points="431.83,-135.27 424.52,-142.94 435.02,-141.5 431.83,-135.27"/>
</a>
</g>
</g>
<!-- Node7 -->
<g id="Node000007" class="node">
<title>Node7</title>
<g id="a_Node000007"><a xlink:href="Connect_2main_2main_8cpp.html" target="_top" xlink:title=" ">
<polygon fill="white" stroke="#666666" points="305.5,-30 170.5,-30 170.5,0 305.5,0 305.5,-30"/>
<text text-anchor="start" x="178.5" y="-18" font-family="Helvetica,sans-Serif" font-size="10.00">examples/Connect/main</text>
<text text-anchor="middle" x="238" y="-7" font-family="Helvetica,sans-Serif" font-size="10.00">/main.cpp</text>
</a>
</g>
</g>
<!-- Node1&#45;&gt;Node7 -->
<g id="edge10_Node000001_Node000007" class="edge">
<title>Node1&#45;&gt;Node7</title>
<g id="a_edge10_Node000001_Node000007"><a xlink:title=" ">
<path fill="none" stroke="#63b8ff" d="M386.9,-133.65C377.26,-113.6 361.09,-85 340,-66 322.49,-50.22 299.11,-38.28 279.14,-30.03"/>
<polygon fill="#63b8ff" stroke="#63b8ff" points="383.84,-135.38 391.21,-142.99 390.2,-132.45 383.84,-135.38"/>
</a>
</g>
</g>
<!-- Node8 -->
<g id="Node000008" class="node">
<title>Node8</title>
<g id="a_Node000008"><a xlink:href="Sign_2main_2main_8cpp.html" target="_top" xlink:title=" ">
<polygon fill="white" stroke="#666666" points="440,-30 324,-30 324,0 440,0 440,-30"/>
<text text-anchor="start" x="332" y="-18" font-family="Helvetica,sans-Serif" font-size="10.00">examples/Sign/main</text>
<text text-anchor="middle" x="382" y="-7" font-family="Helvetica,sans-Serif" font-size="10.00">/main.cpp</text>
</a>
</g>
</g>
<!-- Node1&#45;&gt;Node8 -->
<g id="edge11_Node000001_Node000008" class="edge">
<title>Node1&#45;&gt;Node8</title>
<g id="a_edge11_Node000001_Node000008"><a xlink:title=" ">
<path fill="none" stroke="#63b8ff" d="M394.42,-132.7C391.28,-103.22 386.09,-54.49 383.53,-30.4"/>
<polygon fill="#63b8ff" stroke="#63b8ff" points="390.97,-133.39 395.51,-142.96 397.93,-132.65 390.97,-133.39"/>
</a>
</g>
</g>
<!-- Node9 -->
<g id="Node000009" class="node">
<title>Node9</title>
<g id="a_Node000009"><a xlink:href="UsdcSigning_2main_2main_8cpp.html" target="_top" xlink:title=" ">
<polygon fill="white" stroke="#666666" points="786,-30 658,-30 658,0 786,0 786,-30"/>
<text text-anchor="start" x="666" y="-18" font-family="Helvetica,sans-Serif" font-size="10.00">examples/UsdcSigning</text>
<text text-anchor="middle" x="722" y="-7" font-family="Helvetica,sans-Serif" font-size="10.00">/main/main.cpp</text>
</a>
</g>
</g>
<!-- Node1&#45;&gt;Node9 -->
<g id="edge12_Node000001_Node000009" class="edge">
<title>Node1&#45;&gt;Node9</title>
<g id="a_edge12_Node000001_Node000009"><a xlink:title=" ">
<path fill="none" stroke="#63b8ff" d="M481.29,-148.15C524.27,-141.18 576.34,-128.81 619,-107 657.24,-87.45 692.63,-50.4 710.27,-30.13"/>
<polygon fill="#63b8ff" stroke="#63b8ff" points="480.48,-144.74 471.14,-149.73 481.56,-151.65 480.48,-144.74"/>
</a>
</g>
</g>
<!-- Node10 -->
<g id="Node000010" class="node">
<title>Node10</title>
<g id="a_Node000010"><a xlink:href="VerifyPin_2main_2main_8cpp.html" target="_top" xlink:title=" ">
<polygon fill="white" stroke="#666666" points="914,-30 804,-30 804,0 914,0 914,-30"/>
<text text-anchor="start" x="812" y="-18" font-family="Helvetica,sans-Serif" font-size="10.00">examples/VerifyPin</text>
<text text-anchor="middle" x="859" y="-7" font-family="Helvetica,sans-Serif" font-size="10.00">/main/main.cpp</text>
</a>
</g>
</g>
<!-- Node1&#45;&gt;Node10 -->
<g id="edge13_Node000001_Node000010" class="edge">
<title>Node1&#45;&gt;Node10</title>
<g id="a_edge13_Node000001_Node000010"><a xlink:title=" ">
<path fill="none" stroke="#63b8ff" d="M480.98,-146.43C533.5,-138.52 602.13,-125.79 661,-107 725.51,-86.41 796.61,-50.12 833.55,-30.16"/>
<polygon fill="#63b8ff" stroke="#63b8ff" points="480.41,-142.98 471.03,-147.9 481.43,-149.9 480.41,-142.98"/>
</a>
</g>
</g>
<!-- Node4 -->
<g id="Node000004" class="node">
<title>Node4</title>
<g id="a_Node000004"><a xlink:href="pn532__adapter_8cpp.html" target="_top" xlink:title="Implementation of PN532Adapter — self&#45;contained PN532 NFC transport.">
<polygon fill="white" stroke="#666666" points="152,-30 0,-30 0,0 152,0 152,-30"/>
<text text-anchor="start" x="8" y="-18" font-family="Helvetica,sans-Serif" font-size="10.00">components/pn532_adapter</text>
<text text-anchor="middle" x="76" y="-7" font-family="Helvetica,sans-Serif" font-size="10.00">/pn532_adapter.cpp</text>
</a>
</g>
</g>
<!-- Node3&#45;&gt;Node4 -->
<g id="edge3_Node000003_Node000004" class="edge">
<title>Node3&#45;&gt;Node4</title>
<g id="a_edge3_Node000003_Node000004"><a xlink:title=" ">
<path fill="none" stroke="#63b8ff" d="M209.32,-67.76C179.16,-56.05 140.18,-40.92 112.17,-30.04"/>
<polygon fill="#63b8ff" stroke="#63b8ff" points="208.19,-71.08 218.78,-71.44 210.72,-64.55 208.19,-71.08"/>
</a>
</g>
</g>
<!-- Node6 -->
<g id="Node000006" class="node">
<title>Node6</title>
<g id="a_Node000006"><a xlink:href="Pn532NfcTransport_8cpp.html" target="_top" xlink:title="Implementation of Pn532NfcTransport — ESP&#45;IDF PN532 NFC transport.">
<polygon fill="white" stroke="#666666" points="639.5,-30 458.5,-30 458.5,0 639.5,0 639.5,-30"/>
<text text-anchor="start" x="466.5" y="-18" font-family="Helvetica,sans-Serif" font-size="10.00">components/pn532_nfc</text>
<text text-anchor="middle" x="549" y="-7" font-family="Helvetica,sans-Serif" font-size="10.00">_transport/Pn532NfcTransport.cpp</text>
</a>
</g>
</g>
<!-- Node5&#45;&gt;Node6 -->
<g id="edge5_Node000005_Node000006" class="edge">
<title>Node5&#45;&gt;Node6</title>
<g id="a_edge5_Node000005_Node000006"><a xlink:title=" ">
<path fill="none" stroke="#63b8ff" d="M539.8,-55.95C541.87,-46.96 544.05,-37.5 545.77,-30.04"/>
<polygon fill="#63b8ff" stroke="#63b8ff" points="536.37,-55.24 537.54,-65.77 543.2,-56.81 536.37,-55.24"/>
</a>
</g>
</g>
<!-- Node5&#45;&gt;Node7 -->
<g id="edge6_Node000005_Node000007" class="edge">
<title>Node5&#45;&gt;Node7</title>
<g id="a_edge6_Node000005_Node000007"><a xlink:title=" ">
<path fill="none" stroke="#63b8ff" d="M446.14,-65.04C398.28,-53.76 340.11,-40.06 297.44,-30"/>
<polygon fill="#63b8ff" stroke="#63b8ff" points="445.34,-68.44 455.88,-67.33 446.95,-61.63 445.34,-68.44"/>
</a>
</g>
</g>
<!-- Node5&#45;&gt;Node8 -->
<g id="edge7_Node000005_Node000008" class="edge">
<title>Node5&#45;&gt;Node8</title>
<g id="a_edge7_Node000005_Node000008"><a xlink:title=" ">
<path fill="none" stroke="#63b8ff" d="M481.3,-61.71C458.45,-51.19 432.36,-39.18 412.66,-30.11"/>
<polygon fill="#63b8ff" stroke="#63b8ff" points="479.99,-64.95 490.54,-65.96 482.92,-58.59 479.99,-64.95"/>
</a>
</g>
</g>
<!-- Node5&#45;&gt;Node9 -->
<g id="edge8_Node000005_Node000009" class="edge">
<title>Node5&#45;&gt;Node9</title>
<g id="a_edge8_Node000005_Node000009"><a xlink:title=" ">
<path fill="none" stroke="#63b8ff" d="M595.84,-62.39C624.99,-51.67 658.69,-39.28 683.92,-30"/>
<polygon fill="#63b8ff" stroke="#63b8ff" points="594.33,-59.22 586.15,-65.96 596.74,-65.79 594.33,-59.22"/>
</a>
</g>
</g>
<!-- Node5&#45;&gt;Node10 -->
<g id="edge9_Node000005_Node000010" class="edge">
<title>Node5&#45;&gt;Node10</title>
<g id="a_edge9_Node000005_Node000010"><a xlink:title=" ">
<path fill="none" stroke="#63b8ff" d="M620.12,-67.2C671.11,-56.44 736.73,-42.55 795,-30 797.89,-29.38 800.85,-28.74 803.85,-28.09"/>
<polygon fill="#63b8ff" stroke="#63b8ff" points="619.19,-63.82 610.13,-69.3 620.63,-70.66 619.19,-63.82"/>
</a>
</g>
</g>
</g>
</svg>
