<?xml version="1.0" encoding="UTF-8" standalone="no"?>
<!DOCTYPE svg PUBLIC "-//W3C//DTD SVG 1.1//EN"
 "http://www.w3.org/Graphics/SVG/1.1/DTD/svg11.dtd">
<!-- Generated by graphviz version 2.43.0 (0)
 -->
<!-- Title: components/pn532_nfc_transport/include/Pn532NfcTransport.h Pages: 1 -->
<svg width="894pt" height="115pt"
 viewBox="0.00 0.00 893.50 115.00" xmlns="http://www.w3.org/2000/svg" xmlns:xlink="http://www.w3.org/1999/xlink">
<g id="graph0" class="graph" transform="scale(1 1) rotate(0) translate(4 111)">
<title>components/pn532_nfc_transport/include/Pn532NfcTransport.h</title>
<!-- Node1 -->
<g id="Node000001" class="node">
<title>Node1</title>
<g id="a_Node000001"><a xlink:title="CW_NfcTransport adapter wrapping the ESP&#45;IDF PN532 NFC driver.">
<polygon fill="#999999" stroke="#666666" points="558.5,-107 404.5,-107 404.5,-66 558.5,-66 558.5,-107"/>
<text text-anchor="start" x="412.5" y="-95" font-family="Helvetica,sans-Serif" font-size="10.00">components/pn532_nfc</text>
<text text-anchor="start" x="412.5" y="-84" font-family="Helvetica,sans-Serif" font-size="10.00">_transport/include/Pn532Nfc</text>
<text text-anchor="middle" x="481.5" y="-73" font-family="Helvetica,sans-Serif" font-size="10.00">Transport.h</text>
</a>
</g>
</g>
<!-- Node2 -->
<g id="Node000002" class="node">
<title>Node2</title>
<g id="a_Node000002"><a xlink:href="Pn532NfcTransport_8cpp.html" target="_top" xlink:title="Implementation of Pn532NfcTransport — ESP&#45;IDF PN532 NFC transport.">
<polygon fill="white" stroke="#666666" points="181,-30 0,-30 0,0 181,0 181,-30"/>
<text text-anchor="start" x="8" y="-18" font-family="Helvetica,sans-Serif" font-size="10.00">components/pn532_nfc</text>
<text text-anchor="middle" x="90.5" y="-7" font-family="Helvetica,sans-Serif" font-size="10.00">_transport/Pn532NfcTransport.cpp</text>
</a>
</g>
</g>
<!-- Node1&#45;&gt;Node2 -->
<g id="edge1_Node000001_Node000002" class="edge">
<title>Node1&#45;&gt;Node2</title>
<g id="a_edge1_Node000001_Node000002"><a xlink:title=" ">
<path fill="none" stroke="#63b8ff" d="M394.08,-69.96C326.71,-57.99 234.36,-41.57 169.26,-30"/>
<polygon fill="#63b8ff" stroke="#63b8ff" points="393.79,-73.46 404.25,-71.77 395.02,-66.57 393.79,-73.46"/>
</a>
</g>
</g>
<!-- Node3 -->
<g id="Node000003" class="node">
<title>Node3</title>
<g id="a_Node000003"><a xlink:href="BasicUsage_2main_2main_8cpp.html" target="_top" xlink:title=" ">
<polygon fill="white" stroke="#666666" points="324,-30 199,-30 199,0 324,0 324,-30"/>
<text text-anchor="start" x="207" y="-18" font-family="Helvetica,sans-Serif" font-size="10.00">examples/BasicUsage</text>
<text text-anchor="middle" x="261.5" y="-7" font-family="Helvetica,sans-Serif" font-size="10.00">/main/main.cpp</text>
</a>
</g>
</g>
<!-- Node1&#45;&gt;Node3 -->
<g id="edge2_Node000001_Node000003" class="edge">
<title>Node1&#45;&gt;Node3</title>
<g id="a_edge2_Node000001_Node000003"><a xlink:title=" ">
<path fill="none" stroke="#63b8ff" d="M409.67,-62.81C375.44,-52 335.58,-39.4 305.83,-30"/>
<polygon fill="#63b8ff" stroke="#63b8ff" points="409.04,-66.28 419.63,-65.96 411.15,-59.61 409.04,-66.28"/>
</a>
</g>
</g>
<!-- Node4 -->
<g id="Node000004" class="node">
<title>Node4</title>
<g id="a_Node000004"><a xlink:href="Connect_2main_2main_8cpp.html" target="_top" xlink:title=" ">
<polygon fill="white" stroke="#666666" points="477,-30 342,-30 342,0 477,0 477,-30"/>
<text text-anchor="start" x="350" y="-18" font-family="Helvetica,sans-Serif" font-size="10.00">examples/Connect/main</text>
<text text-anchor="middle" x="409.5" y="-7" font-family="Helvetica,sans-Serif" font-size="10.00">/main.cpp</text>
</a>
</g>
</g>
<!-- Node1&#45;&gt;Node4 -->
<g id="edge3_Node000001_Node000004" class="edge">
<title>Node1&#45;&gt;Node4</title>
<g id="a_edge3_Node000001_Node000004"><a xlink:title=" ">
<path fill="none" stroke="#63b8ff" d="M453.58,-58.55C443.5,-48.81 432.52,-38.22 424.04,-30.04"/>
<polygon fill="#63b8ff" stroke="#63b8ff" points="451.43,-61.34 461.06,-65.77 456.3,-56.31 451.43,-61.34"/>
</a>
</g>
</g>
<!-- Node5 -->
<g id="Node000005" class="node">
<title>Node5</title>
<g id="a_Node000005"><a xlink:href="Sign_2main_2main_8cpp.html" target="_top" xlink:title=" ">
<polygon fill="white" stroke="#666666" points="611.5,-30 495.5,-30 495.5,0 611.5,0 611.5,-30"/>
<text text-anchor="start" x="503.5" y="-18" font-family="Helvetica,sans-Serif" font-size="10.00">examples/Sign/main</text>
<text text-anchor="middle" x="553.5" y="-7" font-family="Helvetica,sans-Serif" font-size="10.00">/main.cpp</text>
</a>
</g>
</g>
<!-- Node1&#45;&gt;Node5 -->
<g id="edge4_Node000001_Node000005" class="edge">
<title>Node1&#45;&gt;Node5</title>
<g id="a_edge4_Node000001_Node000005"><a xlink:title=" ">
<path fill="none" stroke="#63b8ff" d="M509.42,-58.55C519.5,-48.81 530.48,-38.22 538.96,-30.04"/>
<polygon fill="#63b8ff" stroke="#63b8ff" points="506.7,-56.31 501.94,-65.77 511.57,-61.34 506.7,-56.31"/>
</a>
</g>
</g>
<!-- Node6 -->
<g id="Node000006" class="node">
<title>Node6</title>
<g id="a_Node000006"><a xlink:href="UsdcSigning_2main_2main_8cpp.html" target="_top" xlink:title=" ">
<polygon fill="white" stroke="#666666" points="757.5,-30 629.5,-30 629.5,0 757.5,0 757.5,-30"/>
<text text-anchor="start" x="637.5" y="-18" font-family="Helvetica,sans-Serif" font-size="10.00">examples/UsdcSigning</text>
<text text-anchor="middle" x="693.5" y="-7" font-family="Helvetica,sans-Serif" font-size="10.00">/main/main.cpp</text>
</a>
</g>
</g>
<!-- Node1&#45;&gt;Node6 -->
<g id="edge5_Node000001_Node000006" class="edge">
<title>Node1&#45;&gt;Node6</title>
<g id="a_edge5_Node000001_Node000006"><a xlink:title=" ">
<path fill="none" stroke="#63b8ff" d="M550.71,-62.81C583.7,-52 622.11,-39.4 650.78,-30"/>
<polygon fill="#63b8ff" stroke="#63b8ff" points="549.53,-59.51 541.12,-65.96 551.71,-66.17 549.53,-59.51"/>
</a>
</g>
</g>
<!-- Node7 -->
<g id="Node000007" class="node">
<title>Node7</title>
<g id="a_Node000007"><a xlink:href="VerifyPin_2main_2main_8cpp.html" target="_top" xlink:title=" ">
<polygon fill="white" stroke="#666666" points="885.5,-30 775.5,-30 775.5,0 885.5,0 885.5,-30"/>
<text text-anchor="start" x="783.5" y="-18" font-family="Helvetica,sans-Serif" font-size="10.00">examples/VerifyPin</text>
<text text-anchor="middle" x="830.5" y="-7" font-family="Helvetica,sans-Serif" font-size="10.00">/main/main.cpp</text>
</a>
</g>
</g>
<!-- Node1&#45;&gt;Node7 -->
<g id="edge6_Node000001_Node000007" class="edge">
<title>Node1&#45;&gt;Node7</title>
<g id="a_edge6_Node000001_Node000007"><a xlink:title=" ">
<path fill="none" stroke="#63b8ff" d="M568.67,-69.06C625.15,-58.28 700.26,-43.69 766.5,-30 769.4,-29.4 772.36,-28.78 775.36,-28.15"/>
<polygon fill="#63b8ff" stroke="#63b8ff" points="567.88,-65.65 558.71,-70.96 569.19,-72.53 567.88,-65.65"/>
</a>
</g>
</g>
</g>
</svg>
