<?xml version="1.0" encoding="UTF-8" standalone="no"?>
<!DOCTYPE svg PUBLIC "-//W3C//DTD SVG 1.1//EN"
 "http://www.w3.org/Graphics/SVG/1.1/DTD/svg11.dtd">
<!-- Generated by graphviz version 2.43.0 (0)
 -->
<!-- Title: examples/Sign/main/main.cpp Pages: 1 -->
<svg width="1125pt" height="203pt"
 viewBox="0.00 0.00 1125.00 203.00" xmlns="http://www.w3.org/2000/svg" xmlns:xlink="http://www.w3.org/1999/xlink">
<g id="graph0" class="graph" transform="scale(1 1) rotate(0) translate(4 199)">
<title>examples/Sign/main/main.cpp</title>
<!-- Node1 -->
<g id="Node000001" class="node">
<title>Node1</title>
<g id="a_Node000001"><a xlink:title=" ">
<polygon fill="#999999" stroke="#666666" points="496.5,-195 380.5,-195 380.5,-165 496.5,-165 496.5,-195"/>
<text text-anchor="start" x="388.5" y="-183" font-family="Helvetica,sans-Serif" font-size="10.00">examples/Sign/main</text>
<text text-anchor="middle" x="438.5" y="-172" font-family="Helvetica,sans-Serif" font-size="10.00">/main.cpp</text>
</a>
</g>
</g>
<!-- Node2 -->
<g id="Node000002" class="node">
<title>Node2</title>
<g id="a_Node000002"><a xlink:title=" ">
<polygon fill="#e0e0e0" stroke="#999999" points="53,-129 0,-129 0,-110 53,-110 53,-129"/>
<text text-anchor="middle" x="26.5" y="-117" font-family="Helvetica,sans-Serif" font-size="10.00">string.h</text>
</a>
</g>
</g>
<!-- Node1&#45;&gt;Node2 -->
<g id="edge1_Node000001_Node000002" class="edge">
<title>Node1&#45;&gt;Node2</title>
<g id="a_edge1_Node000001_Node000002"><a xlink:title=" ">
<path fill="none" stroke="#63b8ff" d="M380.39,-173.23C308.12,-165.63 180.81,-150.82 63.09,-129.14"/>
<polygon fill="#63b8ff" stroke="#63b8ff" points="63.66,-125.68 53.19,-127.29 62.38,-132.56 63.66,-125.68"/>
</a>
</g>
</g>
<!-- Node3 -->
<g id="Node000003" class="node">
<title>Node3</title>
<g id="a_Node000003"><a xlink:title=" ">
<polygon fill="#e0e0e0" stroke="#999999" points="184,-129 71,-129 71,-110 184,-110 184,-129"/>
<text text-anchor="middle" x="127.5" y="-117" font-family="Helvetica,sans-Serif" font-size="10.00">freertos/FreeRTOS.h</text>
</a>
</g>
</g>
<!-- Node1&#45;&gt;Node3 -->
<g id="edge2_Node000001_Node000003" class="edge">
<title>Node1&#45;&gt;Node3</title>
<g id="a_edge2_Node000001_Node000003"><a xlink:title=" ">
<path fill="none" stroke="#63b8ff" d="M380.37,-168.07C323.76,-157.42 238.36,-141.35 182.76,-130.89"/>
<polygon fill="#63b8ff" stroke="#63b8ff" points="183.21,-127.42 172.73,-129.01 181.91,-134.3 183.21,-127.42"/>
</a>
</g>
</g>
<!-- Node4 -->
<g id="Node000004" class="node">
<title>Node4</title>
<g id="a_Node000004"><a xlink:title=" ">
<polygon fill="#e0e0e0" stroke="#999999" points="290.5,-129 202.5,-129 202.5,-110 290.5,-110 290.5,-129"/>
<text text-anchor="middle" x="246.5" y="-117" font-family="Helvetica,sans-Serif" font-size="10.00">freertos/task.h</text>
</a>
</g>
</g>
<!-- Node1&#45;&gt;Node4 -->
<g id="edge3_Node000001_Node000004" class="edge">
<title>Node1&#45;&gt;Node4</title>
<g id="a_edge3_Node000001_Node000004"><a xlink:title=" ">
<path fill="none" stroke="#63b8ff" d="M392.51,-164.99C359.38,-154.89 315.21,-141.44 284.16,-131.98"/>
<polygon fill="#63b8ff" stroke="#63b8ff" points="285.16,-128.62 274.57,-129.05 283.12,-135.32 285.16,-128.62"/>
</a>
</g>
</g>
<!-- Node5 -->
<g id="Node000005" class="node">
<title>Node5</title>
<g id="a_Node000005"><a xlink:title=" ">
<polygon fill="#e0e0e0" stroke="#999999" points="373.5,-19 263.5,-19 263.5,0 373.5,0 373.5,-19"/>
<text text-anchor="middle" x="318.5" y="-7" font-family="Helvetica,sans-Serif" font-size="10.00">driver/spi_master.h</text>
</a>
</g>
</g>
<!-- Node1&#45;&gt;Node5 -->
<g id="edge4_Node000001_Node000005" class="edge">
<title>Node1&#45;&gt;Node5</title>
<g id="a_edge4_Node000001_Node000005"><a xlink:title=" ">
<path fill="none" stroke="#63b8ff" d="M388.04,-164.92C369.42,-157.25 349.86,-145.78 337.5,-129 315.74,-99.47 314.92,-54.52 316.53,-29.32"/>
<polygon fill="#63b8ff" stroke="#63b8ff" points="320.03,-29.51 317.38,-19.26 313.06,-28.93 320.03,-29.51"/>
</a>
</g>
</g>
<!-- Node6 -->
<g id="Node000006" class="node">
<title>Node6</title>
<g id="a_Node000006"><a xlink:title=" ">
<polygon fill="#e0e0e0" stroke="#999999" points="410,-129 347,-129 347,-110 410,-110 410,-129"/>
<text text-anchor="middle" x="378.5" y="-117" font-family="Helvetica,sans-Serif" font-size="10.00">esp_log.h</text>
</a>
</g>
</g>
<!-- Node1&#45;&gt;Node6 -->
<g id="edge5_Node000001_Node000006" class="edge">
<title>Node1&#45;&gt;Node6</title>
<g id="a_edge5_Node000001_Node000006"><a xlink:title=" ">
<path fill="none" stroke="#63b8ff" d="M423.98,-164.84C415.18,-156.26 403.93,-145.3 394.83,-136.42"/>
<polygon fill="#63b8ff" stroke="#63b8ff" points="397.09,-133.74 387.49,-129.27 392.21,-138.75 397.09,-133.74"/>
</a>
</g>
</g>
<!-- Node7 -->
<g id="Node000007" class="node">
<title>Node7</title>
<g id="a_Node000007"><a xlink:href="pn532_8h.html" target="_top" xlink:title=" ">
<polygon fill="white" stroke="#666666" points="494.5,-74 438.5,-74 438.5,-55 494.5,-55 494.5,-74"/>
<text text-anchor="middle" x="466.5" y="-62" font-family="Helvetica,sans-Serif" font-size="10.00">pn532.h</text>
</a>
</g>
</g>
<!-- Node1&#45;&gt;Node7 -->
<g id="edge6_Node000001_Node000007" class="edge">
<title>Node1&#45;&gt;Node7</title>
<g id="a_edge6_Node000001_Node000007"><a xlink:title=" ">
<path fill="none" stroke="#63b8ff" d="M442.05,-164.63C447.08,-144.21 456.31,-106.81 461.88,-84.24"/>
<polygon fill="#63b8ff" stroke="#63b8ff" points="465.35,-84.78 464.35,-74.23 458.55,-83.1 465.35,-84.78"/>
</a>
</g>
</g>
<!-- Node11 -->
<g id="Node000011" class="node">
<title>Node11</title>
<g id="a_Node000011"><a xlink:title=" ">
<polygon fill="#e0e0e0" stroke="#999999" points="568,-129 467,-129 467,-110 568,-110 568,-129"/>
<text text-anchor="middle" x="517.5" y="-117" font-family="Helvetica,sans-Serif" font-size="10.00">CryptnoxWallet.h</text>
</a>
</g>
</g>
<!-- Node1&#45;&gt;Node11 -->
<g id="edge11_Node000001_Node000011" class="edge">
<title>Node1&#45;&gt;Node11</title>
<g id="a_edge11_Node000001_Node000011"><a xlink:title=" ">
<path fill="none" stroke="#63b8ff" d="M457.62,-164.84C469.68,-155.91 485.21,-144.41 497.44,-135.35"/>
<polygon fill="#63b8ff" stroke="#63b8ff" points="499.71,-138.03 505.66,-129.27 495.54,-132.4 499.71,-138.03"/>
</a>
</g>
</g>
<!-- Node12 -->
<g id="Node000012" class="node">
<title>Node12</title>
<g id="a_Node000012"><a xlink:href="Pn532NfcTransport_8h.html" target="_top" xlink:title=" ">
<polygon fill="white" stroke="#666666" points="703,-129 586,-129 586,-110 703,-110 703,-129"/>
<text text-anchor="middle" x="644.5" y="-117" font-family="Helvetica,sans-Serif" font-size="10.00">Pn532NfcTransport.h</text>
</a>
</g>
</g>
<!-- Node1&#45;&gt;Node12 -->
<g id="edge12_Node000001_Node000012" class="edge">
<title>Node1&#45;&gt;Node12</title>
<g id="a_edge12_Node000001_Node000012"><a xlink:title=" ">
<path fill="none" stroke="#63b8ff" d="M487.84,-164.99C523.55,-154.85 571.19,-141.32 604.52,-131.85"/>
<polygon fill="#63b8ff" stroke="#63b8ff" points="605.72,-135.15 614.38,-129.05 603.8,-128.42 605.72,-135.15"/>
</a>
</g>
</g>
<!-- Node15 -->
<g id="Node000015" class="node">
<title>Node15</title>
<g id="a_Node000015"><a xlink:href="ESP32Logger_8h.html" target="_top" xlink:title=" ">
<polygon fill="white" stroke="#666666" points="809.5,-129 721.5,-129 721.5,-110 809.5,-110 809.5,-129"/>
<text text-anchor="middle" x="765.5" y="-117" font-family="Helvetica,sans-Serif" font-size="10.00">ESP32Logger.h</text>
</a>
</g>
</g>
<!-- Node1&#45;&gt;Node15 -->
<g id="edge16_Node000001_Node000015" class="edge">
<title>Node1&#45;&gt;Node15</title>
<g id="a_edge16_Node000001_Node000015"><a xlink:title=" ">
<path fill="none" stroke="#63b8ff" d="M496.58,-168.61C557.31,-157.75 651.85,-140.83 711.14,-130.23"/>
<polygon fill="#63b8ff" stroke="#63b8ff" points="711.84,-133.66 721.06,-128.45 710.6,-126.77 711.84,-133.66"/>
</a>
</g>
</g>
<!-- Node16 -->
<g id="Node000016" class="node">
<title>Node16</title>
<g id="a_Node000016"><a xlink:href="esp32__crypto__provider_8h.html" target="_top" xlink:title=" ">
<polygon fill="white" stroke="#666666" points="963.5,-129 827.5,-129 827.5,-110 963.5,-110 963.5,-129"/>
<text text-anchor="middle" x="895.5" y="-117" font-family="Helvetica,sans-Serif" font-size="10.00">esp32_crypto_provider.h</text>
</a>
</g>
</g>
<!-- Node1&#45;&gt;Node16 -->
<g id="edge18_Node000001_Node000016" class="edge">
<title>Node1&#45;&gt;Node16</title>
<g id="a_edge18_Node000001_Node000016"><a xlink:title=" ">
<path fill="none" stroke="#63b8ff" d="M496.84,-171.53C578.83,-161.04 728.25,-141.91 819.04,-130.29"/>
<polygon fill="#63b8ff" stroke="#63b8ff" points="819.52,-133.75 829,-129.01 818.63,-126.81 819.52,-133.75"/>
</a>
</g>
</g>
<!-- Node19 -->
<g id="Node000019" class="node">
<title>Node19</title>
<g id="a_Node000019"><a xlink:href="ESP32Platform_8h.html" target="_top" xlink:title=" ">
<polygon fill="white" stroke="#666666" points="1107.5,-129 1009.5,-129 1009.5,-110 1107.5,-110 1107.5,-129"/>
<text text-anchor="middle" x="1058.5" y="-117" font-family="Helvetica,sans-Serif" font-size="10.00">ESP32Platform.h</text>
</a>
</g>
</g>
<!-- Node1&#45;&gt;Node19 -->
<g id="edge21_Node000001_Node000019" class="edge">
<title>Node1&#45;&gt;Node19</title>
<g id="a_edge21_Node000001_Node000019"><a xlink:title=" ">
<path fill="none" stroke="#63b8ff" d="M496.59,-173.66C594.68,-164.62 799.41,-145.66 972.5,-129 981.18,-128.16 990.35,-127.27 999.35,-126.39"/>
<polygon fill="#63b8ff" stroke="#63b8ff" points="999.78,-129.86 1009.39,-125.4 999.09,-122.9 999.78,-129.86"/>
</a>
</g>
</g>
<!-- Node7&#45;&gt;Node5 -->
<g id="edge9_Node000007_Node000005" class="edge">
<title>Node7&#45;&gt;Node5</title>
<g id="a_edge9_Node000007_Node000005"><a xlink:title=" ">
<path fill="none" stroke="#63b8ff" d="M442.72,-54.98C418.27,-46.23 379.97,-32.51 352.35,-22.62"/>
<polygon fill="#63b8ff" stroke="#63b8ff" points="353.31,-19.25 342.71,-19.17 350.95,-25.84 353.31,-19.25"/>
</a>
</g>
</g>
<!-- Node8 -->
<g id="Node000008" class="node">
<title>Node8</title>
<g id="a_Node000008"><a xlink:title=" ">
<polygon fill="#e0e0e0" stroke="#999999" points="445,-19 392,-19 392,0 445,0 445,-19"/>
<text text-anchor="middle" x="418.5" y="-7" font-family="Helvetica,sans-Serif" font-size="10.00">stdint.h</text>
</a>
</g>
</g>
<!-- Node7&#45;&gt;Node8 -->
<g id="edge7_Node000007_Node000008" class="edge">
<title>Node7&#45;&gt;Node8</title>
<g id="a_edge7_Node000007_Node000008"><a xlink:title=" ">
<path fill="none" stroke="#63b8ff" d="M458.57,-54.75C451.65,-47.11 441.43,-35.82 433.05,-26.56"/>
<polygon fill="#63b8ff" stroke="#63b8ff" points="435.59,-24.15 426.28,-19.09 430.4,-28.85 435.59,-24.15"/>
</a>
</g>
</g>
<!-- Node9 -->
<g id="Node000009" class="node">
<title>Node9</title>
<g id="a_Node000009"><a xlink:title=" ">
<polygon fill="#e0e0e0" stroke="#999999" points="525.5,-19 463.5,-19 463.5,0 525.5,0 525.5,-19"/>
<text text-anchor="middle" x="494.5" y="-7" font-family="Helvetica,sans-Serif" font-size="10.00">stdbool.h</text>
</a>
</g>
</g>
<!-- Node7&#45;&gt;Node9 -->
<g id="edge8_Node000007_Node000009" class="edge">
<title>Node7&#45;&gt;Node9</title>
<g id="a_edge8_Node000007_Node000009"><a xlink:title=" ">
<path fill="none" stroke="#63b8ff" d="M471.12,-54.75C474.96,-47.49 480.52,-36.95 485.26,-27.98"/>
<polygon fill="#63b8ff" stroke="#63b8ff" points="488.39,-29.57 489.96,-19.09 482.2,-26.3 488.39,-29.57"/>
</a>
</g>
</g>
<!-- Node10 -->
<g id="Node000010" class="node">
<title>Node10</title>
<g id="a_Node000010"><a xlink:title=" ">
<polygon fill="#e0e0e0" stroke="#999999" points="653.5,-19 543.5,-19 543.5,0 653.5,0 653.5,-19"/>
<text text-anchor="middle" x="598.5" y="-7" font-family="Helvetica,sans-Serif" font-size="10.00">driver/i2c_master.h</text>
</a>
</g>
</g>
<!-- Node7&#45;&gt;Node10 -->
<g id="edge10_Node000007_Node000010" class="edge">
<title>Node7&#45;&gt;Node10</title>
<g id="a_edge10_Node000007_Node000010"><a xlink:title=" ">
<path fill="none" stroke="#63b8ff" d="M487.71,-54.98C509.23,-46.34 542.78,-32.87 567.33,-23.02"/>
<polygon fill="#63b8ff" stroke="#63b8ff" points="568.93,-26.14 576.91,-19.17 566.32,-19.65 568.93,-26.14"/>
</a>
</g>
</g>
<!-- Node12&#45;&gt;Node7 -->
<g id="edge15_Node000012_Node000007" class="edge">
<title>Node12&#45;&gt;Node7</title>
<g id="a_edge15_Node000012_Node000007"><a xlink:title=" ">
<path fill="none" stroke="#63b8ff" d="M615.9,-109.98C585.71,-100.99 537.96,-86.78 504.59,-76.84"/>
<polygon fill="#63b8ff" stroke="#63b8ff" points="505.32,-73.41 494.73,-73.91 503.32,-80.11 505.32,-73.41"/>
</a>
</g>
</g>
<!-- Node13 -->
<g id="Node000013" class="node">
<title>Node13</title>
<g id="a_Node000013"><a xlink:title=" ">
<polygon fill="#e0e0e0" stroke="#999999" points="685,-74 576,-74 576,-55 685,-55 685,-74"/>
<text text-anchor="middle" x="630.5" y="-62" font-family="Helvetica,sans-Serif" font-size="10.00">CW_NfcTransport.h</text>
</a>
</g>
</g>
<!-- Node12&#45;&gt;Node13 -->
<g id="edge13_Node000012_Node000013" class="edge">
<title>Node12&#45;&gt;Node13</title>
<g id="a_edge13_Node000012_Node000013"><a xlink:title=" ">
<path fill="none" stroke="#63b8ff" d="M642.19,-109.75C640.33,-102.72 637.66,-92.62 635.35,-83.84"/>
<polygon fill="#63b8ff" stroke="#63b8ff" points="638.71,-82.86 632.77,-74.09 631.94,-84.65 638.71,-82.86"/>
</a>
</g>
</g>
<!-- Node14 -->
<g id="Node000014" class="node">
<title>Node14</title>
<g id="a_Node000014"><a xlink:title=" ">
<polygon fill="#e0e0e0" stroke="#999999" points="783.5,-74 703.5,-74 703.5,-55 783.5,-55 783.5,-74"/>
<text text-anchor="middle" x="743.5" y="-62" font-family="Helvetica,sans-Serif" font-size="10.00">CW_Logger.h</text>
</a>
</g>
</g>
<!-- Node12&#45;&gt;Node14 -->
<g id="edge14_Node000012_Node000014" class="edge">
<title>Node12&#45;&gt;Node14</title>
<g id="a_edge14_Node000012_Node000014"><a xlink:title=" ">
<path fill="none" stroke="#63b8ff" d="M660.41,-109.98C676.05,-101.61 700.16,-88.7 718.38,-78.95"/>
<polygon fill="#63b8ff" stroke="#63b8ff" points="720.14,-81.98 727.3,-74.17 716.84,-75.8 720.14,-81.98"/>
</a>
</g>
</g>
<!-- Node15&#45;&gt;Node14 -->
<g id="edge17_Node000015_Node000014" class="edge">
<title>Node15&#45;&gt;Node14</title>
<g id="a_edge17_Node000015_Node000014"><a xlink:title=" ">
<path fill="none" stroke="#63b8ff" d="M761.87,-109.75C758.92,-102.65 754.67,-92.4 750.99,-83.56"/>
<polygon fill="#63b8ff" stroke="#63b8ff" points="754.13,-81.98 747.07,-74.09 747.67,-84.67 754.13,-81.98"/>
</a>
</g>
</g>
<!-- Node17 -->
<g id="Node000017" class="node">
<title>Node17</title>
<g id="a_Node000017"><a xlink:title=" ">
<polygon fill="#e0e0e0" stroke="#999999" points="921,-74 802,-74 802,-55 921,-55 921,-74"/>
<text text-anchor="middle" x="861.5" y="-62" font-family="Helvetica,sans-Serif" font-size="10.00">CW_CryptoProvider.h</text>
</a>
</g>
</g>
<!-- Node16&#45;&gt;Node17 -->
<g id="edge19_Node000016_Node000017" class="edge">
<title>Node16&#45;&gt;Node17</title>
<g id="a_edge19_Node000016_Node000017"><a xlink:title=" ">
<path fill="none" stroke="#63b8ff" d="M889.89,-109.75C885.18,-102.42 878.33,-91.73 872.53,-82.7"/>
<polygon fill="#63b8ff" stroke="#63b8ff" points="875.36,-80.62 867.01,-74.09 869.46,-84.4 875.36,-80.62"/>
</a>
</g>
</g>
<!-- Node18 -->
<g id="Node000018" class="node">
<title>Node18</title>
<g id="a_Node000018"><a xlink:title=" ">
<polygon fill="#e0e0e0" stroke="#999999" points="1009.5,-74 939.5,-74 939.5,-55 1009.5,-55 1009.5,-74"/>
<text text-anchor="middle" x="974.5" y="-62" font-family="Helvetica,sans-Serif" font-size="10.00">CW_Defs.h</text>
</a>
</g>
</g>
<!-- Node16&#45;&gt;Node18 -->
<g id="edge20_Node000016_Node000018" class="edge">
<title>Node16&#45;&gt;Node18</title>
<g id="a_edge20_Node000016_Node000018"><a xlink:title=" ">
<path fill="none" stroke="#63b8ff" d="M908.19,-109.98C920.33,-101.84 938.86,-89.41 953.25,-79.76"/>
<polygon fill="#63b8ff" stroke="#63b8ff" points="955.22,-82.65 961.58,-74.17 951.32,-76.84 955.22,-82.65"/>
</a>
</g>
</g>
<!-- Node20 -->
<g id="Node000020" class="node">
<title>Node20</title>
<g id="a_Node000020"><a xlink:title=" ">
<polygon fill="#e0e0e0" stroke="#999999" points="1117,-74 1028,-74 1028,-55 1117,-55 1117,-74"/>
<text text-anchor="middle" x="1072.5" y="-62" font-family="Helvetica,sans-Serif" font-size="10.00">CW_Platform.h</text>
</a>
</g>
</g>
<!-- Node19&#45;&gt;Node20 -->
<g id="edge22_Node000019_Node000020" class="edge">
<title>Node19&#45;&gt;Node20</title>
<g id="a_edge22_Node000019_Node000020"><a xlink:title=" ">
<path fill="none" stroke="#63b8ff" d="M1060.81,-109.75C1062.67,-102.72 1065.34,-92.62 1067.65,-83.84"/>
<polygon fill="#63b8ff" stroke="#63b8ff" points="1071.06,-84.65 1070.23,-74.09 1064.29,-82.86 1071.06,-84.65"/>
</a>
</g>
</g>
</g>
</svg>
