<?xml version="1.0" encoding="UTF-8" standalone="no"?>
<!DOCTYPE svg PUBLIC "-//W3C//DTD SVG 1.1//EN"
 "http://www.w3.org/Graphics/SVG/1.1/DTD/svg11.dtd">
<!-- Generated by graphviz version 2.43.0 (0)
 -->
<!-- Title: components/secure_channel/test/test_cw_secure_channel.cpp Pages: 1 -->
<svg width="724pt" height="148pt"
 viewBox="0.00 0.00 723.50 148.00" xmlns="http://www.w3.org/2000/svg" xmlns:xlink="http://www.w3.org/1999/xlink">
<g id="graph0" class="graph" transform="scale(1 1) rotate(0) translate(4 144)">
<title>components/secure_channel/test/test_cw_secure_channel.cpp</title>
<!-- Node1 -->
<g id="Node000001" class="node">
<title>Node1</title>
<g id="a_Node000001"><a xlink:title=" ">
<polygon fill="#999999" stroke="#666666" points="417.5,-140 237.5,-140 237.5,-110 417.5,-110 417.5,-140"/>
<text text-anchor="start" x="245.5" y="-128" font-family="Helvetica,sans-Serif" font-size="10.00">components/secure_channel</text>
<text text-anchor="middle" x="327.5" y="-117" font-family="Helvetica,sans-Serif" font-size="10.00">/test/test_cw_secure_channel.cpp</text>
</a>
</g>
</g>
<!-- Node2 -->
<g id="Node000002" class="node">
<title>Node2</title>
<g id="a_Node000002"><a xlink:title=" ">
<polygon fill="#e0e0e0" stroke="#999999" points="49,-74 0,-74 0,-55 49,-55 49,-74"/>
<text text-anchor="middle" x="24.5" y="-62" font-family="Helvetica,sans-Serif" font-size="10.00">unity.h</text>
</a>
</g>
</g>
<!-- Node1&#45;&gt;Node2 -->
<g id="edge1_Node000001_Node000002" class="edge">
<title>Node1&#45;&gt;Node2</title>
<g id="a_edge1_Node000001_Node000002"><a xlink:title=" ">
<path fill="none" stroke="#63b8ff" d="M244.83,-109.98C193.98,-101.05 127.29,-88.76 59.37,-74.08"/>
<polygon fill="#63b8ff" stroke="#63b8ff" points="59.86,-70.6 49.34,-71.9 58.37,-77.44 59.86,-70.6"/>
</a>
</g>
</g>
<!-- Node3 -->
<g id="Node000003" class="node">
<title>Node3</title>
<g id="a_Node000003"><a xlink:title=" ">
<polygon fill="#e0e0e0" stroke="#999999" points="187.5,-74 67.5,-74 67.5,-55 187.5,-55 187.5,-74"/>
<text text-anchor="middle" x="127.5" y="-62" font-family="Helvetica,sans-Serif" font-size="10.00">CW_SecureChannel.h</text>
</a>
</g>
</g>
<!-- Node1&#45;&gt;Node3 -->
<g id="edge2_Node000001_Node000003" class="edge">
<title>Node1&#45;&gt;Node3</title>
<g id="a_edge2_Node000001_Node000003"><a xlink:title=" ">
<path fill="none" stroke="#63b8ff" d="M279.6,-109.99C245.08,-99.89 199.08,-86.44 166.73,-76.98"/>
<polygon fill="#63b8ff" stroke="#63b8ff" points="167.32,-73.5 156.74,-74.05 165.36,-80.22 167.32,-73.5"/>
</a>
</g>
</g>
<!-- Node4 -->
<g id="Node000004" class="node">
<title>Node4</title>
<g id="a_Node000004"><a xlink:title=" ">
<polygon fill="#e0e0e0" stroke="#999999" points="340.5,-19 270.5,-19 270.5,0 340.5,0 340.5,-19"/>
<text text-anchor="middle" x="305.5" y="-7" font-family="Helvetica,sans-Serif" font-size="10.00">CW_Defs.h</text>
</a>
</g>
</g>
<!-- Node1&#45;&gt;Node4 -->
<g id="edge3_Node000001_Node000004" class="edge">
<title>Node1&#45;&gt;Node4</title>
<g id="a_edge3_Node000001_Node000004"><a xlink:title=" ">
<path fill="none" stroke="#63b8ff" d="M279.4,-109.8C262.13,-102.12 244.47,-90.68 234.5,-74 221.77,-52.7 248.36,-34.55 272.55,-23.18"/>
<polygon fill="#63b8ff" stroke="#63b8ff" points="274.23,-26.26 281.96,-19.01 271.4,-19.86 274.23,-26.26"/>
</a>
</g>
</g>
<!-- Node5 -->
<g id="Node000005" class="node">
<title>Node5</title>
<g id="a_Node000005"><a xlink:title=" ">
<polygon fill="#e0e0e0" stroke="#999999" points="313.5,-74 243.5,-74 243.5,-55 313.5,-55 313.5,-74"/>
<text text-anchor="middle" x="278.5" y="-62" font-family="Helvetica,sans-Serif" font-size="10.00">CW_Utils.h</text>
</a>
</g>
</g>
<!-- Node1&#45;&gt;Node5 -->
<g id="edge4_Node000001_Node000005" class="edge">
<title>Node1&#45;&gt;Node5</title>
<g id="a_edge4_Node000001_Node000005"><a xlink:title=" ">
<path fill="none" stroke="#63b8ff" d="M315.64,-109.84C308.6,-101.43 299.64,-90.74 292.29,-81.96"/>
<polygon fill="#63b8ff" stroke="#63b8ff" points="294.95,-79.68 285.84,-74.27 289.58,-84.18 294.95,-79.68"/>
</a>
</g>
</g>
<!-- Node6 -->
<g id="Node000006" class="node">
<title>Node6</title>
<g id="a_Node000006"><a xlink:title=" ">
<polygon fill="#e0e0e0" stroke="#999999" points="421,-74 332,-74 332,-55 421,-55 421,-74"/>
<text text-anchor="middle" x="376.5" y="-62" font-family="Helvetica,sans-Serif" font-size="10.00">CW_Platform.h</text>
</a>
</g>
</g>
<!-- Node1&#45;&gt;Node6 -->
<g id="edge5_Node000001_Node000006" class="edge">
<title>Node1&#45;&gt;Node6</title>
<g id="a_edge5_Node000001_Node000006"><a xlink:title=" ">
<path fill="none" stroke="#63b8ff" d="M339.36,-109.84C346.4,-101.43 355.36,-90.74 362.71,-81.96"/>
<polygon fill="#63b8ff" stroke="#63b8ff" points="365.42,-84.18 369.16,-74.27 360.05,-79.68 365.42,-84.18"/>
</a>
</g>
</g>
<!-- Node7 -->
<g id="Node000007" class="node">
<title>Node7</title>
<g id="a_Node000007"><a xlink:href="esp32__crypto__provider_8h.html" target="_top" xlink:title=" ">
<polygon fill="white" stroke="#666666" points="575.5,-74 439.5,-74 439.5,-55 575.5,-55 575.5,-74"/>
<text text-anchor="middle" x="507.5" y="-62" font-family="Helvetica,sans-Serif" font-size="10.00">esp32_crypto_provider.h</text>
</a>
</g>
</g>
<!-- Node1&#45;&gt;Node7 -->
<g id="edge6_Node000001_Node000007" class="edge">
<title>Node1&#45;&gt;Node7</title>
<g id="a_edge6_Node000001_Node000007"><a xlink:title=" ">
<path fill="none" stroke="#63b8ff" d="M370.61,-109.99C401.41,-99.98 442.37,-86.67 471.43,-77.22"/>
<polygon fill="#63b8ff" stroke="#63b8ff" points="472.75,-80.47 481.18,-74.05 470.59,-73.82 472.75,-80.47"/>
</a>
</g>
</g>
<!-- Node9 -->
<g id="Node000009" class="node">
<title>Node9</title>
<g id="a_Node000009"><a xlink:title=" ">
<polygon fill="#e0e0e0" stroke="#999999" points="647,-74 594,-74 594,-55 647,-55 647,-74"/>
<text text-anchor="middle" x="620.5" y="-62" font-family="Helvetica,sans-Serif" font-size="10.00">string.h</text>
</a>
</g>
</g>
<!-- Node1&#45;&gt;Node9 -->
<g id="edge9_Node000001_Node000009" class="edge">
<title>Node1&#45;&gt;Node9</title>
<g id="a_edge9_Node000001_Node000009"><a xlink:title=" ">
<path fill="none" stroke="#63b8ff" d="M403.85,-109.97C452.66,-100.81 517.53,-88.27 583.98,-74.04"/>
<polygon fill="#63b8ff" stroke="#63b8ff" points="584.75,-77.46 593.79,-71.93 583.28,-70.61 584.75,-77.46"/>
</a>
</g>
</g>
<!-- Node10 -->
<g id="Node000010" class="node">
<title>Node10</title>
<g id="a_Node000010"><a xlink:title=" ">
<polygon fill="#e0e0e0" stroke="#999999" points="715.5,-74 665.5,-74 665.5,-55 715.5,-55 715.5,-74"/>
<text text-anchor="middle" x="690.5" y="-62" font-family="Helvetica,sans-Serif" font-size="10.00">stdio.h</text>
</a>
</g>
</g>
<!-- Node1&#45;&gt;Node10 -->
<g id="edge10_Node000001_Node000010" class="edge">
<title>Node1&#45;&gt;Node10</title>
<g id="a_edge10_Node000001_Node000010"><a xlink:title=" ">
<path fill="none" stroke="#63b8ff" d="M417.62,-112.63C481.5,-104.03 569.39,-91.1 655.38,-74.07"/>
<polygon fill="#63b8ff" stroke="#63b8ff" points="656.19,-77.47 665.31,-72.08 654.82,-70.61 656.19,-77.47"/>
</a>
</g>
</g>
<!-- Node7&#45;&gt;Node4 -->
<g id="edge8_Node000007_Node000004" class="edge">
<title>Node7&#45;&gt;Node4</title>
<g id="a_edge8_Node000007_Node000004"><a xlink:title=" ">
<path fill="none" stroke="#63b8ff" d="M475.05,-54.98C440.54,-45.93 385.84,-31.58 347.94,-21.64"/>
<polygon fill="#63b8ff" stroke="#63b8ff" points="348.77,-18.23 338.21,-19.08 346.99,-25.01 348.77,-18.23"/>
</a>
</g>
</g>
<!-- Node8 -->
<g id="Node000008" class="node">
<title>Node8</title>
<g id="a_Node000008"><a xlink:title=" ">
<polygon fill="#e0e0e0" stroke="#999999" points="567,-19 448,-19 448,0 567,0 567,-19"/>
<text text-anchor="middle" x="507.5" y="-7" font-family="Helvetica,sans-Serif" font-size="10.00">CW_CryptoProvider.h</text>
</a>
</g>
</g>
<!-- Node7&#45;&gt;Node8 -->
<g id="edge7_Node000007_Node000008" class="edge">
<title>Node7&#45;&gt;Node8</title>
<g id="a_edge7_Node000007_Node000008"><a xlink:title=" ">
<path fill="none" stroke="#63b8ff" d="M507.5,-54.75C507.5,-47.8 507.5,-37.85 507.5,-29.13"/>
<polygon fill="#63b8ff" stroke="#63b8ff" points="511,-29.09 507.5,-19.09 504,-29.09 511,-29.09"/>
</a>
</g>
</g>
</g>
</svg>
