<?xml version="1.0" encoding="UTF-8" standalone="no"?>
<!DOCTYPE svg PUBLIC "-//W3C//DTD SVG 1.1//EN"
 "http://www.w3.org/Graphics/SVG/1.1/DTD/svg11.dtd">
<!-- Generated by graphviz version 2.43.0 (0)
 -->
<!-- Title: components/crypto_provider/test/test_esp32_crypto_provider.cpp Pages: 1 -->
<svg width="478pt" height="159pt"
 viewBox="0.00 0.00 477.50 159.00" xmlns="http://www.w3.org/2000/svg" xmlns:xlink="http://www.w3.org/1999/xlink">
<g id="graph0" class="graph" transform="scale(1 1) rotate(0) translate(4 155)">
<title>components/crypto_provider/test/test_esp32_crypto_provider.cpp</title>
<!-- Node1 -->
<g id="Node000001" class="node">
<title>Node1</title>
<g id="a_Node000001"><a xlink:title=" ">
<polygon fill="#999999" stroke="#666666" points="340.5,-151 184.5,-151 184.5,-110 340.5,-110 340.5,-151"/>
<text text-anchor="start" x="192.5" y="-139" font-family="Helvetica,sans-Serif" font-size="10.00">components/crypto_provider</text>
<text text-anchor="start" x="192.5" y="-128" font-family="Helvetica,sans-Serif" font-size="10.00">/test/test_esp32_crypto</text>
<text text-anchor="middle" x="262.5" y="-117" font-family="Helvetica,sans-Serif" font-size="10.00">_provider.cpp</text>
</a>
</g>
</g>
<!-- Node2 -->
<g id="Node000002" class="node">
<title>Node2</title>
<g id="a_Node000002"><a xlink:title=" ">
<polygon fill="#e0e0e0" stroke="#999999" points="49,-74 0,-74 0,-55 49,-55 49,-74"/>
<text text-anchor="middle" x="24.5" y="-62" font-family="Helvetica,sans-Serif" font-size="10.00">unity.h</text>
</a>
</g>
</g>
<!-- Node1&#45;&gt;Node2 -->
<g id="edge1_Node000001_Node000002" class="edge">
<title>Node1&#45;&gt;Node2</title>
<g id="a_edge1_Node000001_Node000002"><a xlink:title=" ">
<path fill="none" stroke="#63b8ff" d="M189.8,-109.95C146.31,-98.26 93.06,-83.94 58.96,-74.77"/>
<polygon fill="#63b8ff" stroke="#63b8ff" points="59.59,-71.31 49.02,-72.09 57.77,-78.07 59.59,-71.31"/>
</a>
</g>
</g>
<!-- Node3 -->
<g id="Node000003" class="node">
<title>Node3</title>
<g id="a_Node000003"><a xlink:href="esp32__crypto__provider_8h.html" target="_top" xlink:title=" ">
<polygon fill="white" stroke="#666666" points="203.5,-74 67.5,-74 67.5,-55 203.5,-55 203.5,-74"/>
<text text-anchor="middle" x="135.5" y="-62" font-family="Helvetica,sans-Serif" font-size="10.00">esp32_crypto_provider.h</text>
</a>
</g>
</g>
<!-- Node1&#45;&gt;Node3 -->
<g id="edge2_Node000001_Node000003" class="edge">
<title>Node1&#45;&gt;Node3</title>
<g id="a_edge2_Node000001_Node000003"><a xlink:title=" ">
<path fill="none" stroke="#63b8ff" d="M223.71,-109.95C203.64,-99.84 179.68,-87.76 161.8,-78.75"/>
<polygon fill="#63b8ff" stroke="#63b8ff" points="163.05,-75.47 152.55,-74.09 159.9,-81.72 163.05,-75.47"/>
</a>
</g>
</g>
<!-- Node5 -->
<g id="Node000005" class="node">
<title>Node5</title>
<g id="a_Node000005"><a xlink:title=" ">
<polygon fill="#e0e0e0" stroke="#999999" points="266.5,-19 196.5,-19 196.5,0 266.5,0 266.5,-19"/>
<text text-anchor="middle" x="231.5" y="-7" font-family="Helvetica,sans-Serif" font-size="10.00">CW_Defs.h</text>
</a>
</g>
</g>
<!-- Node1&#45;&gt;Node5 -->
<g id="edge5_Node000001_Node000005" class="edge">
<title>Node1&#45;&gt;Node5</title>
<g id="a_edge5_Node000001_Node000005"><a xlink:title=" ">
<path fill="none" stroke="#63b8ff" d="M257.38,-109.85C251.53,-87.37 242.01,-50.86 236.3,-28.91"/>
<polygon fill="#63b8ff" stroke="#63b8ff" points="239.67,-27.97 233.76,-19.18 232.89,-29.73 239.67,-27.97"/>
</a>
</g>
</g>
<!-- Node6 -->
<g id="Node000006" class="node">
<title>Node6</title>
<g id="a_Node000006"><a xlink:title=" ">
<polygon fill="#e0e0e0" stroke="#999999" points="329.5,-74 259.5,-74 259.5,-55 329.5,-55 329.5,-74"/>
<text text-anchor="middle" x="294.5" y="-62" font-family="Helvetica,sans-Serif" font-size="10.00">CW_Utils.h</text>
</a>
</g>
</g>
<!-- Node1&#45;&gt;Node6 -->
<g id="edge6_Node000001_Node000006" class="edge">
<title>Node1&#45;&gt;Node6</title>
<g id="a_edge6_Node000001_Node000006"><a xlink:title=" ">
<path fill="none" stroke="#63b8ff" d="M272.27,-109.95C276.51,-101.48 281.43,-91.64 285.57,-83.37"/>
<polygon fill="#63b8ff" stroke="#63b8ff" points="288.78,-84.77 290.12,-74.26 282.52,-81.64 288.78,-84.77"/>
</a>
</g>
</g>
<!-- Node7 -->
<g id="Node000007" class="node">
<title>Node7</title>
<g id="a_Node000007"><a xlink:title=" ">
<polygon fill="#e0e0e0" stroke="#999999" points="401,-74 348,-74 348,-55 401,-55 401,-74"/>
<text text-anchor="middle" x="374.5" y="-62" font-family="Helvetica,sans-Serif" font-size="10.00">string.h</text>
</a>
</g>
</g>
<!-- Node1&#45;&gt;Node7 -->
<g id="edge7_Node000001_Node000007" class="edge">
<title>Node1&#45;&gt;Node7</title>
<g id="a_edge7_Node000001_Node000007"><a xlink:title=" ">
<path fill="none" stroke="#63b8ff" d="M296.71,-109.95C314.08,-100.03 334.76,-88.21 350.43,-79.25"/>
<polygon fill="#63b8ff" stroke="#63b8ff" points="352.52,-82.09 359.46,-74.09 349.05,-76.01 352.52,-82.09"/>
</a>
</g>
</g>
<!-- Node8 -->
<g id="Node000008" class="node">
<title>Node8</title>
<g id="a_Node000008"><a xlink:title=" ">
<polygon fill="#e0e0e0" stroke="#999999" points="469.5,-74 419.5,-74 419.5,-55 469.5,-55 469.5,-74"/>
<text text-anchor="middle" x="444.5" y="-62" font-family="Helvetica,sans-Serif" font-size="10.00">stdio.h</text>
</a>
</g>
</g>
<!-- Node1&#45;&gt;Node8 -->
<g id="edge8_Node000001_Node000008" class="edge">
<title>Node1&#45;&gt;Node8</title>
<g id="a_edge8_Node000001_Node000008"><a xlink:title=" ">
<path fill="none" stroke="#63b8ff" d="M318.09,-109.95C348.18,-99.37 384.38,-86.64 410.32,-77.52"/>
<polygon fill="#63b8ff" stroke="#63b8ff" points="411.79,-80.71 420.07,-74.09 409.47,-74.11 411.79,-80.71"/>
</a>
</g>
</g>
<!-- Node4 -->
<g id="Node000004" class="node">
<title>Node4</title>
<g id="a_Node000004"><a xlink:title=" ">
<polygon fill="#e0e0e0" stroke="#999999" points="178,-19 59,-19 59,0 178,0 178,-19"/>
<text text-anchor="middle" x="118.5" y="-7" font-family="Helvetica,sans-Serif" font-size="10.00">CW_CryptoProvider.h</text>
</a>
</g>
</g>
<!-- Node3&#45;&gt;Node4 -->
<g id="edge3_Node000003_Node000004" class="edge">
<title>Node3&#45;&gt;Node4</title>
<g id="a_edge3_Node000003_Node000004"><a xlink:title=" ">
<path fill="none" stroke="#63b8ff" d="M132.69,-54.75C130.44,-47.72 127.2,-37.62 124.38,-28.84"/>
<polygon fill="#63b8ff" stroke="#63b8ff" points="127.64,-27.54 121.25,-19.09 120.98,-29.68 127.64,-27.54"/>
</a>
</g>
</g>
<!-- Node3&#45;&gt;Node5 -->
<g id="edge4_Node000003_Node000005" class="edge">
<title>Node3&#45;&gt;Node5</title>
<g id="a_edge4_Node000003_Node000005"><a xlink:title=" ">
<path fill="none" stroke="#63b8ff" d="M150.92,-54.98C165.95,-46.69 189.04,-33.94 206.66,-24.22"/>
<polygon fill="#63b8ff" stroke="#63b8ff" points="208.73,-27.07 215.8,-19.17 205.35,-20.94 208.73,-27.07"/>
</a>
</g>
</g>
</g>
</svg>
