<?xml version="1.0" encoding="UTF-8" standalone="no"?>
<!DOCTYPE svg PUBLIC "-//W3C//DTD SVG 1.1//EN"
 "http://www.w3.org/Graphics/SVG/1.1/DTD/svg11.dtd">
<!-- Generated by graphviz version 2.43.0 (0)
 -->
<!-- Title: examples/UsdcSigning/main/main.cpp Pages: 1 -->
<svg width="1830pt" height="203pt"
 viewBox="0.00 0.00 1829.50 203.00" xmlns="http://www.w3.org/2000/svg" xmlns:xlink="http://www.w3.org/1999/xlink">
<g id="graph0" class="graph" transform="scale(1 1) rotate(0) translate(4 199)">
<title>examples/UsdcSigning/main/main.cpp</title>
<!-- Node1 -->
<g id="Node000001" class="node">
<title>Node1</title>
<g id="a_Node000001"><a xlink:title=" ">
<polygon fill="#999999" stroke="#666666" points="950,-195 822,-195 822,-165 950,-165 950,-195"/>
<text text-anchor="start" x="830" y="-183" font-family="Helvetica,sans-Serif" font-size="10.00">examples/UsdcSigning</text>
<text text-anchor="middle" x="886" y="-172" font-family="Helvetica,sans-Serif" font-size="10.00">/main/main.cpp</text>
</a>
</g>
</g>
<!-- Node2 -->
<g id="Node000002" class="node">
<title>Node2</title>
<g id="a_Node000002"><a xlink:title=" ">
<polygon fill="#e0e0e0" stroke="#999999" points="50,-129 0,-129 0,-110 50,-110 50,-129"/>
<text text-anchor="middle" x="25" y="-117" font-family="Helvetica,sans-Serif" font-size="10.00">stdio.h</text>
</a>
</g>
</g>
<!-- Node1&#45;&gt;Node2 -->
<g id="edge1_Node000001_Node000002" class="edge">
<title>Node1&#45;&gt;Node2</title>
<g id="a_edge1_Node000001_Node000002"><a xlink:title=" ">
<path fill="none" stroke="#63b8ff" d="M821.76,-179.14C683.76,-178.56 348.81,-172.51 60.39,-128.9"/>
<polygon fill="#63b8ff" stroke="#63b8ff" points="60.56,-125.39 50.15,-127.34 59.5,-132.31 60.56,-125.39"/>
</a>
</g>
</g>
<!-- Node3 -->
<g id="Node000003" class="node">
<title>Node3</title>
<g id="a_Node000003"><a xlink:title=" ">
<polygon fill="#e0e0e0" stroke="#999999" points="121.5,-129 68.5,-129 68.5,-110 121.5,-110 121.5,-129"/>
<text text-anchor="middle" x="95" y="-117" font-family="Helvetica,sans-Serif" font-size="10.00">string.h</text>
</a>
</g>
</g>
<!-- Node1&#45;&gt;Node3 -->
<g id="edge2_Node000001_Node000003" class="edge">
<title>Node1&#45;&gt;Node3</title>
<g id="a_edge2_Node000001_Node000003"><a xlink:title=" ">
<path fill="none" stroke="#63b8ff" d="M821.88,-178.47C692.7,-176.6 391.95,-168.19 131.68,-129"/>
<polygon fill="#63b8ff" stroke="#63b8ff" points="132.07,-125.52 121.66,-127.48 131.02,-132.44 132.07,-125.52"/>
</a>
</g>
</g>
<!-- Node4 -->
<g id="Node000004" class="node">
<title>Node4</title>
<g id="a_Node000004"><a xlink:title=" ">
<polygon fill="#e0e0e0" stroke="#999999" points="192.5,-129 139.5,-129 139.5,-110 192.5,-110 192.5,-129"/>
<text text-anchor="middle" x="166" y="-117" font-family="Helvetica,sans-Serif" font-size="10.00">stdlib.h</text>
</a>
</g>
</g>
<!-- Node1&#45;&gt;Node4 -->
<g id="edge3_Node000001_Node000004" class="edge">
<title>Node1&#45;&gt;Node4</title>
<g id="a_edge3_Node000001_Node000004"><a xlink:title=" ">
<path fill="none" stroke="#63b8ff" d="M821.85,-177.85C701.83,-174.93 435.16,-164.81 202.66,-129.01"/>
<polygon fill="#63b8ff" stroke="#63b8ff" points="203.08,-125.54 192.66,-127.46 202,-132.45 203.08,-125.54"/>
</a>
</g>
</g>
<!-- Node5 -->
<g id="Node000005" class="node">
<title>Node5</title>
<g id="a_Node000005"><a xlink:title=" ">
<polygon fill="#e0e0e0" stroke="#999999" points="275.5,-129 210.5,-129 210.5,-110 275.5,-110 275.5,-129"/>
<text text-anchor="middle" x="243" y="-117" font-family="Helvetica,sans-Serif" font-size="10.00">inttypes.h</text>
</a>
</g>
</g>
<!-- Node1&#45;&gt;Node5 -->
<g id="edge4_Node000001_Node000005" class="edge">
<title>Node1&#45;&gt;Node5</title>
<g id="a_edge4_Node000001_Node000005"><a xlink:title=" ">
<path fill="none" stroke="#63b8ff" d="M821.56,-176.22C712.92,-170.97 486.3,-157.6 285.74,-129.09"/>
<polygon fill="#63b8ff" stroke="#63b8ff" points="286.01,-125.59 275.61,-127.63 285.01,-132.52 286.01,-125.59"/>
</a>
</g>
</g>
<!-- Node6 -->
<g id="Node000006" class="node">
<title>Node6</title>
<g id="a_Node000006"><a xlink:title=" ">
<polygon fill="#e0e0e0" stroke="#999999" points="406.5,-129 293.5,-129 293.5,-110 406.5,-110 406.5,-129"/>
<text text-anchor="middle" x="350" y="-117" font-family="Helvetica,sans-Serif" font-size="10.00">freertos/FreeRTOS.h</text>
</a>
</g>
</g>
<!-- Node1&#45;&gt;Node6 -->
<g id="edge5_Node000001_Node000006" class="edge">
<title>Node1&#45;&gt;Node6</title>
<g id="a_edge5_Node000001_Node000006"><a xlink:title=" ">
<path fill="none" stroke="#63b8ff" d="M821.71,-172.61C733.09,-163.71 568.14,-146.78 416.48,-129.03"/>
<polygon fill="#63b8ff" stroke="#63b8ff" points="416.86,-125.55 406.52,-127.86 416.04,-132.5 416.86,-125.55"/>
</a>
</g>
</g>
<!-- Node7 -->
<g id="Node000007" class="node">
<title>Node7</title>
<g id="a_Node000007"><a xlink:title=" ">
<polygon fill="#e0e0e0" stroke="#999999" points="513,-129 425,-129 425,-110 513,-110 513,-129"/>
<text text-anchor="middle" x="469" y="-117" font-family="Helvetica,sans-Serif" font-size="10.00">freertos/task.h</text>
</a>
</g>
</g>
<!-- Node1&#45;&gt;Node7 -->
<g id="edge6_Node000001_Node000007" class="edge">
<title>Node1&#45;&gt;Node7</title>
<g id="a_edge6_Node000001_Node000007"><a xlink:title=" ">
<path fill="none" stroke="#63b8ff" d="M821.78,-170.2C749.93,-160.31 630.1,-143.73 527,-129 525.72,-128.82 524.43,-128.63 523.13,-128.45"/>
<polygon fill="#63b8ff" stroke="#63b8ff" points="523.41,-124.95 513.01,-126.98 522.41,-131.88 523.41,-124.95"/>
</a>
</g>
</g>
<!-- Node8 -->
<g id="Node000008" class="node">
<title>Node8</title>
<g id="a_Node000008"><a xlink:title=" ">
<polygon fill="#e0e0e0" stroke="#999999" points="866,-19 756,-19 756,0 866,0 866,-19"/>
<text text-anchor="middle" x="811" y="-7" font-family="Helvetica,sans-Serif" font-size="10.00">driver/spi_master.h</text>
</a>
</g>
</g>
<!-- Node1&#45;&gt;Node8 -->
<g id="edge7_Node000001_Node000008" class="edge">
<title>Node1&#45;&gt;Node8</title>
<g id="a_edge7_Node000001_Node000008"><a xlink:title=" ">
<path fill="none" stroke="#63b8ff" d="M821.82,-178.65C736.62,-176.66 593.05,-167.51 560,-129 502.9,-62.47 653.72,-30.66 745.78,-17.81"/>
<polygon fill="#63b8ff" stroke="#63b8ff" points="746.43,-21.26 755.87,-16.45 745.49,-14.32 746.43,-21.26"/>
</a>
</g>
</g>
<!-- Node9 -->
<g id="Node000009" class="node">
<title>Node9</title>
<g id="a_Node000009"><a xlink:title=" ">
<polygon fill="#e0e0e0" stroke="#999999" points="647,-129 569,-129 569,-110 647,-110 647,-129"/>
<text text-anchor="middle" x="608" y="-117" font-family="Helvetica,sans-Serif" font-size="10.00">driver/gpio.h</text>
</a>
</g>
</g>
<!-- Node1&#45;&gt;Node9 -->
<g id="edge8_Node000001_Node000009" class="edge">
<title>Node1&#45;&gt;Node9</title>
<g id="a_edge8_Node000001_Node000009"><a xlink:title=" ">
<path fill="none" stroke="#63b8ff" d="M821.87,-165.51C771.78,-154.96 703.2,-140.53 657.34,-130.88"/>
<polygon fill="#63b8ff" stroke="#63b8ff" points="657.85,-127.41 647.34,-128.78 656.41,-134.26 657.85,-127.41"/>
</a>
</g>
</g>
<!-- Node10 -->
<g id="Node000010" class="node">
<title>Node10</title>
<g id="a_Node000010"><a xlink:title=" ">
<polygon fill="#e0e0e0" stroke="#999999" points="728.5,-129 665.5,-129 665.5,-110 728.5,-110 728.5,-129"/>
<text text-anchor="middle" x="697" y="-117" font-family="Helvetica,sans-Serif" font-size="10.00">esp_log.h</text>
</a>
</g>
</g>
<!-- Node1&#45;&gt;Node10 -->
<g id="edge9_Node000001_Node000010" class="edge">
<title>Node1&#45;&gt;Node10</title>
<g id="a_edge9_Node000001_Node000010"><a xlink:title=" ">
<path fill="none" stroke="#63b8ff" d="M840.73,-164.99C808.25,-154.94 765.01,-141.55 734.47,-132.1"/>
<polygon fill="#63b8ff" stroke="#63b8ff" points="735.22,-128.67 724.63,-129.05 733.15,-135.35 735.22,-128.67"/>
</a>
</g>
</g>
<!-- Node11 -->
<g id="Node000011" class="node">
<title>Node11</title>
<g id="a_Node000011"><a xlink:title=" ">
<polygon fill="#e0e0e0" stroke="#999999" points="817.5,-129 746.5,-129 746.5,-110 817.5,-110 817.5,-129"/>
<text text-anchor="middle" x="782" y="-117" font-family="Helvetica,sans-Serif" font-size="10.00">nvs_flash.h</text>
</a>
</g>
</g>
<!-- Node1&#45;&gt;Node11 -->
<g id="edge10_Node000001_Node000011" class="edge">
<title>Node1&#45;&gt;Node11</title>
<g id="a_edge10_Node000001_Node000011"><a xlink:title=" ">
<path fill="none" stroke="#63b8ff" d="M861.09,-164.99C844.51,-155.66 822.84,-143.47 806.37,-134.21"/>
<polygon fill="#63b8ff" stroke="#63b8ff" points="807.79,-130.99 797.36,-129.14 804.36,-137.09 807.79,-130.99"/>
</a>
</g>
</g>
<!-- Node12 -->
<g id="Node000012" class="node">
<title>Node12</title>
<g id="a_Node000012"><a xlink:title=" ">
<polygon fill="#e0e0e0" stroke="#999999" points="936.5,-129 835.5,-129 835.5,-110 936.5,-110 936.5,-129"/>
<text text-anchor="middle" x="886" y="-117" font-family="Helvetica,sans-Serif" font-size="10.00">CryptnoxWallet.h</text>
</a>
</g>
</g>
<!-- Node1&#45;&gt;Node12 -->
<g id="edge11_Node000001_Node000012" class="edge">
<title>Node1&#45;&gt;Node12</title>
<g id="a_edge11_Node000001_Node000012"><a xlink:title=" ">
<path fill="none" stroke="#63b8ff" d="M886,-164.84C886,-157.21 886,-147.7 886,-139.45"/>
<polygon fill="#63b8ff" stroke="#63b8ff" points="889.5,-139.27 886,-129.27 882.5,-139.27 889.5,-139.27"/>
</a>
</g>
</g>
<!-- Node13 -->
<g id="Node000013" class="node">
<title>Node13</title>
<g id="a_Node000013"><a xlink:title=" ">
<polygon fill="#e0e0e0" stroke="#999999" points="1025,-129 955,-129 955,-110 1025,-110 1025,-129"/>
<text text-anchor="middle" x="990" y="-117" font-family="Helvetica,sans-Serif" font-size="10.00">CW_Utils.h</text>
</a>
</g>
</g>
<!-- Node1&#45;&gt;Node13 -->
<g id="edge12_Node000001_Node000013" class="edge">
<title>Node1&#45;&gt;Node13</title>
<g id="a_edge12_Node000001_Node000013"><a xlink:title=" ">
<path fill="none" stroke="#63b8ff" d="M910.91,-164.99C927.49,-155.66 949.16,-143.47 965.63,-134.21"/>
<polygon fill="#63b8ff" stroke="#63b8ff" points="967.64,-137.09 974.64,-129.14 964.21,-130.99 967.64,-137.09"/>
</a>
</g>
</g>
<!-- Node14 -->
<g id="Node000014" class="node">
<title>Node14</title>
<g id="a_Node000014"><a xlink:href="Pn532NfcTransport_8h.html" target="_top" xlink:title="CW_NfcTransport adapter wrapping the ESP&#45;IDF PN532 NFC driver.">
<polygon fill="white" stroke="#666666" points="1266.5,-129 1149.5,-129 1149.5,-110 1266.5,-110 1266.5,-129"/>
<text text-anchor="middle" x="1208" y="-117" font-family="Helvetica,sans-Serif" font-size="10.00">Pn532NfcTransport.h</text>
</a>
</g>
</g>
<!-- Node1&#45;&gt;Node14 -->
<g id="edge13_Node000001_Node000014" class="edge">
<title>Node1&#45;&gt;Node14</title>
<g id="a_edge13_Node000001_Node000014"><a xlink:title=" ">
<path fill="none" stroke="#63b8ff" d="M950,-167.37C1008.53,-156.74 1094.34,-141.15 1150.67,-130.92"/>
<polygon fill="#63b8ff" stroke="#63b8ff" points="1151.62,-134.3 1160.83,-129.07 1150.37,-127.41 1151.62,-134.3"/>
</a>
</g>
</g>
<!-- Node17 -->
<g id="Node000017" class="node">
<title>Node17</title>
<g id="a_Node000017"><a xlink:href="pn532_8h.html" target="_top" xlink:title="Low&#45;level PN532 NFC controller driver for ESP&#45;IDF (SPI and I²C).">
<polygon fill="white" stroke="#666666" points="1236,-74 1180,-74 1180,-55 1236,-55 1236,-74"/>
<text text-anchor="middle" x="1208" y="-62" font-family="Helvetica,sans-Serif" font-size="10.00">pn532.h</text>
</a>
</g>
</g>
<!-- Node1&#45;&gt;Node17 -->
<g id="edge28_Node000001_Node000017" class="edge">
<title>Node1&#45;&gt;Node17</title>
<g id="a_edge28_Node000001_Node000017"><a xlink:title=" ">
<path fill="none" stroke="#63b8ff" d="M950.12,-175.32C1055.04,-168.65 1253.92,-152.96 1275,-129 1291.52,-110.22 1263,-90.74 1238.21,-78.39"/>
<polygon fill="#63b8ff" stroke="#63b8ff" points="1239.53,-75.14 1229,-74.02 1236.54,-81.47 1239.53,-75.14"/>
</a>
</g>
</g>
<!-- Node21 -->
<g id="Node000021" class="node">
<title>Node21</title>
<g id="a_Node000021"><a xlink:href="ESP32Logger_8h.html" target="_top" xlink:title="CW_Logger implementation that writes to ESP32 UART0 via printf.">
<polygon fill="white" stroke="#666666" points="1131,-129 1043,-129 1043,-110 1131,-110 1131,-129"/>
<text text-anchor="middle" x="1087" y="-117" font-family="Helvetica,sans-Serif" font-size="10.00">ESP32Logger.h</text>
</a>
</g>
</g>
<!-- Node1&#45;&gt;Node21 -->
<g id="edge21_Node000001_Node000021" class="edge">
<title>Node1&#45;&gt;Node21</title>
<g id="a_edge21_Node000001_Node000021"><a xlink:title=" ">
<path fill="none" stroke="#63b8ff" d="M934.14,-164.99C968.98,-154.85 1015.47,-141.32 1047.99,-131.85"/>
<polygon fill="#63b8ff" stroke="#63b8ff" points="1048.99,-135.21 1057.61,-129.05 1047.03,-128.49 1048.99,-135.21"/>
</a>
</g>
</g>
<!-- Node22 -->
<g id="Node000022" class="node">
<title>Node22</title>
<g id="a_Node000022"><a xlink:href="esp32__crypto__provider_8h.html" target="_top" xlink:title="CW_CryptoProvider implementation for ESP32 using mbedTLS and the hardware TRNG.">
<polygon fill="white" stroke="#666666" points="1459,-129 1323,-129 1323,-110 1459,-110 1459,-129"/>
<text text-anchor="middle" x="1391" y="-117" font-family="Helvetica,sans-Serif" font-size="10.00">esp32_crypto_provider.h</text>
</a>
</g>
</g>
<!-- Node1&#45;&gt;Node22 -->
<g id="edge23_Node000001_Node000022" class="edge">
<title>Node1&#45;&gt;Node22</title>
<g id="a_edge23_Node000001_Node000022"><a xlink:title=" ">
<path fill="none" stroke="#63b8ff" d="M950.21,-171.56C1042.68,-160.85 1213.12,-141.11 1312.79,-129.56"/>
<polygon fill="#63b8ff" stroke="#63b8ff" points="1313.28,-133.03 1322.81,-128.4 1312.47,-126.07 1313.28,-133.03"/>
</a>
</g>
</g>
<!-- Node25 -->
<g id="Node000025" class="node">
<title>Node25</title>
<g id="a_Node000025"><a xlink:href="ESP32Platform_8h.html" target="_top" xlink:title="CW_Platform implementation for ESP32 using FreeRTOS.">
<polygon fill="white" stroke="#666666" points="1575,-129 1477,-129 1477,-110 1575,-110 1575,-129"/>
<text text-anchor="middle" x="1526" y="-117" font-family="Helvetica,sans-Serif" font-size="10.00">ESP32Platform.h</text>
</a>
</g>
</g>
<!-- Node1&#45;&gt;Node25 -->
<g id="edge26_Node000001_Node000025" class="edge">
<title>Node1&#45;&gt;Node25</title>
<g id="a_edge26_Node000001_Node000025"><a xlink:title=" ">
<path fill="none" stroke="#63b8ff" d="M950.29,-174.74C1055.86,-167.46 1272.8,-151.35 1466.88,-129.06"/>
<polygon fill="#63b8ff" stroke="#63b8ff" points="1467.45,-132.52 1476.98,-127.89 1466.64,-125.57 1467.45,-132.52"/>
</a>
</g>
</g>
<!-- Node27 -->
<g id="Node000027" class="node">
<title>Node27</title>
<g id="a_Node000027"><a xlink:href="keccak256_8h.html" target="_top" xlink:title=" ">
<polygon fill="white" stroke="#666666" points="1744.5,-74 1667.5,-74 1667.5,-55 1744.5,-55 1744.5,-74"/>
<text text-anchor="middle" x="1706" y="-62" font-family="Helvetica,sans-Serif" font-size="10.00">keccak256.h</text>
</a>
</g>
</g>
<!-- Node1&#45;&gt;Node27 -->
<g id="edge29_Node000001_Node000027" class="edge">
<title>Node1&#45;&gt;Node27</title>
<g id="a_edge29_Node000001_Node000027"><a xlink:title=" ">
<path fill="none" stroke="#63b8ff" d="M950.27,-178.56C1103.24,-176.88 1485.18,-168.71 1606,-129 1637.85,-118.53 1669.69,-95.64 1688.62,-80.4"/>
<polygon fill="#63b8ff" stroke="#63b8ff" points="1690.88,-83.07 1696.36,-74.01 1686.42,-77.68 1690.88,-83.07"/>
</a>
</g>
</g>
<!-- Node29 -->
<g id="Node000029" class="node">
<title>Node29</title>
<g id="a_Node000029"><a xlink:href="eth__rlp_8h.html" target="_top" xlink:title=" ">
<polygon fill="white" stroke="#666666" points="1821.5,-74 1762.5,-74 1762.5,-55 1821.5,-55 1821.5,-74"/>
<text text-anchor="middle" x="1792" y="-62" font-family="Helvetica,sans-Serif" font-size="10.00">eth_rlp.h</text>
</a>
</g>
</g>
<!-- Node1&#45;&gt;Node29 -->
<g id="edge32_Node000001_Node000029" class="edge">
<title>Node1&#45;&gt;Node29</title>
<g id="a_edge32_Node000001_Node000029"><a xlink:title=" ">
<path fill="none" stroke="#63b8ff" d="M950.19,-177.43C1107.48,-173.14 1508.8,-159.47 1639,-129 1686.05,-117.99 1737.24,-94.08 1766.87,-78.95"/>
<polygon fill="#63b8ff" stroke="#63b8ff" points="1768.79,-81.89 1776.06,-74.18 1765.57,-75.68 1768.79,-81.89"/>
</a>
</g>
</g>
<!-- Node30 -->
<g id="Node000030" class="node">
<title>Node30</title>
<g id="a_Node000030"><a xlink:href="eth__rpc_8h.html" target="_top" xlink:title=" ">
<polygon fill="white" stroke="#666666" points="1649,-74 1587,-74 1587,-55 1649,-55 1649,-74"/>
<text text-anchor="middle" x="1618" y="-62" font-family="Helvetica,sans-Serif" font-size="10.00">eth_rpc.h</text>
</a>
</g>
</g>
<!-- Node1&#45;&gt;Node30 -->
<g id="edge35_Node000001_Node000030" class="edge">
<title>Node1&#45;&gt;Node30</title>
<g id="a_edge35_Node000001_Node000030"><a xlink:title=" ">
<path fill="none" stroke="#63b8ff" d="M950.06,-177.91C1112.54,-174.65 1531.57,-163 1584,-129 1599.7,-118.82 1608.67,-98.83 1613.4,-83.99"/>
<polygon fill="#63b8ff" stroke="#63b8ff" points="1616.79,-84.88 1616.14,-74.31 1610.05,-82.98 1616.79,-84.88"/>
</a>
</g>
</g>
<!-- Node31 -->
<g id="Node000031" class="node">
<title>Node31</title>
<g id="a_Node000031"><a xlink:title=" ">
<polygon fill="#e0e0e0" stroke="#999999" points="1762.5,-129 1707.5,-129 1707.5,-110 1762.5,-110 1762.5,-129"/>
<text text-anchor="middle" x="1735" y="-117" font-family="Helvetica,sans-Serif" font-size="10.00">config.h</text>
</a>
</g>
</g>
<!-- Node1&#45;&gt;Node31 -->
<g id="edge39_Node000001_Node000031" class="edge">
<title>Node1&#45;&gt;Node31</title>
<g id="a_edge39_Node000001_Node000031"><a xlink:title=" ">
<path fill="none" stroke="#63b8ff" d="M950.1,-178.02C1087.06,-175.28 1418.13,-165.15 1693,-129 1694.29,-128.83 1695.59,-128.65 1696.91,-128.45"/>
<polygon fill="#63b8ff" stroke="#63b8ff" points="1697.81,-131.84 1707.08,-126.71 1696.63,-124.94 1697.81,-131.84"/>
</a>
</g>
</g>
<!-- Node15 -->
<g id="Node000015" class="node">
<title>Node15</title>
<g id="a_Node000015"><a xlink:title=" ">
<polygon fill="#e0e0e0" stroke="#999999" points="1161.5,-74 1052.5,-74 1052.5,-55 1161.5,-55 1161.5,-74"/>
<text text-anchor="middle" x="1107" y="-62" font-family="Helvetica,sans-Serif" font-size="10.00">CW_NfcTransport.h</text>
</a>
</g>
</g>
<!-- Node14&#45;&gt;Node15 -->
<g id="edge14_Node000014_Node000015" class="edge">
<title>Node14&#45;&gt;Node15</title>
<g id="a_edge14_Node000014_Node000015"><a xlink:title=" ">
<path fill="none" stroke="#63b8ff" d="M1191.77,-109.98C1175.82,-101.61 1151.22,-88.7 1132.62,-78.95"/>
<polygon fill="#63b8ff" stroke="#63b8ff" points="1134,-75.72 1123.52,-74.17 1130.75,-81.92 1134,-75.72"/>
</a>
</g>
</g>
<!-- Node16 -->
<g id="Node000016" class="node">
<title>Node16</title>
<g id="a_Node000016"><a xlink:title=" ">
<polygon fill="#e0e0e0" stroke="#999999" points="1034,-74 954,-74 954,-55 1034,-55 1034,-74"/>
<text text-anchor="middle" x="994" y="-62" font-family="Helvetica,sans-Serif" font-size="10.00">CW_Logger.h</text>
</a>
</g>
</g>
<!-- Node14&#45;&gt;Node16 -->
<g id="edge15_Node000014_Node000016" class="edge">
<title>Node14&#45;&gt;Node16</title>
<g id="a_edge15_Node000014_Node000016"><a xlink:title=" ">
<path fill="none" stroke="#63b8ff" d="M1173.62,-109.98C1136.91,-100.89 1078.62,-86.46 1038.45,-76.51"/>
<polygon fill="#63b8ff" stroke="#63b8ff" points="1039.2,-73.09 1028.65,-74.08 1037.52,-79.88 1039.2,-73.09"/>
</a>
</g>
</g>
<!-- Node14&#45;&gt;Node17 -->
<g id="edge16_Node000014_Node000017" class="edge">
<title>Node14&#45;&gt;Node17</title>
<g id="a_edge16_Node000014_Node000017"><a xlink:title=" ">
<path fill="none" stroke="#63b8ff" d="M1208,-109.75C1208,-102.8 1208,-92.85 1208,-84.13"/>
<polygon fill="#63b8ff" stroke="#63b8ff" points="1211.5,-84.09 1208,-74.09 1204.5,-84.09 1211.5,-84.09"/>
</a>
</g>
</g>
<!-- Node17&#45;&gt;Node8 -->
<g id="edge19_Node000017_Node000008" class="edge">
<title>Node17&#45;&gt;Node8</title>
<g id="a_edge19_Node000017_Node000008"><a xlink:title=" ">
<path fill="none" stroke="#63b8ff" d="M1179.84,-56.88C1176.53,-56.2 1173.2,-55.55 1170,-55 1068.11,-37.33 948.78,-23.98 876.59,-16.71"/>
<polygon fill="#63b8ff" stroke="#63b8ff" points="876.59,-13.19 866.29,-15.68 875.89,-20.15 876.59,-13.19"/>
</a>
</g>
</g>
<!-- Node18 -->
<g id="Node000018" class="node">
<title>Node18</title>
<g id="a_Node000018"><a xlink:title=" ">
<polygon fill="#e0e0e0" stroke="#999999" points="1651.5,-19 1598.5,-19 1598.5,0 1651.5,0 1651.5,-19"/>
<text text-anchor="middle" x="1625" y="-7" font-family="Helvetica,sans-Serif" font-size="10.00">stdint.h</text>
</a>
</g>
</g>
<!-- Node17&#45;&gt;Node18 -->
<g id="edge17_Node000017_Node000018" class="edge">
<title>Node17&#45;&gt;Node18</title>
<g id="a_edge17_Node000017_Node000018"><a xlink:title=" ">
<path fill="none" stroke="#63b8ff" d="M1236.22,-56.68C1239.17,-56.07 1242.14,-55.49 1245,-55 1369.88,-33.41 1519.69,-19.28 1587.9,-13.49"/>
<polygon fill="#63b8ff" stroke="#63b8ff" points="1588.46,-16.95 1598.13,-12.63 1587.88,-9.98 1588.46,-16.95"/>
</a>
</g>
</g>
<!-- Node19 -->
<g id="Node000019" class="node">
<title>Node19</title>
<g id="a_Node000019"><a xlink:title=" ">
<polygon fill="#e0e0e0" stroke="#999999" points="1465,-19 1403,-19 1403,0 1465,0 1465,-19"/>
<text text-anchor="middle" x="1434" y="-7" font-family="Helvetica,sans-Serif" font-size="10.00">stdbool.h</text>
</a>
</g>
</g>
<!-- Node17&#45;&gt;Node19 -->
<g id="edge18_Node000017_Node000019" class="edge">
<title>Node17&#45;&gt;Node19</title>
<g id="a_edge18_Node000017_Node000019"><a xlink:title=" ">
<path fill="none" stroke="#63b8ff" d="M1236.17,-56.89C1275.66,-47.63 1347.73,-30.73 1393.12,-20.09"/>
<polygon fill="#63b8ff" stroke="#63b8ff" points="1394,-23.47 1402.94,-17.78 1392.4,-16.66 1394,-23.47"/>
</a>
</g>
</g>
<!-- Node20 -->
<g id="Node000020" class="node">
<title>Node20</title>
<g id="a_Node000020"><a xlink:title=" ">
<polygon fill="#e0e0e0" stroke="#999999" points="1263,-19 1153,-19 1153,0 1263,0 1263,-19"/>
<text text-anchor="middle" x="1208" y="-7" font-family="Helvetica,sans-Serif" font-size="10.00">driver/i2c_master.h</text>
</a>
</g>
</g>
<!-- Node17&#45;&gt;Node20 -->
<g id="edge20_Node000017_Node000020" class="edge">
<title>Node17&#45;&gt;Node20</title>
<g id="a_edge20_Node000017_Node000020"><a xlink:title=" ">
<path fill="none" stroke="#63b8ff" d="M1208,-54.75C1208,-47.8 1208,-37.85 1208,-29.13"/>
<polygon fill="#63b8ff" stroke="#63b8ff" points="1211.5,-29.09 1208,-19.09 1204.5,-29.09 1211.5,-29.09"/>
</a>
</g>
</g>
<!-- Node21&#45;&gt;Node16 -->
<g id="edge22_Node000021_Node000016" class="edge">
<title>Node21&#45;&gt;Node16</title>
<g id="a_edge22_Node000021_Node000016"><a xlink:title=" ">
<path fill="none" stroke="#63b8ff" d="M1072.06,-109.98C1057.5,-101.69 1035.13,-88.94 1018.07,-79.22"/>
<polygon fill="#63b8ff" stroke="#63b8ff" points="1019.64,-76.08 1009.21,-74.17 1016.17,-82.16 1019.64,-76.08"/>
</a>
</g>
</g>
<!-- Node23 -->
<g id="Node000023" class="node">
<title>Node23</title>
<g id="a_Node000023"><a xlink:title=" ">
<polygon fill="#e0e0e0" stroke="#999999" points="1373.5,-74 1254.5,-74 1254.5,-55 1373.5,-55 1373.5,-74"/>
<text text-anchor="middle" x="1314" y="-62" font-family="Helvetica,sans-Serif" font-size="10.00">CW_CryptoProvider.h</text>
</a>
</g>
</g>
<!-- Node22&#45;&gt;Node23 -->
<g id="edge24_Node000022_Node000023" class="edge">
<title>Node22&#45;&gt;Node23</title>
<g id="a_edge24_Node000022_Node000023"><a xlink:title=" ">
<path fill="none" stroke="#63b8ff" d="M1378.63,-109.98C1366.91,-101.92 1349.08,-89.65 1335.11,-80.03"/>
<polygon fill="#63b8ff" stroke="#63b8ff" points="1336.82,-76.96 1326.6,-74.17 1332.85,-82.72 1336.82,-76.96"/>
</a>
</g>
</g>
<!-- Node24 -->
<g id="Node000024" class="node">
<title>Node24</title>
<g id="a_Node000024"><a xlink:title=" ">
<polygon fill="#e0e0e0" stroke="#999999" points="1462,-74 1392,-74 1392,-55 1462,-55 1462,-74"/>
<text text-anchor="middle" x="1427" y="-62" font-family="Helvetica,sans-Serif" font-size="10.00">CW_Defs.h</text>
</a>
</g>
</g>
<!-- Node22&#45;&gt;Node24 -->
<g id="edge25_Node000022_Node000024" class="edge">
<title>Node22&#45;&gt;Node24</title>
<g id="a_edge25_Node000022_Node000024"><a xlink:title=" ">
<path fill="none" stroke="#63b8ff" d="M1396.94,-109.75C1401.98,-102.34 1409.34,-91.5 1415.51,-82.41"/>
<polygon fill="#63b8ff" stroke="#63b8ff" points="1418.44,-84.33 1421.17,-74.09 1412.65,-80.39 1418.44,-84.33"/>
</a>
</g>
</g>
<!-- Node26 -->
<g id="Node000026" class="node">
<title>Node26</title>
<g id="a_Node000026"><a xlink:title=" ">
<polygon fill="#e0e0e0" stroke="#999999" points="1569.5,-74 1480.5,-74 1480.5,-55 1569.5,-55 1569.5,-74"/>
<text text-anchor="middle" x="1525" y="-62" font-family="Helvetica,sans-Serif" font-size="10.00">CW_Platform.h</text>
</a>
</g>
</g>
<!-- Node25&#45;&gt;Node26 -->
<g id="edge27_Node000025_Node000026" class="edge">
<title>Node25&#45;&gt;Node26</title>
<g id="a_edge27_Node000025_Node000026"><a xlink:title=" ">
<path fill="none" stroke="#63b8ff" d="M1525.83,-109.75C1525.7,-102.8 1525.52,-92.85 1525.35,-84.13"/>
<polygon fill="#63b8ff" stroke="#63b8ff" points="1528.85,-84.02 1525.16,-74.09 1521.85,-84.15 1528.85,-84.02"/>
</a>
</g>
</g>
<!-- Node27&#45;&gt;Node18 -->
<g id="edge30_Node000027_Node000018" class="edge">
<title>Node27&#45;&gt;Node18</title>
<g id="a_edge30_Node000027_Node000018"><a xlink:title=" ">
<path fill="none" stroke="#63b8ff" d="M1692.99,-54.98C1680.54,-46.84 1661.54,-34.41 1646.79,-24.76"/>
<polygon fill="#63b8ff" stroke="#63b8ff" points="1648.54,-21.72 1638.25,-19.17 1644.7,-27.57 1648.54,-21.72"/>
</a>
</g>
</g>
<!-- Node28 -->
<g id="Node000028" class="node">
<title>Node28</title>
<g id="a_Node000028"><a xlink:title=" ">
<polygon fill="#e0e0e0" stroke="#999999" points="1734,-19 1678,-19 1678,0 1734,0 1734,-19"/>
<text text-anchor="middle" x="1706" y="-7" font-family="Helvetica,sans-Serif" font-size="10.00">stddef.h</text>
</a>
</g>
</g>
<!-- Node27&#45;&gt;Node28 -->
<g id="edge31_Node000027_Node000028" class="edge">
<title>Node27&#45;&gt;Node28</title>
<g id="a_edge31_Node000027_Node000028"><a xlink:title=" ">
<path fill="none" stroke="#63b8ff" d="M1706,-54.75C1706,-47.8 1706,-37.85 1706,-29.13"/>
<polygon fill="#63b8ff" stroke="#63b8ff" points="1709.5,-29.09 1706,-19.09 1702.5,-29.09 1709.5,-29.09"/>
</a>
</g>
</g>
<!-- Node29&#45;&gt;Node18 -->
<g id="edge33_Node000029_Node000018" class="edge">
<title>Node29&#45;&gt;Node18</title>
<g id="a_edge33_Node000029_Node000018"><a xlink:title=" ">
<path fill="none" stroke="#63b8ff" d="M1765.17,-54.98C1737.05,-46.06 1692.69,-31.98 1661.42,-22.06"/>
<polygon fill="#63b8ff" stroke="#63b8ff" points="1662.36,-18.68 1651.76,-18.99 1660.24,-25.36 1662.36,-18.68"/>
</a>
</g>
</g>
<!-- Node29&#45;&gt;Node28 -->
<g id="edge34_Node000029_Node000028" class="edge">
<title>Node29&#45;&gt;Node28</title>
<g id="a_edge34_Node000029_Node000028"><a xlink:title=" ">
<path fill="none" stroke="#63b8ff" d="M1778.18,-54.98C1764.85,-46.77 1744.42,-34.18 1728.69,-24.49"/>
<polygon fill="#63b8ff" stroke="#63b8ff" points="1730.42,-21.44 1720.07,-19.17 1726.75,-27.4 1730.42,-21.44"/>
</a>
</g>
</g>
<!-- Node30&#45;&gt;Node18 -->
<g id="edge36_Node000030_Node000018" class="edge">
<title>Node30&#45;&gt;Node18</title>
<g id="a_edge36_Node000030_Node000018"><a xlink:title=" ">
<path fill="none" stroke="#63b8ff" d="M1619.16,-54.75C1620.07,-47.8 1621.39,-37.85 1622.54,-29.13"/>
<polygon fill="#63b8ff" stroke="#63b8ff" points="1626.03,-29.46 1623.87,-19.09 1619.09,-28.54 1626.03,-29.46"/>
</a>
</g>
</g>
<!-- Node30&#45;&gt;Node19 -->
<g id="edge38_Node000030_Node000019" class="edge">
<title>Node30&#45;&gt;Node19</title>
<g id="a_edge38_Node000030_Node000019"><a xlink:title=" ">
<path fill="none" stroke="#63b8ff" d="M1588.44,-54.98C1557.28,-46.01 1508.03,-31.82 1473.54,-21.89"/>
<polygon fill="#63b8ff" stroke="#63b8ff" points="1474.37,-18.49 1463.79,-19.08 1472.43,-25.21 1474.37,-18.49"/>
</a>
</g>
</g>
<!-- Node30&#45;&gt;Node28 -->
<g id="edge37_Node000030_Node000028" class="edge">
<title>Node30&#45;&gt;Node28</title>
<g id="a_edge37_Node000030_Node000028"><a xlink:title=" ">
<path fill="none" stroke="#63b8ff" d="M1632.14,-54.98C1645.79,-46.77 1666.69,-34.18 1682.78,-24.49"/>
<polygon fill="#63b8ff" stroke="#63b8ff" points="1684.84,-27.33 1691.6,-19.17 1681.23,-21.33 1684.84,-27.33"/>
</a>
</g>
</g>
</g>
</svg>
