<?xml version="1.0" encoding="UTF-8" standalone="no"?>
<!DOCTYPE svg PUBLIC "-//W3C//DTD SVG 1.1//EN"
 "http://www.w3.org/Graphics/SVG/1.1/DTD/svg11.dtd">
<!-- Generated by graphviz version 2.43.0 (0)
 -->
<!-- Title: examples/UsdcSigning/main/main.cpp Pages: 1 -->
<svg width="1742pt" height="203pt"
 viewBox="0.00 0.00 1741.50 203.00" xmlns="http://www.w3.org/2000/svg" xmlns:xlink="http://www.w3.org/1999/xlink">
<g id="graph0" class="graph" transform="scale(1 1) rotate(0) translate(4 199)">
<title>examples/UsdcSigning/main/main.cpp</title>
<!-- Node1 -->
<g id="Node000001" class="node">
<title>Node1</title>
<g id="a_Node000001"><a xlink:title=" ">
<polygon fill="#999999" stroke="#666666" points="898,-195 770,-195 770,-165 898,-165 898,-195"/>
<text text-anchor="start" x="778" y="-183" font-family="Helvetica,sans-Serif" font-size="10.00">examples/UsdcSigning</text>
<text text-anchor="middle" x="834" y="-172" font-family="Helvetica,sans-Serif" font-size="10.00">/main/main.cpp</text>
</a>
</g>
</g>
<!-- Node2 -->
<g id="Node000002" class="node">
<title>Node2</title>
<g id="a_Node000002"><a xlink:title=" ">
<polygon fill="#e0e0e0" stroke="#999999" points="50,-129 0,-129 0,-110 50,-110 50,-129"/>
<text text-anchor="middle" x="25" y="-117" font-family="Helvetica,sans-Serif" font-size="10.00">stdio.h</text>
</a>
</g>
</g>
<!-- Node1&#45;&gt;Node2 -->
<g id="edge1_Node000001_Node000002" class="edge">
<title>Node1&#45;&gt;Node2</title>
<g id="a_edge1_Node000001_Node000002"><a xlink:title=" ">
<path fill="none" stroke="#63b8ff" d="M769.78,-178.76C638.12,-177.43 328.13,-169.96 60.07,-128.86"/>
<polygon fill="#63b8ff" stroke="#63b8ff" points="60.57,-125.4 50.15,-127.32 59.49,-132.32 60.57,-125.4"/>
</a>
</g>
</g>
<!-- Node3 -->
<g id="Node000003" class="node">
<title>Node3</title>
<g id="a_Node000003"><a xlink:title=" ">
<polygon fill="#e0e0e0" stroke="#999999" points="121.5,-129 68.5,-129 68.5,-110 121.5,-110 121.5,-129"/>
<text text-anchor="middle" x="95" y="-117" font-family="Helvetica,sans-Serif" font-size="10.00">string.h</text>
</a>
</g>
</g>
<!-- Node1&#45;&gt;Node3 -->
<g id="edge2_Node000001_Node000003" class="edge">
<title>Node1&#45;&gt;Node3</title>
<g id="a_edge2_Node000001_Node000003"><a xlink:title=" ">
<path fill="none" stroke="#63b8ff" d="M769.53,-178.02C646.84,-175.38 371.33,-165.68 131.61,-129"/>
<polygon fill="#63b8ff" stroke="#63b8ff" points="132.08,-125.53 121.66,-127.46 131.01,-132.45 132.08,-125.53"/>
</a>
</g>
</g>
<!-- Node4 -->
<g id="Node000004" class="node">
<title>Node4</title>
<g id="a_Node000004"><a xlink:title=" ">
<polygon fill="#e0e0e0" stroke="#999999" points="192.5,-129 139.5,-129 139.5,-110 192.5,-110 192.5,-129"/>
<text text-anchor="middle" x="166" y="-117" font-family="Helvetica,sans-Serif" font-size="10.00">stdlib.h</text>
</a>
</g>
</g>
<!-- Node1&#45;&gt;Node4 -->
<g id="edge3_Node000001_Node000004" class="edge">
<title>Node1&#45;&gt;Node4</title>
<g id="a_edge3_Node000001_Node000004"><a xlink:title=" ">
<path fill="none" stroke="#63b8ff" d="M769.81,-177.31C656.81,-173.59 414.99,-162.34 202.75,-129.04"/>
<polygon fill="#63b8ff" stroke="#63b8ff" points="203.09,-125.55 192.66,-127.44 201.99,-132.47 203.09,-125.55"/>
</a>
</g>
</g>
<!-- Node5 -->
<g id="Node000005" class="node">
<title>Node5</title>
<g id="a_Node000005"><a xlink:title=" ">
<polygon fill="#e0e0e0" stroke="#999999" points="275.5,-129 210.5,-129 210.5,-110 275.5,-110 275.5,-129"/>
<text text-anchor="middle" x="243" y="-117" font-family="Helvetica,sans-Serif" font-size="10.00">inttypes.h</text>
</a>
</g>
</g>
<!-- Node1&#45;&gt;Node5 -->
<g id="edge4_Node000001_Node000005" class="edge">
<title>Node1&#45;&gt;Node5</title>
<g id="a_edge4_Node000001_Node000005"><a xlink:title=" ">
<path fill="none" stroke="#63b8ff" d="M769.78,-175.54C668.71,-169.57 466.22,-155.49 285.56,-129.08"/>
<polygon fill="#63b8ff" stroke="#63b8ff" points="286.02,-125.61 275.61,-127.61 284.99,-132.53 286.02,-125.61"/>
</a>
</g>
</g>
<!-- Node6 -->
<g id="Node000006" class="node">
<title>Node6</title>
<g id="a_Node000006"><a xlink:title=" ">
<polygon fill="#e0e0e0" stroke="#999999" points="406.5,-129 293.5,-129 293.5,-110 406.5,-110 406.5,-129"/>
<text text-anchor="middle" x="350" y="-117" font-family="Helvetica,sans-Serif" font-size="10.00">freertos/FreeRTOS.h</text>
</a>
</g>
</g>
<!-- Node1&#45;&gt;Node6 -->
<g id="edge5_Node000001_Node000006" class="edge">
<title>Node1&#45;&gt;Node6</title>
<g id="a_edge5_Node000001_Node000006"><a xlink:title=" ">
<path fill="none" stroke="#63b8ff" d="M769.89,-171.51C689.92,-162.13 548.69,-145.44 416.81,-129.09"/>
<polygon fill="#63b8ff" stroke="#63b8ff" points="416.88,-125.57 406.52,-127.81 416.01,-132.52 416.88,-125.57"/>
</a>
</g>
</g>
<!-- Node7 -->
<g id="Node000007" class="node">
<title>Node7</title>
<g id="a_Node000007"><a xlink:title=" ">
<polygon fill="#e0e0e0" stroke="#999999" points="513,-129 425,-129 425,-110 513,-110 513,-129"/>
<text text-anchor="middle" x="469" y="-117" font-family="Helvetica,sans-Serif" font-size="10.00">freertos/task.h</text>
</a>
</g>
</g>
<!-- Node1&#45;&gt;Node7 -->
<g id="edge6_Node000001_Node000007" class="edge">
<title>Node1&#45;&gt;Node7</title>
<g id="a_edge6_Node000001_Node000007"><a xlink:title=" ">
<path fill="none" stroke="#63b8ff" d="M769.59,-168.68C699.65,-157.47 589.17,-139.76 523.42,-129.22"/>
<polygon fill="#63b8ff" stroke="#63b8ff" points="523.69,-125.72 513.27,-127.59 522.59,-132.63 523.69,-125.72"/>
</a>
</g>
</g>
<!-- Node8 -->
<g id="Node000008" class="node">
<title>Node8</title>
<g id="a_Node000008"><a xlink:title=" ">
<polygon fill="#e0e0e0" stroke="#999999" points="822,-19 712,-19 712,0 822,0 822,-19"/>
<text text-anchor="middle" x="767" y="-7" font-family="Helvetica,sans-Serif" font-size="10.00">driver/spi_master.h</text>
</a>
</g>
</g>
<!-- Node1&#45;&gt;Node8 -->
<g id="edge7_Node000001_Node000008" class="edge">
<title>Node1&#45;&gt;Node8</title>
<g id="a_edge7_Node000001_Node000008"><a xlink:title=" ">
<path fill="none" stroke="#63b8ff" d="M769.96,-176.49C697.53,-172.15 586.21,-160.43 560,-129 512.85,-72.47 631,-37.31 707.61,-21.1"/>
<polygon fill="#63b8ff" stroke="#63b8ff" points="708.57,-24.47 717.66,-19.03 707.16,-17.62 708.57,-24.47"/>
</a>
</g>
</g>
<!-- Node9 -->
<g id="Node000009" class="node">
<title>Node9</title>
<g id="a_Node000009"><a xlink:title=" ">
<polygon fill="#e0e0e0" stroke="#999999" points="647,-129 569,-129 569,-110 647,-110 647,-129"/>
<text text-anchor="middle" x="608" y="-117" font-family="Helvetica,sans-Serif" font-size="10.00">driver/gpio.h</text>
</a>
</g>
</g>
<!-- Node1&#45;&gt;Node9 -->
<g id="edge8_Node000001_Node000009" class="edge">
<title>Node1&#45;&gt;Node9</title>
<g id="a_edge8_Node000001_Node000009"><a xlink:title=" ">
<path fill="none" stroke="#63b8ff" d="M779.87,-164.99C740.36,-154.76 687.53,-141.09 650.92,-131.61"/>
<polygon fill="#63b8ff" stroke="#63b8ff" points="651.6,-128.17 641.04,-129.05 649.85,-134.95 651.6,-128.17"/>
</a>
</g>
</g>
<!-- Node10 -->
<g id="Node000010" class="node">
<title>Node10</title>
<g id="a_Node000010"><a xlink:title=" ">
<polygon fill="#e0e0e0" stroke="#999999" points="728.5,-129 665.5,-129 665.5,-110 728.5,-110 728.5,-129"/>
<text text-anchor="middle" x="697" y="-117" font-family="Helvetica,sans-Serif" font-size="10.00">esp_log.h</text>
</a>
</g>
</g>
<!-- Node1&#45;&gt;Node10 -->
<g id="edge9_Node000001_Node000010" class="edge">
<title>Node1&#45;&gt;Node10</title>
<g id="a_edge9_Node000001_Node000010"><a xlink:title=" ">
<path fill="none" stroke="#63b8ff" d="M801.19,-164.99C778.53,-155.31 748.65,-142.56 726.7,-133.18"/>
<polygon fill="#63b8ff" stroke="#63b8ff" points="727.8,-129.85 717.23,-129.14 725.05,-136.29 727.8,-129.85"/>
</a>
</g>
</g>
<!-- Node11 -->
<g id="Node000011" class="node">
<title>Node11</title>
<g id="a_Node000011"><a xlink:title=" ">
<polygon fill="#e0e0e0" stroke="#999999" points="817.5,-129 746.5,-129 746.5,-110 817.5,-110 817.5,-129"/>
<text text-anchor="middle" x="782" y="-117" font-family="Helvetica,sans-Serif" font-size="10.00">nvs_flash.h</text>
</a>
</g>
</g>
<!-- Node1&#45;&gt;Node11 -->
<g id="edge10_Node000001_Node000011" class="edge">
<title>Node1&#45;&gt;Node11</title>
<g id="a_edge10_Node000001_Node000011"><a xlink:title=" ">
<path fill="none" stroke="#63b8ff" d="M821.41,-164.84C813.94,-156.43 804.44,-145.74 796.63,-136.96"/>
<polygon fill="#63b8ff" stroke="#63b8ff" points="799.05,-134.41 789.79,-129.27 793.82,-139.07 799.05,-134.41"/>
</a>
</g>
</g>
<!-- Node12 -->
<g id="Node000012" class="node">
<title>Node12</title>
<g id="a_Node000012"><a xlink:title=" ">
<polygon fill="#e0e0e0" stroke="#999999" points="936.5,-129 835.5,-129 835.5,-110 936.5,-110 936.5,-129"/>
<text text-anchor="middle" x="886" y="-117" font-family="Helvetica,sans-Serif" font-size="10.00">CryptnoxWallet.h</text>
</a>
</g>
</g>
<!-- Node1&#45;&gt;Node12 -->
<g id="edge11_Node000001_Node000012" class="edge">
<title>Node1&#45;&gt;Node12</title>
<g id="a_edge11_Node000001_Node000012"><a xlink:title=" ">
<path fill="none" stroke="#63b8ff" d="M846.59,-164.84C854.06,-156.43 863.56,-145.74 871.37,-136.96"/>
<polygon fill="#63b8ff" stroke="#63b8ff" points="874.18,-139.07 878.21,-129.27 868.95,-134.41 874.18,-139.07"/>
</a>
</g>
</g>
<!-- Node13 -->
<g id="Node000013" class="node">
<title>Node13</title>
<g id="a_Node000013"><a xlink:href="Pn532NfcTransport_8h.html" target="_top" xlink:title="CW_NfcTransport adapter wrapping the ESP&#45;IDF PN532 NFC driver.">
<polygon fill="white" stroke="#666666" points="1178.5,-129 1061.5,-129 1061.5,-110 1178.5,-110 1178.5,-129"/>
<text text-anchor="middle" x="1120" y="-117" font-family="Helvetica,sans-Serif" font-size="10.00">Pn532NfcTransport.h</text>
</a>
</g>
</g>
<!-- Node1&#45;&gt;Node13 -->
<g id="edge12_Node000001_Node000013" class="edge">
<title>Node1&#45;&gt;Node13</title>
<g id="a_edge12_Node000001_Node000013"><a xlink:title=" ">
<path fill="none" stroke="#63b8ff" d="M898.18,-165.87C949.54,-155.37 1020.61,-140.83 1068.34,-131.07"/>
<polygon fill="#63b8ff" stroke="#63b8ff" points="1069.06,-134.49 1078.16,-129.06 1067.66,-127.63 1069.06,-134.49"/>
</a>
</g>
</g>
<!-- Node16 -->
<g id="Node000016" class="node">
<title>Node16</title>
<g id="a_Node000016"><a xlink:href="pn532_8h.html" target="_top" xlink:title="Low&#45;level PN532 NFC controller driver for ESP&#45;IDF (SPI and I²C).">
<polygon fill="white" stroke="#666666" points="1148,-74 1092,-74 1092,-55 1148,-55 1148,-74"/>
<text text-anchor="middle" x="1120" y="-62" font-family="Helvetica,sans-Serif" font-size="10.00">pn532.h</text>
</a>
</g>
</g>
<!-- Node1&#45;&gt;Node16 -->
<g id="edge27_Node000001_Node000016" class="edge">
<title>Node1&#45;&gt;Node16</title>
<g id="a_edge27_Node000001_Node000016"><a xlink:title=" ">
<path fill="none" stroke="#63b8ff" d="M898.06,-179.53C989.46,-178.76 1150.32,-171.24 1187,-129 1203.31,-110.22 1175.23,-90.88 1150.58,-78.55"/>
<polygon fill="#63b8ff" stroke="#63b8ff" points="1151.93,-75.32 1141.4,-74.19 1148.93,-81.64 1151.93,-75.32"/>
</a>
</g>
</g>
<!-- Node20 -->
<g id="Node000020" class="node">
<title>Node20</title>
<g id="a_Node000020"><a xlink:href="ESP32Logger_8h.html" target="_top" xlink:title="CW_Logger implementation that writes to ESP32 UART0 via printf.">
<polygon fill="white" stroke="#666666" points="1043,-129 955,-129 955,-110 1043,-110 1043,-129"/>
<text text-anchor="middle" x="999" y="-117" font-family="Helvetica,sans-Serif" font-size="10.00">ESP32Logger.h</text>
</a>
</g>
</g>
<!-- Node1&#45;&gt;Node20 -->
<g id="edge20_Node000001_Node000020" class="edge">
<title>Node1&#45;&gt;Node20</title>
<g id="a_edge20_Node000001_Node000020"><a xlink:title=" ">
<path fill="none" stroke="#63b8ff" d="M873.52,-164.99C901.42,-155.1 938.41,-141.98 965,-132.56"/>
<polygon fill="#63b8ff" stroke="#63b8ff" points="966.38,-135.78 974.63,-129.14 964.04,-129.18 966.38,-135.78"/>
</a>
</g>
</g>
<!-- Node21 -->
<g id="Node000021" class="node">
<title>Node21</title>
<g id="a_Node000021"><a xlink:href="esp32__crypto__provider_8h.html" target="_top" xlink:title="CW_CryptoProvider implementation for ESP32 using mbedTLS and the hardware TRNG.">
<polygon fill="white" stroke="#666666" points="1371,-129 1235,-129 1235,-110 1371,-110 1371,-129"/>
<text text-anchor="middle" x="1303" y="-117" font-family="Helvetica,sans-Serif" font-size="10.00">esp32_crypto_provider.h</text>
</a>
</g>
</g>
<!-- Node1&#45;&gt;Node21 -->
<g id="edge22_Node000001_Node000021" class="edge">
<title>Node1&#45;&gt;Node21</title>
<g id="a_edge22_Node000001_Node000021"><a xlink:title=" ">
<path fill="none" stroke="#63b8ff" d="M898.23,-170.99C983.35,-160.37 1133.4,-141.66 1224.95,-130.24"/>
<polygon fill="#63b8ff" stroke="#63b8ff" points="1225.5,-133.69 1234.99,-128.98 1224.64,-126.75 1225.5,-133.69"/>
</a>
</g>
</g>
<!-- Node24 -->
<g id="Node000024" class="node">
<title>Node24</title>
<g id="a_Node000024"><a xlink:href="ESP32Platform_8h.html" target="_top" xlink:title="CW_Platform implementation for ESP32 using FreeRTOS.">
<polygon fill="white" stroke="#666666" points="1487,-129 1389,-129 1389,-110 1487,-110 1487,-129"/>
<text text-anchor="middle" x="1438" y="-117" font-family="Helvetica,sans-Serif" font-size="10.00">ESP32Platform.h</text>
</a>
</g>
</g>
<!-- Node1&#45;&gt;Node24 -->
<g id="edge25_Node000001_Node000024" class="edge">
<title>Node1&#45;&gt;Node24</title>
<g id="a_edge25_Node000001_Node000024"><a xlink:title=" ">
<path fill="none" stroke="#63b8ff" d="M898,-174.27C998.26,-166.61 1198.67,-150.3 1379.04,-129.05"/>
<polygon fill="#63b8ff" stroke="#63b8ff" points="1379.46,-132.53 1388.98,-127.88 1378.63,-125.58 1379.46,-132.53"/>
</a>
</g>
</g>
<!-- Node26 -->
<g id="Node000026" class="node">
<title>Node26</title>
<g id="a_Node000026"><a xlink:href="keccak256_8h.html" target="_top" xlink:title=" ">
<polygon fill="white" stroke="#666666" points="1656.5,-74 1579.5,-74 1579.5,-55 1656.5,-55 1656.5,-74"/>
<text text-anchor="middle" x="1618" y="-62" font-family="Helvetica,sans-Serif" font-size="10.00">keccak256.h</text>
</a>
</g>
</g>
<!-- Node1&#45;&gt;Node26 -->
<g id="edge28_Node000001_Node000026" class="edge">
<title>Node1&#45;&gt;Node26</title>
<g id="a_edge28_Node000001_Node000026"><a xlink:title=" ">
<path fill="none" stroke="#63b8ff" d="M898.04,-178.29C1045.3,-176.02 1404.04,-166.69 1518,-129 1549.66,-118.53 1581.34,-95.84 1600.31,-80.62"/>
<polygon fill="#63b8ff" stroke="#63b8ff" points="1602.58,-83.28 1608.08,-74.22 1598.13,-77.87 1602.58,-83.28"/>
</a>
</g>
</g>
<!-- Node28 -->
<g id="Node000028" class="node">
<title>Node28</title>
<g id="a_Node000028"><a xlink:href="eth__rlp_8h.html" target="_top" xlink:title=" ">
<polygon fill="white" stroke="#666666" points="1733.5,-74 1674.5,-74 1674.5,-55 1733.5,-55 1733.5,-74"/>
<text text-anchor="middle" x="1704" y="-62" font-family="Helvetica,sans-Serif" font-size="10.00">eth_rlp.h</text>
</a>
</g>
</g>
<!-- Node1&#45;&gt;Node28 -->
<g id="edge31_Node000001_Node000028" class="edge">
<title>Node1&#45;&gt;Node28</title>
<g id="a_edge31_Node000001_Node000028"><a xlink:title=" ">
<path fill="none" stroke="#63b8ff" d="M898.18,-177.18C1050.04,-172.44 1427.88,-158.02 1551,-129 1598.03,-117.91 1649.23,-94.03 1678.87,-78.92"/>
<polygon fill="#63b8ff" stroke="#63b8ff" points="1680.78,-81.87 1688.05,-74.16 1677.57,-75.65 1680.78,-81.87"/>
</a>
</g>
</g>
<!-- Node29 -->
<g id="Node000029" class="node">
<title>Node29</title>
<g id="a_Node000029"><a xlink:href="eth__rpc_8h.html" target="_top" xlink:title=" ">
<polygon fill="white" stroke="#666666" points="1561,-74 1499,-74 1499,-55 1561,-55 1561,-74"/>
<text text-anchor="middle" x="1530" y="-62" font-family="Helvetica,sans-Serif" font-size="10.00">eth_rpc.h</text>
</a>
</g>
</g>
<!-- Node1&#45;&gt;Node29 -->
<g id="edge34_Node000001_Node000029" class="edge">
<title>Node1&#45;&gt;Node29</title>
<g id="a_edge34_Node000001_Node000029"><a xlink:title=" ">
<path fill="none" stroke="#63b8ff" d="M898.17,-177.63C1054.65,-173.81 1446.68,-161.12 1496,-129 1511.68,-118.79 1520.65,-98.81 1525.39,-83.98"/>
<polygon fill="#63b8ff" stroke="#63b8ff" points="1528.78,-84.87 1528.14,-74.3 1522.04,-82.97 1528.78,-84.87"/>
</a>
</g>
</g>
<!-- Node30 -->
<g id="Node000030" class="node">
<title>Node30</title>
<g id="a_Node000030"><a xlink:title=" ">
<polygon fill="#e0e0e0" stroke="#999999" points="1674.5,-129 1619.5,-129 1619.5,-110 1674.5,-110 1674.5,-129"/>
<text text-anchor="middle" x="1647" y="-117" font-family="Helvetica,sans-Serif" font-size="10.00">config.h</text>
</a>
</g>
</g>
<!-- Node1&#45;&gt;Node30 -->
<g id="edge38_Node000001_Node000030" class="edge">
<title>Node1&#45;&gt;Node30</title>
<g id="a_edge38_Node000001_Node000030"><a xlink:title=" ">
<path fill="none" stroke="#63b8ff" d="M898,-177.77C1030.49,-174.57 1344.22,-163.68 1605,-129 1606.29,-128.83 1607.59,-128.64 1608.91,-128.44"/>
<polygon fill="#63b8ff" stroke="#63b8ff" points="1609.81,-131.84 1619.07,-126.7 1608.63,-124.94 1609.81,-131.84"/>
</a>
</g>
</g>
<!-- Node14 -->
<g id="Node000014" class="node">
<title>Node14</title>
<g id="a_Node000014"><a xlink:title=" ">
<polygon fill="#e0e0e0" stroke="#999999" points="1073.5,-74 964.5,-74 964.5,-55 1073.5,-55 1073.5,-74"/>
<text text-anchor="middle" x="1019" y="-62" font-family="Helvetica,sans-Serif" font-size="10.00">CW_NfcTransport.h</text>
</a>
</g>
</g>
<!-- Node13&#45;&gt;Node14 -->
<g id="edge13_Node000013_Node000014" class="edge">
<title>Node13&#45;&gt;Node14</title>
<g id="a_edge13_Node000013_Node000014"><a xlink:title=" ">
<path fill="none" stroke="#63b8ff" d="M1103.77,-109.98C1087.82,-101.61 1063.22,-88.7 1044.62,-78.95"/>
<polygon fill="#63b8ff" stroke="#63b8ff" points="1046,-75.72 1035.52,-74.17 1042.75,-81.92 1046,-75.72"/>
</a>
</g>
</g>
<!-- Node15 -->
<g id="Node000015" class="node">
<title>Node15</title>
<g id="a_Node000015"><a xlink:title=" ">
<polygon fill="#e0e0e0" stroke="#999999" points="946,-74 866,-74 866,-55 946,-55 946,-74"/>
<text text-anchor="middle" x="906" y="-62" font-family="Helvetica,sans-Serif" font-size="10.00">CW_Logger.h</text>
</a>
</g>
</g>
<!-- Node13&#45;&gt;Node15 -->
<g id="edge14_Node000013_Node000015" class="edge">
<title>Node13&#45;&gt;Node15</title>
<g id="a_edge14_Node000013_Node000015"><a xlink:title=" ">
<path fill="none" stroke="#63b8ff" d="M1085.62,-109.98C1048.91,-100.89 990.62,-86.46 950.45,-76.51"/>
<polygon fill="#63b8ff" stroke="#63b8ff" points="951.2,-73.09 940.65,-74.08 949.52,-79.88 951.2,-73.09"/>
</a>
</g>
</g>
<!-- Node13&#45;&gt;Node16 -->
<g id="edge15_Node000013_Node000016" class="edge">
<title>Node13&#45;&gt;Node16</title>
<g id="a_edge15_Node000013_Node000016"><a xlink:title=" ">
<path fill="none" stroke="#63b8ff" d="M1120,-109.75C1120,-102.8 1120,-92.85 1120,-84.13"/>
<polygon fill="#63b8ff" stroke="#63b8ff" points="1123.5,-84.09 1120,-74.09 1116.5,-84.09 1123.5,-84.09"/>
</a>
</g>
</g>
<!-- Node16&#45;&gt;Node8 -->
<g id="edge18_Node000016_Node000008" class="edge">
<title>Node16&#45;&gt;Node8</title>
<g id="a_edge18_Node000016_Node000008"><a xlink:title=" ">
<path fill="none" stroke="#63b8ff" d="M1091.83,-56.94C1088.52,-56.24 1085.19,-55.58 1082,-55 996,-39.33 895.92,-26.03 832.06,-18.15"/>
<polygon fill="#63b8ff" stroke="#63b8ff" points="832.48,-14.68 822.13,-16.94 831.63,-21.63 832.48,-14.68"/>
</a>
</g>
</g>
<!-- Node17 -->
<g id="Node000017" class="node">
<title>Node17</title>
<g id="a_Node000017"><a xlink:title=" ">
<polygon fill="#e0e0e0" stroke="#999999" points="1563.5,-19 1510.5,-19 1510.5,0 1563.5,0 1563.5,-19"/>
<text text-anchor="middle" x="1537" y="-7" font-family="Helvetica,sans-Serif" font-size="10.00">stdint.h</text>
</a>
</g>
</g>
<!-- Node16&#45;&gt;Node17 -->
<g id="edge16_Node000016_Node000017" class="edge">
<title>Node16&#45;&gt;Node17</title>
<g id="a_edge16_Node000016_Node000017"><a xlink:title=" ">
<path fill="none" stroke="#63b8ff" d="M1148.22,-56.68C1151.17,-56.07 1154.14,-55.49 1157,-55 1281.88,-33.41 1431.69,-19.28 1499.9,-13.49"/>
<polygon fill="#63b8ff" stroke="#63b8ff" points="1500.46,-16.95 1510.13,-12.63 1499.88,-9.98 1500.46,-16.95"/>
</a>
</g>
</g>
<!-- Node18 -->
<g id="Node000018" class="node">
<title>Node18</title>
<g id="a_Node000018"><a xlink:title=" ">
<polygon fill="#e0e0e0" stroke="#999999" points="1377,-19 1315,-19 1315,0 1377,0 1377,-19"/>
<text text-anchor="middle" x="1346" y="-7" font-family="Helvetica,sans-Serif" font-size="10.00">stdbool.h</text>
</a>
</g>
</g>
<!-- Node16&#45;&gt;Node18 -->
<g id="edge17_Node000016_Node000018" class="edge">
<title>Node16&#45;&gt;Node18</title>
<g id="a_edge17_Node000016_Node000018"><a xlink:title=" ">
<path fill="none" stroke="#63b8ff" d="M1148.17,-56.89C1187.66,-47.63 1259.73,-30.73 1305.12,-20.09"/>
<polygon fill="#63b8ff" stroke="#63b8ff" points="1306,-23.47 1314.94,-17.78 1304.4,-16.66 1306,-23.47"/>
</a>
</g>
</g>
<!-- Node19 -->
<g id="Node000019" class="node">
<title>Node19</title>
<g id="a_Node000019"><a xlink:title=" ">
<polygon fill="#e0e0e0" stroke="#999999" points="1175,-19 1065,-19 1065,0 1175,0 1175,-19"/>
<text text-anchor="middle" x="1120" y="-7" font-family="Helvetica,sans-Serif" font-size="10.00">driver/i2c_master.h</text>
</a>
</g>
</g>
<!-- Node16&#45;&gt;Node19 -->
<g id="edge19_Node000016_Node000019" class="edge">
<title>Node16&#45;&gt;Node19</title>
<g id="a_edge19_Node000016_Node000019"><a xlink:title=" ">
<path fill="none" stroke="#63b8ff" d="M1120,-54.75C1120,-47.8 1120,-37.85 1120,-29.13"/>
<polygon fill="#63b8ff" stroke="#63b8ff" points="1123.5,-29.09 1120,-19.09 1116.5,-29.09 1123.5,-29.09"/>
</a>
</g>
</g>
<!-- Node20&#45;&gt;Node15 -->
<g id="edge21_Node000020_Node000015" class="edge">
<title>Node20&#45;&gt;Node15</title>
<g id="a_edge21_Node000020_Node000015"><a xlink:title=" ">
<path fill="none" stroke="#63b8ff" d="M984.06,-109.98C969.5,-101.69 947.13,-88.94 930.07,-79.22"/>
<polygon fill="#63b8ff" stroke="#63b8ff" points="931.64,-76.08 921.21,-74.17 928.17,-82.16 931.64,-76.08"/>
</a>
</g>
</g>
<!-- Node22 -->
<g id="Node000022" class="node">
<title>Node22</title>
<g id="a_Node000022"><a xlink:title=" ">
<polygon fill="#e0e0e0" stroke="#999999" points="1285.5,-74 1166.5,-74 1166.5,-55 1285.5,-55 1285.5,-74"/>
<text text-anchor="middle" x="1226" y="-62" font-family="Helvetica,sans-Serif" font-size="10.00">CW_CryptoProvider.h</text>
</a>
</g>
</g>
<!-- Node21&#45;&gt;Node22 -->
<g id="edge23_Node000021_Node000022" class="edge">
<title>Node21&#45;&gt;Node22</title>
<g id="a_edge23_Node000021_Node000022"><a xlink:title=" ">
<path fill="none" stroke="#63b8ff" d="M1290.63,-109.98C1278.91,-101.92 1261.08,-89.65 1247.11,-80.03"/>
<polygon fill="#63b8ff" stroke="#63b8ff" points="1248.82,-76.96 1238.6,-74.17 1244.85,-82.72 1248.82,-76.96"/>
</a>
</g>
</g>
<!-- Node23 -->
<g id="Node000023" class="node">
<title>Node23</title>
<g id="a_Node000023"><a xlink:title=" ">
<polygon fill="#e0e0e0" stroke="#999999" points="1374,-74 1304,-74 1304,-55 1374,-55 1374,-74"/>
<text text-anchor="middle" x="1339" y="-62" font-family="Helvetica,sans-Serif" font-size="10.00">CW_Defs.h</text>
</a>
</g>
</g>
<!-- Node21&#45;&gt;Node23 -->
<g id="edge24_Node000021_Node000023" class="edge">
<title>Node21&#45;&gt;Node23</title>
<g id="a_edge24_Node000021_Node000023"><a xlink:title=" ">
<path fill="none" stroke="#63b8ff" d="M1308.94,-109.75C1313.98,-102.34 1321.34,-91.5 1327.51,-82.41"/>
<polygon fill="#63b8ff" stroke="#63b8ff" points="1330.44,-84.33 1333.17,-74.09 1324.65,-80.39 1330.44,-84.33"/>
</a>
</g>
</g>
<!-- Node25 -->
<g id="Node000025" class="node">
<title>Node25</title>
<g id="a_Node000025"><a xlink:title=" ">
<polygon fill="#e0e0e0" stroke="#999999" points="1481.5,-74 1392.5,-74 1392.5,-55 1481.5,-55 1481.5,-74"/>
<text text-anchor="middle" x="1437" y="-62" font-family="Helvetica,sans-Serif" font-size="10.00">CW_Platform.h</text>
</a>
</g>
</g>
<!-- Node24&#45;&gt;Node25 -->
<g id="edge26_Node000024_Node000025" class="edge">
<title>Node24&#45;&gt;Node25</title>
<g id="a_edge26_Node000024_Node000025"><a xlink:title=" ">
<path fill="none" stroke="#63b8ff" d="M1437.83,-109.75C1437.7,-102.8 1437.52,-92.85 1437.35,-84.13"/>
<polygon fill="#63b8ff" stroke="#63b8ff" points="1440.85,-84.02 1437.16,-74.09 1433.85,-84.15 1440.85,-84.02"/>
</a>
</g>
</g>
<!-- Node26&#45;&gt;Node17 -->
<g id="edge29_Node000026_Node000017" class="edge">
<title>Node26&#45;&gt;Node17</title>
<g id="a_edge29_Node000026_Node000017"><a xlink:title=" ">
<path fill="none" stroke="#63b8ff" d="M1604.99,-54.98C1592.54,-46.84 1573.54,-34.41 1558.79,-24.76"/>
<polygon fill="#63b8ff" stroke="#63b8ff" points="1560.54,-21.72 1550.25,-19.17 1556.7,-27.57 1560.54,-21.72"/>
</a>
</g>
</g>
<!-- Node27 -->
<g id="Node000027" class="node">
<title>Node27</title>
<g id="a_Node000027"><a xlink:title=" ">
<polygon fill="#e0e0e0" stroke="#999999" points="1646,-19 1590,-19 1590,0 1646,0 1646,-19"/>
<text text-anchor="middle" x="1618" y="-7" font-family="Helvetica,sans-Serif" font-size="10.00">stddef.h</text>
</a>
</g>
</g>
<!-- Node26&#45;&gt;Node27 -->
<g id="edge30_Node000026_Node000027" class="edge">
<title>Node26&#45;&gt;Node27</title>
<g id="a_edge30_Node000026_Node000027"><a xlink:title=" ">
<path fill="none" stroke="#63b8ff" d="M1618,-54.75C1618,-47.8 1618,-37.85 1618,-29.13"/>
<polygon fill="#63b8ff" stroke="#63b8ff" points="1621.5,-29.09 1618,-19.09 1614.5,-29.09 1621.5,-29.09"/>
</a>
</g>
</g>
<!-- Node28&#45;&gt;Node17 -->
<g id="edge32_Node000028_Node000017" class="edge">
<title>Node28&#45;&gt;Node17</title>
<g id="a_edge32_Node000028_Node000017"><a xlink:title=" ">
<path fill="none" stroke="#63b8ff" d="M1677.17,-54.98C1649.05,-46.06 1604.69,-31.98 1573.42,-22.06"/>
<polygon fill="#63b8ff" stroke="#63b8ff" points="1574.36,-18.68 1563.76,-18.99 1572.24,-25.36 1574.36,-18.68"/>
</a>
</g>
</g>
<!-- Node28&#45;&gt;Node27 -->
<g id="edge33_Node000028_Node000027" class="edge">
<title>Node28&#45;&gt;Node27</title>
<g id="a_edge33_Node000028_Node000027"><a xlink:title=" ">
<path fill="none" stroke="#63b8ff" d="M1690.18,-54.98C1676.85,-46.77 1656.42,-34.18 1640.69,-24.49"/>
<polygon fill="#63b8ff" stroke="#63b8ff" points="1642.42,-21.44 1632.07,-19.17 1638.75,-27.4 1642.42,-21.44"/>
</a>
</g>
</g>
<!-- Node29&#45;&gt;Node17 -->
<g id="edge35_Node000029_Node000017" class="edge">
<title>Node29&#45;&gt;Node17</title>
<g id="a_edge35_Node000029_Node000017"><a xlink:title=" ">
<path fill="none" stroke="#63b8ff" d="M1531.16,-54.75C1532.07,-47.8 1533.39,-37.85 1534.54,-29.13"/>
<polygon fill="#63b8ff" stroke="#63b8ff" points="1538.03,-29.46 1535.87,-19.09 1531.09,-28.54 1538.03,-29.46"/>
</a>
</g>
</g>
<!-- Node29&#45;&gt;Node18 -->
<g id="edge37_Node000029_Node000018" class="edge">
<title>Node29&#45;&gt;Node18</title>
<g id="a_edge37_Node000029_Node000018"><a xlink:title=" ">
<path fill="none" stroke="#63b8ff" d="M1500.44,-54.98C1469.28,-46.01 1420.03,-31.82 1385.54,-21.89"/>
<polygon fill="#63b8ff" stroke="#63b8ff" points="1386.37,-18.49 1375.79,-19.08 1384.43,-25.21 1386.37,-18.49"/>
</a>
</g>
</g>
<!-- Node29&#45;&gt;Node27 -->
<g id="edge36_Node000029_Node000027" class="edge">
<title>Node29&#45;&gt;Node27</title>
<g id="a_edge36_Node000029_Node000027"><a xlink:title=" ">
<path fill="none" stroke="#63b8ff" d="M1544.14,-54.98C1557.79,-46.77 1578.69,-34.18 1594.78,-24.49"/>
<polygon fill="#63b8ff" stroke="#63b8ff" points="1596.84,-27.33 1603.6,-19.17 1593.23,-21.33 1596.84,-27.33"/>
</a>
</g>
</g>
</g>
</svg>
