<?xml version="1.0" encoding="UTF-8" standalone="no"?>
<!DOCTYPE svg PUBLIC "-//W3C//DTD SVG 1.1//EN"
 "http://www.w3.org/Graphics/SVG/1.1/DTD/svg11.dtd">
<!-- Generated by graphviz version 2.43.0 (0)
 -->
<!-- Title: examples/VerifyPin/main/main.cpp Pages: 1 -->
<svg width="1668pt" height="203pt"
 viewBox="0.00 0.00 1668.00 203.00" xmlns="http://www.w3.org/2000/svg" xmlns:xlink="http://www.w3.org/1999/xlink">
<g id="graph0" class="graph" transform="scale(1 1) rotate(0) translate(4 199)">
<title>examples/VerifyPin/main/main.cpp</title>
<!-- Node1 -->
<g id="Node000001" class="node">
<title>Node1</title>
<g id="a_Node000001"><a xlink:title=" ">
<polygon fill="#999999" stroke="#666666" points="844.5,-195 734.5,-195 734.5,-165 844.5,-165 844.5,-195"/>
<text text-anchor="start" x="742.5" y="-183" font-family="Helvetica,sans-Serif" font-size="10.00">examples/VerifyPin</text>
<text text-anchor="middle" x="789.5" y="-172" font-family="Helvetica,sans-Serif" font-size="10.00">/main/main.cpp</text>
</a>
</g>
</g>
<!-- Node2 -->
<g id="Node000002" class="node">
<title>Node2</title>
<g id="a_Node000002"><a xlink:title=" ">
<polygon fill="#e0e0e0" stroke="#999999" points="53,-129 0,-129 0,-110 53,-110 53,-129"/>
<text text-anchor="middle" x="26.5" y="-117" font-family="Helvetica,sans-Serif" font-size="10.00">string.h</text>
</a>
</g>
</g>
<!-- Node1&#45;&gt;Node2 -->
<g id="edge1_Node000001_Node000002" class="edge">
<title>Node1&#45;&gt;Node2</title>
<g id="a_edge1_Node000001_Node000002"><a xlink:title=" ">
<path fill="none" stroke="#63b8ff" d="M734.35,-178.4C613.96,-176.4 318.57,-167.76 63.37,-129.04"/>
<polygon fill="#63b8ff" stroke="#63b8ff" points="63.58,-125.53 53.16,-127.47 62.51,-132.45 63.58,-125.53"/>
</a>
</g>
</g>
<!-- Node3 -->
<g id="Node000003" class="node">
<title>Node3</title>
<g id="a_Node000003"><a xlink:title=" ">
<polygon fill="#e0e0e0" stroke="#999999" points="184,-129 71,-129 71,-110 184,-110 184,-129"/>
<text text-anchor="middle" x="127.5" y="-117" font-family="Helvetica,sans-Serif" font-size="10.00">freertos/FreeRTOS.h</text>
</a>
</g>
</g>
<!-- Node1&#45;&gt;Node3 -->
<g id="edge2_Node000001_Node000003" class="edge">
<title>Node1&#45;&gt;Node3</title>
<g id="a_edge2_Node000001_Node000003"><a xlink:title=" ">
<path fill="none" stroke="#63b8ff" d="M734.37,-175.2C630.8,-167.87 399.86,-150.69 194.1,-129.01"/>
<polygon fill="#63b8ff" stroke="#63b8ff" points="194.32,-125.52 184.01,-127.94 193.58,-132.48 194.32,-125.52"/>
</a>
</g>
</g>
<!-- Node4 -->
<g id="Node000004" class="node">
<title>Node4</title>
<g id="a_Node000004"><a xlink:title=" ">
<polygon fill="#e0e0e0" stroke="#999999" points="290.5,-129 202.5,-129 202.5,-110 290.5,-110 290.5,-129"/>
<text text-anchor="middle" x="246.5" y="-117" font-family="Helvetica,sans-Serif" font-size="10.00">freertos/task.h</text>
</a>
</g>
</g>
<!-- Node1&#45;&gt;Node4 -->
<g id="edge3_Node000001_Node000004" class="edge">
<title>Node1&#45;&gt;Node4</title>
<g id="a_edge3_Node000001_Node000004"><a xlink:title=" ">
<path fill="none" stroke="#63b8ff" d="M734.27,-174.4C645.27,-166.77 464.39,-150.31 300.96,-129.12"/>
<polygon fill="#63b8ff" stroke="#63b8ff" points="301.09,-125.61 290.72,-127.79 300.18,-132.55 301.09,-125.61"/>
</a>
</g>
</g>
<!-- Node5 -->
<g id="Node000005" class="node">
<title>Node5</title>
<g id="a_Node000005"><a xlink:title=" ">
<polygon fill="#e0e0e0" stroke="#999999" points="442,-129 309,-129 309,-110 442,-110 442,-129"/>
<text text-anchor="middle" x="375.5" y="-117" font-family="Helvetica,sans-Serif" font-size="10.00">freertos/event_groups.h</text>
</a>
</g>
</g>
<!-- Node1&#45;&gt;Node5 -->
<g id="edge4_Node000001_Node000005" class="edge">
<title>Node1&#45;&gt;Node5</title>
<g id="a_edge4_Node000001_Node000005"><a xlink:title=" ">
<path fill="none" stroke="#63b8ff" d="M734.1,-171.17C659.72,-160.66 527.54,-141.98 446.11,-130.48"/>
<polygon fill="#63b8ff" stroke="#63b8ff" points="446.34,-126.98 435.95,-129.04 445.36,-133.91 446.34,-126.98"/>
</a>
</g>
</g>
<!-- Node6 -->
<g id="Node000006" class="node">
<title>Node6</title>
<g id="a_Node000006"><a xlink:title=" ">
<polygon fill="#e0e0e0" stroke="#999999" points="675.5,-19 565.5,-19 565.5,0 675.5,0 675.5,-19"/>
<text text-anchor="middle" x="620.5" y="-7" font-family="Helvetica,sans-Serif" font-size="10.00">driver/spi_master.h</text>
</a>
</g>
</g>
<!-- Node1&#45;&gt;Node6 -->
<g id="edge5_Node000001_Node000006" class="edge">
<title>Node1&#45;&gt;Node6</title>
<g id="a_edge5_Node000001_Node000006"><a xlink:title=" ">
<path fill="none" stroke="#63b8ff" d="M734.32,-177.99C656.43,-175.28 520.26,-165.31 489.5,-129 452.89,-85.78 537.28,-43.25 587.14,-22.9"/>
<polygon fill="#63b8ff" stroke="#63b8ff" points="588.61,-26.09 596.61,-19.14 586.02,-19.58 588.61,-26.09"/>
</a>
</g>
</g>
<!-- Node7 -->
<g id="Node000007" class="node">
<title>Node7</title>
<g id="a_Node000007"><a xlink:title=" ">
<polygon fill="#e0e0e0" stroke="#999999" points="562,-129 499,-129 499,-110 562,-110 562,-129"/>
<text text-anchor="middle" x="530.5" y="-117" font-family="Helvetica,sans-Serif" font-size="10.00">esp_log.h</text>
</a>
</g>
</g>
<!-- Node1&#45;&gt;Node7 -->
<g id="edge6_Node000001_Node000007" class="edge">
<title>Node1&#45;&gt;Node7</title>
<g id="a_edge6_Node000001_Node000007"><a xlink:title=" ">
<path fill="none" stroke="#63b8ff" d="M734.26,-166.52C685.6,-155.53 615.83,-139.77 571.86,-129.84"/>
<polygon fill="#63b8ff" stroke="#63b8ff" points="572.6,-126.42 562.07,-127.63 571.06,-133.25 572.6,-126.42"/>
</a>
</g>
</g>
<!-- Node8 -->
<g id="Node000008" class="node">
<title>Node8</title>
<g id="a_Node000008"><a xlink:title=" ">
<polygon fill="#e0e0e0" stroke="#999999" points="645,-129 580,-129 580,-110 645,-110 645,-129"/>
<text text-anchor="middle" x="612.5" y="-117" font-family="Helvetica,sans-Serif" font-size="10.00">esp_wifi.h</text>
</a>
</g>
</g>
<!-- Node1&#45;&gt;Node8 -->
<g id="edge7_Node000001_Node000008" class="edge">
<title>Node1&#45;&gt;Node8</title>
<g id="a_edge7_Node000001_Node000008"><a xlink:title=" ">
<path fill="none" stroke="#63b8ff" d="M747.1,-164.99C716.82,-154.98 676.55,-141.67 647.97,-132.22"/>
<polygon fill="#63b8ff" stroke="#63b8ff" points="648.97,-128.87 638.38,-129.05 646.78,-135.52 648.97,-128.87"/>
</a>
</g>
</g>
<!-- Node9 -->
<g id="Node000009" class="node">
<title>Node9</title>
<g id="a_Node000009"><a xlink:title=" ">
<polygon fill="#e0e0e0" stroke="#999999" points="733.5,-129 663.5,-129 663.5,-110 733.5,-110 733.5,-129"/>
<text text-anchor="middle" x="698.5" y="-117" font-family="Helvetica,sans-Serif" font-size="10.00">esp_netif.h</text>
</a>
</g>
</g>
<!-- Node1&#45;&gt;Node9 -->
<g id="edge8_Node000001_Node000009" class="edge">
<title>Node1&#45;&gt;Node9</title>
<g id="a_edge8_Node000001_Node000009"><a xlink:title=" ">
<path fill="none" stroke="#63b8ff" d="M767.47,-164.84C753.23,-155.68 734.77,-143.82 720.53,-134.66"/>
<polygon fill="#63b8ff" stroke="#63b8ff" points="722.17,-131.56 711.87,-129.09 718.39,-137.45 722.17,-131.56"/>
</a>
</g>
</g>
<!-- Node10 -->
<g id="Node000010" class="node">
<title>Node10</title>
<g id="a_Node000010"><a xlink:title=" ">
<polygon fill="#e0e0e0" stroke="#999999" points="827.5,-129 751.5,-129 751.5,-110 827.5,-110 827.5,-129"/>
<text text-anchor="middle" x="789.5" y="-117" font-family="Helvetica,sans-Serif" font-size="10.00">esp_event.h</text>
</a>
</g>
</g>
<!-- Node1&#45;&gt;Node10 -->
<g id="edge9_Node000001_Node000010" class="edge">
<title>Node1&#45;&gt;Node10</title>
<g id="a_edge9_Node000001_Node000010"><a xlink:title=" ">
<path fill="none" stroke="#63b8ff" d="M789.5,-164.84C789.5,-157.21 789.5,-147.7 789.5,-139.45"/>
<polygon fill="#63b8ff" stroke="#63b8ff" points="793,-139.27 789.5,-129.27 786,-139.27 793,-139.27"/>
</a>
</g>
</g>
<!-- Node11 -->
<g id="Node000011" class="node">
<title>Node11</title>
<g id="a_Node000011"><a xlink:title=" ">
<polygon fill="#e0e0e0" stroke="#999999" points="917,-129 846,-129 846,-110 917,-110 917,-129"/>
<text text-anchor="middle" x="881.5" y="-117" font-family="Helvetica,sans-Serif" font-size="10.00">nvs_flash.h</text>
</a>
</g>
</g>
<!-- Node1&#45;&gt;Node11 -->
<g id="edge10_Node000001_Node000011" class="edge">
<title>Node1&#45;&gt;Node11</title>
<g id="a_edge10_Node000001_Node000011"><a xlink:title=" ">
<path fill="none" stroke="#63b8ff" d="M811.77,-164.84C826.17,-155.68 844.83,-143.82 859.23,-134.66"/>
<polygon fill="#63b8ff" stroke="#63b8ff" points="861.42,-137.41 867.98,-129.09 857.67,-131.51 861.42,-137.41"/>
</a>
</g>
</g>
<!-- Node12 -->
<g id="Node000012" class="node">
<title>Node12</title>
<g id="a_Node000012"><a xlink:href="pn532_8h.html" target="_top" xlink:title="Low&#45;level PN532 NFC controller driver for ESP&#45;IDF (SPI and I²C).">
<polygon fill="white" stroke="#666666" points="973.5,-74 917.5,-74 917.5,-55 973.5,-55 973.5,-74"/>
<text text-anchor="middle" x="945.5" y="-62" font-family="Helvetica,sans-Serif" font-size="10.00">pn532.h</text>
</a>
</g>
</g>
<!-- Node1&#45;&gt;Node12 -->
<g id="edge11_Node000001_Node000012" class="edge">
<title>Node1&#45;&gt;Node12</title>
<g id="a_edge11_Node000001_Node000012"><a xlink:title=" ">
<path fill="none" stroke="#63b8ff" d="M844.53,-170.58C872.17,-163.71 904.23,-151.3 925.5,-129 937.08,-116.86 941.96,-98.06 944.01,-84.07"/>
<polygon fill="#63b8ff" stroke="#63b8ff" points="947.5,-84.42 945.13,-74.09 940.54,-83.64 947.5,-84.42"/>
</a>
</g>
</g>
<!-- Node16 -->
<g id="Node000016" class="node">
<title>Node16</title>
<g id="a_Node000016"><a xlink:title=" ">
<polygon fill="#e0e0e0" stroke="#999999" points="1075,-129 974,-129 974,-110 1075,-110 1075,-129"/>
<text text-anchor="middle" x="1024.5" y="-117" font-family="Helvetica,sans-Serif" font-size="10.00">CryptnoxWallet.h</text>
</a>
</g>
</g>
<!-- Node1&#45;&gt;Node16 -->
<g id="edge16_Node000001_Node000016" class="edge">
<title>Node1&#45;&gt;Node16</title>
<g id="a_edge16_Node000001_Node000016"><a xlink:title=" ">
<path fill="none" stroke="#63b8ff" d="M844.6,-165.28C885.94,-154.99 941.81,-141.08 980.26,-131.51"/>
<polygon fill="#63b8ff" stroke="#63b8ff" points="981.27,-134.87 990.13,-129.06 979.58,-128.08 981.27,-134.87"/>
</a>
</g>
</g>
<!-- Node17 -->
<g id="Node000017" class="node">
<title>Node17</title>
<g id="a_Node000017"><a xlink:href="Pn532NfcTransport_8h.html" target="_top" xlink:title="CW_NfcTransport adapter wrapping the ESP&#45;IDF PN532 NFC driver.">
<polygon fill="white" stroke="#666666" points="1210,-129 1093,-129 1093,-110 1210,-110 1210,-129"/>
<text text-anchor="middle" x="1151.5" y="-117" font-family="Helvetica,sans-Serif" font-size="10.00">Pn532NfcTransport.h</text>
</a>
</g>
</g>
<!-- Node1&#45;&gt;Node17 -->
<g id="edge17_Node000001_Node000017" class="edge">
<title>Node1&#45;&gt;Node17</title>
<g id="a_edge17_Node000001_Node000017"><a xlink:title=" ">
<path fill="none" stroke="#63b8ff" d="M844.87,-170.05C910.53,-159.44 1019.7,-141.8 1088.51,-130.68"/>
<polygon fill="#63b8ff" stroke="#63b8ff" points="1089.47,-134.07 1098.78,-129.02 1088.35,-127.16 1089.47,-134.07"/>
</a>
</g>
</g>
<!-- Node20 -->
<g id="Node000020" class="node">
<title>Node20</title>
<g id="a_Node000020"><a xlink:href="ESP32Logger_8h.html" target="_top" xlink:title="CW_Logger implementation that writes to ESP32 UART0 via printf.">
<polygon fill="white" stroke="#666666" points="1316.5,-129 1228.5,-129 1228.5,-110 1316.5,-110 1316.5,-129"/>
<text text-anchor="middle" x="1272.5" y="-117" font-family="Helvetica,sans-Serif" font-size="10.00">ESP32Logger.h</text>
</a>
</g>
</g>
<!-- Node1&#45;&gt;Node20 -->
<g id="edge21_Node000001_Node000020" class="edge">
<title>Node1&#45;&gt;Node20</title>
<g id="a_edge21_Node000001_Node000020"><a xlink:title=" ">
<path fill="none" stroke="#63b8ff" d="M844.78,-173.27C924.66,-164.84 1077.23,-148.14 1218.19,-128.99"/>
<polygon fill="#63b8ff" stroke="#63b8ff" points="1218.88,-132.42 1228.32,-127.6 1217.94,-125.49 1218.88,-132.42"/>
</a>
</g>
</g>
<!-- Node21 -->
<g id="Node000021" class="node">
<title>Node21</title>
<g id="a_Node000021"><a xlink:href="esp32__crypto__provider_8h.html" target="_top" xlink:title="CW_CryptoProvider implementation for ESP32 using mbedTLS and the hardware TRNG.">
<polygon fill="white" stroke="#666666" points="1470.5,-129 1334.5,-129 1334.5,-110 1470.5,-110 1470.5,-129"/>
<text text-anchor="middle" x="1402.5" y="-117" font-family="Helvetica,sans-Serif" font-size="10.00">esp32_crypto_provider.h</text>
</a>
</g>
</g>
<!-- Node1&#45;&gt;Node21 -->
<g id="edge23_Node000001_Node000021" class="edge">
<title>Node1&#45;&gt;Node21</title>
<g id="a_edge23_Node000001_Node000021"><a xlink:title=" ">
<path fill="none" stroke="#63b8ff" d="M844.7,-174.16C940.16,-165.73 1142.52,-147.54 1324.47,-129.09"/>
<polygon fill="#63b8ff" stroke="#63b8ff" points="1324.89,-132.56 1334.49,-128.07 1324.18,-125.6 1324.89,-132.56"/>
</a>
</g>
</g>
<!-- Node24 -->
<g id="Node000024" class="node">
<title>Node24</title>
<g id="a_Node000024"><a xlink:href="ESP32Platform_8h.html" target="_top" xlink:title="CW_Platform implementation for ESP32 using FreeRTOS.">
<polygon fill="white" stroke="#666666" points="1586.5,-129 1488.5,-129 1488.5,-110 1586.5,-110 1586.5,-129"/>
<text text-anchor="middle" x="1537.5" y="-117" font-family="Helvetica,sans-Serif" font-size="10.00">ESP32Platform.h</text>
</a>
</g>
</g>
<!-- Node1&#45;&gt;Node24 -->
<g id="edge26_Node000001_Node000024" class="edge">
<title>Node1&#45;&gt;Node24</title>
<g id="a_edge26_Node000001_Node000024"><a xlink:title=" ">
<path fill="none" stroke="#63b8ff" d="M844.63,-176.38C960.16,-170.59 1236.31,-155.18 1478.44,-129.03"/>
<polygon fill="#63b8ff" stroke="#63b8ff" points="1478.92,-132.5 1488.48,-127.94 1478.16,-125.54 1478.92,-132.5"/>
</a>
</g>
</g>
<!-- Node26 -->
<g id="Node000026" class="node">
<title>Node26</title>
<g id="a_Node000026"><a xlink:href="VerifyPin_2main_2config_8h.html" target="_top" xlink:title=" ">
<polygon fill="white" stroke="#666666" points="1660,-129 1605,-129 1605,-110 1660,-110 1660,-129"/>
<text text-anchor="middle" x="1632.5" y="-117" font-family="Helvetica,sans-Serif" font-size="10.00">config.h</text>
</a>
</g>
</g>
<!-- Node1&#45;&gt;Node26 -->
<g id="edge28_Node000001_Node000026" class="edge">
<title>Node1&#45;&gt;Node26</title>
<g id="a_edge28_Node000001_Node000026"><a xlink:title=" ">
<path fill="none" stroke="#63b8ff" d="M844.55,-178.68C973.89,-177.28 1307.29,-169.79 1594.51,-128.87"/>
<polygon fill="#63b8ff" stroke="#63b8ff" points="1595.31,-132.29 1604.71,-127.4 1594.31,-125.36 1595.31,-132.29"/>
</a>
</g>
</g>
<!-- Node12&#45;&gt;Node6 -->
<g id="edge14_Node000012_Node000006" class="edge">
<title>Node12&#45;&gt;Node6</title>
<g id="a_edge14_Node000012_Node000006"><a xlink:title=" ">
<path fill="none" stroke="#63b8ff" d="M917.23,-58.89C865.27,-50.42 753.46,-32.18 682.9,-20.68"/>
<polygon fill="#63b8ff" stroke="#63b8ff" points="683.24,-17.18 672.8,-19.03 682.11,-24.09 683.24,-17.18"/>
</a>
</g>
</g>
<!-- Node13 -->
<g id="Node000013" class="node">
<title>Node13</title>
<g id="a_Node000013"><a xlink:title=" ">
<polygon fill="#e0e0e0" stroke="#999999" points="896,-19 843,-19 843,0 896,0 896,-19"/>
<text text-anchor="middle" x="869.5" y="-7" font-family="Helvetica,sans-Serif" font-size="10.00">stdint.h</text>
</a>
</g>
</g>
<!-- Node12&#45;&gt;Node13 -->
<g id="edge12_Node000012_Node000013" class="edge">
<title>Node12&#45;&gt;Node13</title>
<g id="a_edge12_Node000012_Node000013"><a xlink:title=" ">
<path fill="none" stroke="#63b8ff" d="M933.29,-54.98C921.72,-46.92 904.12,-34.65 890.34,-25.03"/>
<polygon fill="#63b8ff" stroke="#63b8ff" points="892.14,-22.02 881.93,-19.17 888.13,-27.76 892.14,-22.02"/>
</a>
</g>
</g>
<!-- Node14 -->
<g id="Node000014" class="node">
<title>Node14</title>
<g id="a_Node000014"><a xlink:title=" ">
<polygon fill="#e0e0e0" stroke="#999999" points="976.5,-19 914.5,-19 914.5,0 976.5,0 976.5,-19"/>
<text text-anchor="middle" x="945.5" y="-7" font-family="Helvetica,sans-Serif" font-size="10.00">stdbool.h</text>
</a>
</g>
</g>
<!-- Node12&#45;&gt;Node14 -->
<g id="edge13_Node000012_Node000014" class="edge">
<title>Node12&#45;&gt;Node14</title>
<g id="a_edge13_Node000012_Node000014"><a xlink:title=" ">
<path fill="none" stroke="#63b8ff" d="M945.5,-54.75C945.5,-47.8 945.5,-37.85 945.5,-29.13"/>
<polygon fill="#63b8ff" stroke="#63b8ff" points="949,-29.09 945.5,-19.09 942,-29.09 949,-29.09"/>
</a>
</g>
</g>
<!-- Node15 -->
<g id="Node000015" class="node">
<title>Node15</title>
<g id="a_Node000015"><a xlink:title=" ">
<polygon fill="#e0e0e0" stroke="#999999" points="1104.5,-19 994.5,-19 994.5,0 1104.5,0 1104.5,-19"/>
<text text-anchor="middle" x="1049.5" y="-7" font-family="Helvetica,sans-Serif" font-size="10.00">driver/i2c_master.h</text>
</a>
</g>
</g>
<!-- Node12&#45;&gt;Node15 -->
<g id="edge15_Node000012_Node000015" class="edge">
<title>Node12&#45;&gt;Node15</title>
<g id="a_edge15_Node000012_Node000015"><a xlink:title=" ">
<path fill="none" stroke="#63b8ff" d="M962.21,-54.98C978.71,-46.57 1004.2,-33.59 1023.38,-23.81"/>
<polygon fill="#63b8ff" stroke="#63b8ff" points="1025.17,-26.83 1032.49,-19.17 1021.99,-20.59 1025.17,-26.83"/>
</a>
</g>
</g>
<!-- Node17&#45;&gt;Node12 -->
<g id="edge20_Node000017_Node000012" class="edge">
<title>Node17&#45;&gt;Node12</title>
<g id="a_edge20_Node000017_Node000012"><a xlink:title=" ">
<path fill="none" stroke="#63b8ff" d="M1118.4,-109.98C1081.55,-100.5 1022.09,-85.2 983.4,-75.25"/>
<polygon fill="#63b8ff" stroke="#63b8ff" points="984.11,-71.82 973.55,-72.72 982.36,-78.6 984.11,-71.82"/>
</a>
</g>
</g>
<!-- Node18 -->
<g id="Node000018" class="node">
<title>Node18</title>
<g id="a_Node000018"><a xlink:title=" ">
<polygon fill="#e0e0e0" stroke="#999999" points="1178,-74 1069,-74 1069,-55 1178,-55 1178,-74"/>
<text text-anchor="middle" x="1123.5" y="-62" font-family="Helvetica,sans-Serif" font-size="10.00">CW_NfcTransport.h</text>
</a>
</g>
</g>
<!-- Node17&#45;&gt;Node18 -->
<g id="edge18_Node000017_Node000018" class="edge">
<title>Node17&#45;&gt;Node18</title>
<g id="a_edge18_Node000017_Node000018"><a xlink:title=" ">
<path fill="none" stroke="#63b8ff" d="M1146.88,-109.75C1143.04,-102.49 1137.48,-91.95 1132.74,-82.98"/>
<polygon fill="#63b8ff" stroke="#63b8ff" points="1135.8,-81.3 1128.04,-74.09 1129.61,-84.57 1135.8,-81.3"/>
</a>
</g>
</g>
<!-- Node19 -->
<g id="Node000019" class="node">
<title>Node19</title>
<g id="a_Node000019"><a xlink:title=" ">
<polygon fill="#e0e0e0" stroke="#999999" points="1276.5,-74 1196.5,-74 1196.5,-55 1276.5,-55 1276.5,-74"/>
<text text-anchor="middle" x="1236.5" y="-62" font-family="Helvetica,sans-Serif" font-size="10.00">CW_Logger.h</text>
</a>
</g>
</g>
<!-- Node17&#45;&gt;Node19 -->
<g id="edge19_Node000017_Node000019" class="edge">
<title>Node17&#45;&gt;Node19</title>
<g id="a_edge19_Node000017_Node000019"><a xlink:title=" ">
<path fill="none" stroke="#63b8ff" d="M1165.16,-109.98C1178.34,-101.77 1198.53,-89.18 1214.07,-79.49"/>
<polygon fill="#63b8ff" stroke="#63b8ff" points="1215.96,-82.43 1222.59,-74.17 1212.26,-76.49 1215.96,-82.43"/>
</a>
</g>
</g>
<!-- Node20&#45;&gt;Node19 -->
<g id="edge22_Node000020_Node000019" class="edge">
<title>Node20&#45;&gt;Node19</title>
<g id="a_edge22_Node000020_Node000019"><a xlink:title=" ">
<path fill="none" stroke="#63b8ff" d="M1266.56,-109.75C1261.52,-102.34 1254.16,-91.5 1247.99,-82.41"/>
<polygon fill="#63b8ff" stroke="#63b8ff" points="1250.85,-80.39 1242.33,-74.09 1245.06,-84.33 1250.85,-80.39"/>
</a>
</g>
</g>
<!-- Node22 -->
<g id="Node000022" class="node">
<title>Node22</title>
<g id="a_Node000022"><a xlink:title=" ">
<polygon fill="#e0e0e0" stroke="#999999" points="1414,-74 1295,-74 1295,-55 1414,-55 1414,-74"/>
<text text-anchor="middle" x="1354.5" y="-62" font-family="Helvetica,sans-Serif" font-size="10.00">CW_CryptoProvider.h</text>
</a>
</g>
</g>
<!-- Node21&#45;&gt;Node22 -->
<g id="edge24_Node000021_Node000022" class="edge">
<title>Node21&#45;&gt;Node22</title>
<g id="a_edge24_Node000021_Node000022"><a xlink:title=" ">
<path fill="none" stroke="#63b8ff" d="M1394.57,-109.75C1387.65,-102.11 1377.43,-90.82 1369.05,-81.56"/>
<polygon fill="#63b8ff" stroke="#63b8ff" points="1371.59,-79.15 1362.28,-74.09 1366.4,-83.85 1371.59,-79.15"/>
</a>
</g>
</g>
<!-- Node23 -->
<g id="Node000023" class="node">
<title>Node23</title>
<g id="a_Node000023"><a xlink:title=" ">
<polygon fill="#e0e0e0" stroke="#999999" points="1502.5,-74 1432.5,-74 1432.5,-55 1502.5,-55 1502.5,-74"/>
<text text-anchor="middle" x="1467.5" y="-62" font-family="Helvetica,sans-Serif" font-size="10.00">CW_Defs.h</text>
</a>
</g>
</g>
<!-- Node21&#45;&gt;Node23 -->
<g id="edge25_Node000021_Node000023" class="edge">
<title>Node21&#45;&gt;Node23</title>
<g id="a_edge25_Node000021_Node000023"><a xlink:title=" ">
<path fill="none" stroke="#63b8ff" d="M1412.94,-109.98C1422.65,-102.07 1437.32,-90.11 1449,-80.58"/>
<polygon fill="#63b8ff" stroke="#63b8ff" points="1451.33,-83.2 1456.87,-74.17 1446.9,-77.78 1451.33,-83.2"/>
</a>
</g>
</g>
<!-- Node25 -->
<g id="Node000025" class="node">
<title>Node25</title>
<g id="a_Node000025"><a xlink:title=" ">
<polygon fill="#e0e0e0" stroke="#999999" points="1610,-74 1521,-74 1521,-55 1610,-55 1610,-74"/>
<text text-anchor="middle" x="1565.5" y="-62" font-family="Helvetica,sans-Serif" font-size="10.00">CW_Platform.h</text>
</a>
</g>
</g>
<!-- Node24&#45;&gt;Node25 -->
<g id="edge27_Node000024_Node000025" class="edge">
<title>Node24&#45;&gt;Node25</title>
<g id="a_edge27_Node000024_Node000025"><a xlink:title=" ">
<path fill="none" stroke="#63b8ff" d="M1542.12,-109.75C1545.96,-102.49 1551.52,-91.95 1556.26,-82.98"/>
<polygon fill="#63b8ff" stroke="#63b8ff" points="1559.39,-84.57 1560.96,-74.09 1553.2,-81.3 1559.39,-84.57"/>
</a>
</g>
</g>
</g>
</svg>
